<svg width="30" height="31" viewBox="0 0 30 31" fill="none" xmlns="http://www.w3.org/2000/svg">
<path d="M17.9602 16.2659C17.862 16.1597 17.7386 16.0815 17.6021 16.0389C17.4656 15.9963 17.3207 15.9907 17.1816 16.0228C17.0424 16.0548 16.9137 16.1234 16.808 16.2218C16.7023 16.3202 16.6233 16.4451 16.5786 16.5842C16.508 16.7806 16.3706 16.944 16.1917 17.0443C16.0128 17.1445 15.8046 17.1748 15.6056 17.1295C14.7194 16.9025 13.5253 15.7105 13.3043 14.7679C13.2503 14.5629 13.2753 14.3443 13.3742 14.1578C13.4731 13.9713 13.6382 13.8311 13.8352 13.7665C13.9682 13.7205 14.0875 13.6404 14.1819 13.5337C14.2763 13.4271 14.3425 13.2974 14.3743 13.1571C14.4062 13.0167 14.4026 12.8703 14.3638 12.7318C14.3251 12.5933 14.2525 12.4673 14.153 12.3657L12.9135 11.0926C12.7507 10.9389 12.5376 10.8536 12.3165 10.8536C12.0953 10.8536 11.8822 10.9389 11.7194 11.0926L10.8786 11.9603C10.0378 12.8684 10.9674 15.2767 13.0497 17.4133C15.1319 19.5499 17.4727 20.5473 18.3569 19.6432L19.1977 18.7796C19.3446 18.613 19.4259 18.3962 19.4259 18.1715C19.4259 17.9467 19.3446 17.7299 19.1977 17.5633L17.9602 16.2659Z" fill="#E94666"/>
<path d="M15 0C12.0333 0 9.13319 0.903569 6.66645 2.59644C4.19971 4.28932 2.27713 6.69547 1.14181 9.51062C0.00649923 12.3258 -0.290551 15.4235 0.288227 18.412C0.867006 21.4006 2.29562 24.1457 4.3934 26.3003C6.49119 28.455 9.16393 29.9223 12.0736 30.5167C14.9834 31.1112 17.9994 30.8061 20.7403 29.64C23.4811 28.474 25.8238 26.4993 27.472 23.9657C29.1203 21.4321 30 18.4535 30 15.4064C30 11.3204 28.4196 7.40168 25.6066 4.51243C22.7936 1.62317 18.9782 0 15 0ZM15 23.515C13.4556 23.518 11.9449 23.0518 10.6579 22.1751L7.62435 23.1724L8.61119 20.1601C7.75872 18.9501 7.24816 17.5219 7.13581 16.0329C7.02347 14.5438 7.3137 13.0518 7.97451 11.7215C8.63532 10.3911 9.64102 9.27402 10.8807 8.49343C12.1204 7.71284 13.5459 7.29908 15 7.29776C17.0938 7.29776 19.1019 8.15206 20.5824 9.67272C22.063 11.1934 22.8947 13.2558 22.8947 15.4064C22.8947 17.5569 22.063 19.6194 20.5824 21.14C19.1019 22.6607 17.0938 23.515 15 23.515Z" fill="#E94666"/>
</svg>
