<svg width="30" height="30" viewBox="0 0 30 30" fill="none" xmlns="http://www.w3.org/2000/svg">
<path d="M17.484 15.8369C17.3884 15.7335 17.2682 15.6574 17.1354 15.6159C17.0025 15.5744 16.8614 15.569 16.7259 15.6002C16.5904 15.6314 16.4651 15.6982 16.3622 15.794C16.2593 15.8898 16.1824 16.0113 16.1389 16.1468C16.0702 16.338 15.9363 16.4971 15.7621 16.5947C15.588 16.6924 15.3852 16.7218 15.1915 16.6777C14.3287 16.4567 13.1661 15.2961 12.9509 14.3784C12.8983 14.1788 12.9227 13.966 13.019 13.7844C13.1153 13.6028 13.276 13.4663 13.4678 13.4034C13.5973 13.3586 13.7135 13.2806 13.8054 13.1768C13.8972 13.073 13.9617 12.9467 13.9927 12.8101C14.0237 12.6734 14.0202 12.5309 13.9825 12.396C13.9448 12.2612 13.8741 12.1385 13.7772 12.0396L12.5704 10.8001C12.4119 10.6504 12.2045 10.5674 11.9891 10.5674C11.7738 10.5674 11.5664 10.6504 11.4079 10.8001L10.5892 11.6448C9.77063 12.529 10.6757 14.8738 12.703 16.954C14.7303 19.0343 17.0094 20.0054 17.8703 19.1251L18.6889 18.2843C18.8319 18.1221 18.9111 17.911 18.9111 17.6922C18.9111 17.4734 18.8319 17.2623 18.6889 17.1001L17.484 15.8369Z" fill="white"/>
<path d="M14.6043 0C11.7159 0 8.89227 0.879734 6.4906 2.52796C4.08893 4.17618 2.21706 6.51885 1.11169 9.25975C0.00632779 12.0006 -0.282887 15.0166 0.280625 17.9264C0.844136 20.8361 2.23506 23.5088 4.27751 25.6066C6.31997 27.7044 8.92221 29.133 11.7552 29.7118C14.5881 30.2906 17.5246 29.9935 20.1932 28.8582C22.8618 27.7229 25.1426 25.8003 26.7474 23.3335C28.3521 20.8668 29.2087 17.9667 29.2087 15C29.2087 11.0217 27.67 7.20644 24.9311 4.3934C22.1923 1.58035 18.4776 0 14.6043 0ZM14.6043 22.8947C13.1007 22.8976 11.6298 22.4437 10.3768 21.5901L7.42323 22.5612L8.38404 19.6283C7.55406 18.4503 7.05697 17.0597 6.94758 15.6099C6.8382 14.1602 7.12078 12.7076 7.76416 11.4123C8.40754 10.117 9.38671 9.02939 10.5937 8.26939C11.8007 7.50939 13.1886 7.10654 14.6043 7.10526C16.6429 7.10526 18.598 7.93703 20.0395 9.41758C21.481 10.8981 22.2908 12.9062 22.2908 15C22.2908 17.0938 21.481 19.1019 20.0395 20.5824C18.598 22.063 16.6429 22.8947 14.6043 22.8947Z" fill="white"/>
</svg>
