<svg width="138" height="122" viewBox="0 0 138 122" fill="none" xmlns="http://www.w3.org/2000/svg">
<g clip-path="url(#clip0_2_451)">
<path d="M16.1332 12.0842C16.7685 12.0017 17.5022 11.9617 18.3316 11.9617C19.161 11.9617 20.0116 12.0389 20.8809 12.188C21.7528 12.3398 22.6035 12.5847 23.4302 12.9148C24.2596 13.2476 24.9906 13.6896 25.6286 14.2434C26.2639 14.7971 26.7823 15.4893 27.1837 16.32C27.5825 17.1507 27.7845 18.1357 27.7845 19.2672C27.7845 22.0654 26.6494 24.2592 24.3845 25.8486C22.117 27.4407 18.5522 28.2367 13.6849 28.2367C11.0319 28.2367 8.54376 28.0158 6.22041 27.5711C3.89972 27.1292 1.82625 26.3811 0 25.3294L2.94539 16.0671C3.69237 16.5942 4.47922 17.0362 5.30861 17.3956C6.02635 17.7284 6.85574 18.0346 7.79677 18.3088C8.73781 18.5857 9.73201 18.7241 10.782 18.7241C11.2791 18.7241 11.7709 18.6762 12.2547 18.5803C12.7385 18.4845 13.1665 18.3301 13.5387 18.1224C13.9108 17.9148 14.2086 17.6512 14.4292 17.3317C14.6499 17.0149 14.7588 16.6208 14.7588 16.1496C14.7323 15.4015 14.283 14.7732 13.4111 14.2593C12.5392 13.7482 11.5237 13.5059 10.3647 13.5325H5.30595L5.26608 11.0006L10.5322 11.0405C11.3881 11.0405 12.0926 10.8968 12.6482 10.6039C13.2011 10.3137 13.4775 9.933 13.4775 9.46176C13.4775 9.01981 13.2915 8.70033 12.9166 8.50597C12.5445 8.31162 12.074 8.20779 11.5078 8.19714C10.9415 8.18383 10.3062 8.24506 9.60176 8.38351C8.89731 8.52195 8.21147 8.68701 7.54955 8.88137C6.88498 9.07572 6.28421 9.28871 5.74723 9.52566C5.2076 9.76261 4.80088 9.97826 4.52442 10.1699L1.74384 2.57424C3.32021 1.66105 5.15709 1.00344 7.2598 0.601426C9.35985 0.19941 11.5716 -0.00292969 13.8949 -0.00292969C17.8478 -0.00292969 20.8065 0.545517 22.7683 1.63708C24.7301 2.73131 25.7403 4.20626 25.7961 6.05926C25.8519 7.7472 25.0969 9.09968 23.5365 10.1087C21.9761 11.1177 19.5225 11.597 16.1784 11.5411L16.1358 12.0815L16.1332 12.0842Z" fill="white"/>
<path d="M12.3983 61.285H0V33.876H14.6366L17.9116 52.1504H18.5336L21.8512 33.876H36.4452V61.285H24.0469V46.9988H23.4249L20.1897 61.285H16.2502L13.015 46.9988H12.393V61.285H12.3983Z" fill="white"/>
<path d="M60.3695 50.6947H68.5384V61.2855H60.3695V53.9348H59.7474C59.7474 55.4017 59.4896 56.6344 58.9792 57.6301C58.4661 58.6285 57.7829 59.4379 56.927 60.0608C56.071 60.6838 55.0662 61.1338 53.9204 61.4107C52.7721 61.6875 51.5785 61.826 50.3344 61.826C48.6756 61.826 47.1258 61.5411 45.6904 60.974C44.2522 60.407 43.0002 59.555 41.9368 58.4208C40.8709 57.284 40.0362 55.8676 39.4274 54.1637C38.8187 52.4625 38.5156 50.4763 38.5156 48.2054C38.5156 45.9344 38.8532 43.895 39.5311 42.0793C40.2063 40.2662 41.2032 38.722 42.5164 37.4494C43.8296 36.1768 45.4671 35.1944 47.4289 34.5022C49.3907 33.81 51.6582 33.4639 54.2288 33.4639C56.3023 33.4639 58.1897 33.6316 59.8883 33.9644C61.587 34.2945 63.0331 34.7924 64.2213 35.458C65.4096 36.1236 66.3294 36.9462 66.978 37.9286C67.6266 38.9111 67.9536 40.0399 67.9536 41.3125C67.9536 42.9738 67.5655 44.305 66.7919 45.3007C66.0183 46.2991 65.0374 47.0659 63.8492 47.6063C62.6609 48.1468 61.3477 48.5009 59.9096 48.6659C58.4714 48.8337 57.0891 48.9162 55.7626 48.9162H51.5732C51.7114 50.3858 52.0968 51.5546 52.7348 52.4279C53.3728 53.3011 54.3112 53.7351 55.5553 53.7351C56.4113 53.7351 57.1449 53.5833 57.7537 53.2772C58.3598 52.9736 58.8595 52.6275 59.245 52.2388C59.7155 51.7969 60.0877 51.299 60.3641 50.7452V50.7027L60.3695 50.6947ZM55.2709 41.435C54.0826 41.435 53.2027 41.8689 52.6365 42.7422C52.0703 43.6154 51.7167 44.7709 51.5785 46.2086H54.3139C55.3107 46.2086 56.1534 46.0222 56.8446 45.6468C57.5357 45.2741 57.8813 44.6591 57.8813 43.7991C57.8813 43.0803 57.6872 42.5052 57.3018 42.0739C56.9137 41.6453 56.2358 41.4296 55.2709 41.4296V41.435Z" fill="white"/>
<path d="M88.0344 61.2847V46.0427L87.9945 46.0001H87.415C87.415 48.5746 86.6893 50.5554 85.2379 51.9398C83.7864 53.3242 81.7076 54.0165 78.9988 54.0165C72.5578 54.0165 69.3359 50.0282 69.3359 42.0571V33.8757H82.3137V40.521C82.3137 42.2382 82.4652 43.4416 82.7709 44.1338C83.074 44.826 83.5445 45.1721 84.1798 45.1721C84.6504 45.1721 85.0438 45.0044 85.3628 44.6716C85.6791 44.3414 85.9237 43.9661 86.0885 43.5507C86.2826 43.0529 86.4208 42.4991 86.5032 41.8894V33.873H98.8616V61.282H88.037L88.0344 61.2847Z" fill="white"/>
<path d="M132.315 61.2843H120.496L119.542 53.7658H118.92C119.002 55.0117 118.851 56.1273 118.463 57.1097C118.074 58.0921 117.487 58.9228 116.7 59.6017C115.913 60.2806 114.943 60.7971 113.797 61.1591C112.649 61.5186 111.373 61.6996 109.961 61.6996C106.729 61.6996 104.254 60.9169 102.539 59.3541C100.825 57.7913 99.9688 55.664 99.9688 52.9804C99.9688 51.4016 100.224 49.9825 100.737 48.7232C101.247 47.464 102.037 46.391 103.1 45.5045C104.164 44.6206 105.498 43.9417 107.101 43.4704C108.704 42.9992 110.599 42.7649 112.782 42.7649V42.1419H103.701V33.8779H125.845L132.312 61.2869L132.315 61.2843ZM115.48 53.4356C115.977 53.4356 116.384 53.3025 116.703 53.0389C117.019 52.778 117.269 52.4772 117.45 52.147C117.63 51.8143 117.745 51.5107 117.803 51.2339C117.859 50.957 117.886 50.8052 117.886 50.7759L116.767 42.2617C116.129 42.4268 115.57 42.725 115.086 43.1536C114.603 43.5822 114.201 44.0961 113.885 44.6898C113.566 45.2861 113.332 45.9437 113.18 46.6626C113.029 47.3841 112.955 48.1162 112.955 48.8644C112.955 50.499 113.218 51.6678 113.741 52.3733C114.268 53.0815 114.847 53.433 115.483 53.433L115.48 53.4356Z" fill="white"/>
<path d="M61.4242 27.8267H49.6055L48.6511 20.3082H48.0291C48.1115 21.5542 47.96 22.6697 47.5719 23.6521C47.1838 24.6345 46.5963 25.4652 45.8094 26.1441C45.0226 26.823 44.0523 27.3395 42.9066 27.7016C41.7582 28.061 40.4822 28.242 39.0707 28.242C35.8382 28.242 33.3633 27.4593 31.6487 25.8965C29.9341 24.3337 29.0781 22.2065 29.0781 19.5228C29.0781 17.944 29.3333 16.525 29.8464 15.2657C30.3568 14.0064 31.1463 12.9335 32.2096 12.0469C33.2729 11.163 34.6074 10.4841 36.2103 10.0128C37.8133 9.54161 39.7086 9.30732 41.8911 9.30732V8.68433H32.8104V0.415039H54.954L61.4216 27.824L61.4242 27.8267ZM44.5893 19.9781C45.0864 19.9781 45.4931 19.8449 45.8121 19.5814C46.1284 19.3205 46.3783 19.0196 46.5591 18.6895C46.7398 18.3567 46.8541 18.0532 46.9126 17.7763C46.9684 17.4994 46.995 17.3477 46.995 17.3184L45.8759 8.80414C45.2379 8.9692 44.6797 9.26739 44.1958 9.69603C43.712 10.1247 43.3106 10.6385 42.9943 11.2322C42.6753 11.8286 42.4414 12.4862 42.2898 13.205C42.1383 13.9265 42.0639 14.6587 42.0639 15.4068C42.0639 17.0415 42.3271 18.2103 42.8507 18.9158C43.3771 19.624 43.9566 19.9754 44.5919 19.9754L44.5893 19.9781Z" fill="white"/>
<path d="M0 67.5205H26.4979V75.7845H19.4481V94.9295H7.04979V75.7845H0V67.5205Z" fill="white"/>
<path d="M48.5596 83.8006H56.7286V94.3888H48.5596V87.038H47.9376C47.9376 88.5076 47.6797 89.7376 47.1693 90.736C46.6563 91.7317 45.9731 92.5411 45.1171 93.1641C44.2585 93.7871 43.2563 94.237 42.1106 94.5139C40.9622 94.7908 39.7686 94.9292 38.5219 94.9292C36.8631 94.9292 35.316 94.6444 33.8779 94.0773C32.4397 93.5102 31.1877 92.6582 30.1243 91.5241C29.061 90.3899 28.2237 88.9709 27.6149 87.267C27.0062 85.5631 26.7031 83.5769 26.7031 81.3086C26.7031 79.0403 27.0407 76.9956 27.7186 75.1825C28.3965 73.3694 29.3907 71.8253 30.7039 70.5527C32.0171 69.2801 33.6546 68.295 35.6164 67.6028C37.5782 66.9106 39.8457 66.5645 42.419 66.5645C44.4924 66.5645 46.3798 66.7322 48.0785 67.0623C49.7771 67.3951 51.2232 67.893 52.4115 68.5586C53.5997 69.2242 54.5195 70.0468 55.1681 71.0292C55.8168 72.0116 56.1437 73.1405 56.1437 74.4158C56.1437 76.0771 55.7556 77.4056 54.9821 78.404C54.2085 79.3997 53.2249 80.1691 52.0393 80.7096C50.8511 81.25 49.5379 81.6015 48.0997 81.7692C46.6616 81.9369 45.2793 82.0195 43.9528 82.0195H39.766C39.9042 83.4864 40.2897 84.6552 40.9277 85.5284C41.563 86.4017 42.504 86.8357 43.7481 86.8357C44.6041 86.8357 45.3351 86.6839 45.9465 86.3777C46.5526 86.0742 47.0524 85.7281 47.4378 85.3394C47.9083 84.8975 48.2805 84.3969 48.557 83.8432V83.8032L48.5596 83.8006ZM43.461 74.5382C42.2728 74.5382 41.3955 74.9749 40.8266 75.8481C40.2604 76.7214 39.9069 77.8768 39.7686 79.3145H42.504C43.4982 79.3145 44.3436 79.1281 45.0347 78.7527C45.7259 78.3773 46.0715 77.7623 46.0715 76.9051C46.0715 76.1862 45.8774 75.6112 45.4919 75.1825C45.1038 74.7539 44.426 74.5382 43.461 74.5382Z" fill="white"/>
<path d="M74.014 78.9817H73.3919L71.4434 94.9292H57.4688L60.2467 83.3001C60.4673 82.3602 60.7704 81.4657 61.1585 80.6217C61.5439 79.7751 62.1606 79.0376 63.0033 78.3986C63.846 77.7623 64.9731 77.2565 66.382 76.8838C67.7909 76.5084 69.6172 76.322 71.8554 76.322V75.699H59.9543V67.5176H83.4243L89.4374 94.9266H75.92L74.0113 78.979L74.014 78.9817Z" fill="white"/>
<path d="M108.685 94.5555V86.9544L108.643 86.9145H108.063C108.063 89.489 107.338 91.4698 105.886 92.8542C104.435 94.2387 102.356 94.9309 99.6446 94.9309C93.2036 94.9309 89.9844 90.9427 89.9844 82.9689V67.1465H102.962V81.4327C102.962 83.1499 103.114 84.3533 103.419 85.0455C103.722 85.7377 104.193 86.0838 104.828 86.0838C105.299 86.0838 105.692 85.9188 106.011 85.586C106.328 85.2559 106.572 84.8805 106.737 84.4651C106.931 83.9673 107.067 83.4135 107.152 82.8038V67.1465H119.51V94.5555H108.688H108.685Z" fill="white"/>
<path d="M2.12939 103.533V109.358C2.12939 109.443 2.11078 109.502 2.07622 109.533C2.04167 109.565 1.98053 109.581 1.89546 109.581H1.10063C1.01556 109.581 0.957082 109.568 0.930499 109.541C0.903916 109.515 0.890625 109.464 0.890625 109.395V103.546C0.890625 103.429 0.946449 103.37 1.05544 103.37H1.99116C2.0842 103.37 2.13205 103.426 2.13205 103.535L2.12939 103.533ZM1.33456 106.781C1.22557 106.781 1.16975 106.733 1.16975 106.639V106.019C1.16975 105.934 1.22025 105.891 1.32127 105.891H5.56922C5.67024 105.891 5.72074 105.934 5.72074 106.019V106.639C5.72074 106.733 5.66492 106.781 5.55593 106.781H1.3319H1.33456ZM6.19126 103.533V109.358C6.19126 109.443 6.17265 109.502 6.1381 109.533C6.10354 109.565 6.0424 109.581 5.95733 109.581H5.1625C5.07744 109.581 5.01896 109.568 4.99237 109.541C4.96579 109.515 4.9525 109.464 4.9525 109.395V103.546C4.9525 103.429 5.00566 103.37 5.11731 103.37H6.05303C6.14607 103.37 6.19392 103.426 6.19392 103.535L6.19126 103.533Z" fill="white"/>
<path d="M10.5047 109.487C10.1777 109.629 9.81087 109.698 9.40415 109.698C8.7954 109.698 8.31957 109.541 7.97665 109.229C7.63373 108.918 7.46094 108.508 7.46094 107.999C7.46094 107.571 7.58322 107.203 7.83044 106.897C8.07766 106.591 8.43653 106.351 8.91237 106.17C9.3882 105.992 9.96505 105.885 10.6456 105.853L11.3952 105.795C11.451 105.787 11.4936 105.771 11.5308 105.747C11.5653 105.723 11.584 105.68 11.584 105.619V105.326C11.584 104.943 11.4696 104.639 11.2384 104.418C11.0071 104.195 10.6908 104.086 10.284 104.086C9.97302 104.086 9.68593 104.155 9.43073 104.296C9.17554 104.437 8.94692 104.655 8.75287 104.953C8.72097 104.993 8.69439 105.02 8.67046 105.036C8.64654 105.052 8.60666 105.052 8.5535 105.036L7.75867 104.802C7.71879 104.786 7.69487 104.764 7.68158 104.738C7.67094 104.711 7.68158 104.658 7.72145 104.581C7.93943 104.16 8.26906 103.833 8.71034 103.601C9.15161 103.369 9.69125 103.255 10.3319 103.255C10.8928 103.255 11.3553 103.335 11.7195 103.495C12.0811 103.654 12.3495 103.886 12.5223 104.187C12.6951 104.488 12.7802 104.842 12.7802 105.246V109.384C12.7802 109.461 12.7696 109.514 12.7456 109.541C12.7217 109.567 12.6765 109.581 12.6047 109.581H11.8205C11.7567 109.581 11.7142 109.559 11.685 109.517C11.6584 109.474 11.6398 109.418 11.6318 109.346L11.6079 108.902C11.5919 108.777 11.5255 108.769 11.4085 108.878C11.1347 109.144 10.8343 109.346 10.5073 109.487H10.5047ZM11.4165 106.487L10.7838 106.535C10.4728 106.551 10.1857 106.591 9.93049 106.657C9.67264 106.724 9.452 106.812 9.26858 106.921C9.08515 107.03 8.94161 107.161 8.84059 107.312C8.73958 107.464 8.68907 107.642 8.68907 107.845C8.68907 108.148 8.7954 108.391 9.01072 108.566C9.22604 108.742 9.5158 108.83 9.88264 108.83C10.1166 108.83 10.3372 108.79 10.5446 108.707C10.7519 108.625 10.93 108.521 11.0762 108.396C11.241 108.263 11.366 108.127 11.451 107.986C11.5361 107.845 11.5786 107.709 11.5786 107.576V106.663C11.5786 106.53 11.5228 106.471 11.4138 106.487H11.4165Z" fill="white"/>
<path d="M14.2579 111.493C14.1357 111.477 14.0772 111.426 14.0772 111.341V110.742C14.0772 110.694 14.0984 110.657 14.141 110.625C14.1835 110.593 14.2712 110.577 14.4041 110.577H15.1644C15.3292 110.577 15.4781 110.529 15.6163 110.43C15.7519 110.332 15.8636 110.209 15.9486 110.06C16.0337 109.911 16.0922 109.757 16.1187 109.597C16.1453 109.437 16.1374 109.294 16.0895 109.168L13.8539 103.588C13.83 103.532 13.83 103.482 13.8539 103.436C13.8778 103.388 13.9283 103.367 14.0054 103.367H14.965C15.0129 103.367 15.0554 103.38 15.0926 103.407C15.1325 103.434 15.1538 103.471 15.1618 103.519L16.778 107.739C16.8019 107.808 16.8312 107.845 16.871 107.845C16.9109 107.845 16.9455 107.797 16.9774 107.704L18.5697 103.508C18.5856 103.468 18.6096 103.436 18.6388 103.41C18.6707 103.383 18.7079 103.37 18.7558 103.37H19.4469C19.5081 103.37 19.5533 103.391 19.5825 103.434C19.6091 103.476 19.6064 103.522 19.5772 103.57L17.0598 109.959C16.9348 110.279 16.7993 110.542 16.6504 110.745C16.5015 110.947 16.3394 111.107 16.1586 111.218C15.9779 111.33 15.7785 111.41 15.5552 111.453C15.3319 111.495 15.0767 111.517 14.7896 111.517C14.5557 111.517 14.3776 111.509 14.2579 111.493Z" fill="white"/>
<path d="M21.9445 103.555V104.013C21.9445 104.069 21.9578 104.099 21.9844 104.101C22.011 104.107 22.0482 104.088 22.0961 104.048C22.1971 103.947 22.322 103.835 22.4709 103.715C22.6198 103.595 22.8085 103.486 23.0398 103.393C23.271 103.3 23.5528 103.252 23.8878 103.252C24.3636 103.252 24.7916 103.366 25.1691 103.598C25.5465 103.83 25.8469 104.176 26.0702 104.636C26.2935 105.097 26.4025 105.683 26.4025 106.394C26.4025 107.104 26.2909 107.717 26.0702 108.204C25.8469 108.691 25.5386 109.064 25.1451 109.317C24.7517 109.57 24.2918 109.698 23.7708 109.698C23.4279 109.698 23.1222 109.644 22.851 109.54C22.5799 109.437 22.3459 109.293 22.1439 109.112C22.0748 109.043 22.0216 109.013 21.9924 109.024C21.9605 109.035 21.9445 109.088 21.9445 109.181V111.351C21.9445 111.46 21.8967 111.516 21.8037 111.516H20.8546C20.7536 111.516 20.7031 111.46 20.7031 111.351V103.579C20.7031 103.502 20.7191 103.446 20.751 103.414C20.7829 103.382 20.8414 103.366 20.9264 103.366H21.7452C21.8781 103.366 21.9445 103.43 21.9445 103.555ZM22.6065 108.662C22.8377 108.79 23.0956 108.856 23.3853 108.856C23.7362 108.856 24.0419 108.766 24.3051 108.587C24.5656 108.406 24.7703 108.135 24.9192 107.773C25.068 107.408 25.1425 106.95 25.1425 106.396C25.1425 105.842 25.0654 105.395 24.9139 105.06C24.7623 104.724 24.5577 104.479 24.2998 104.328C24.0419 104.176 23.7575 104.099 23.4465 104.099C23.1567 104.099 22.8989 104.162 22.6729 104.285C22.447 104.41 22.2689 104.567 22.1413 104.754C22.0137 104.94 21.9472 105.129 21.9472 105.315V108.14C22.1572 108.358 22.3778 108.534 22.6091 108.662H22.6065Z" fill="white"/>
<path d="M27.6251 111.493C27.5028 111.477 27.4444 111.426 27.4444 111.341V110.742C27.4444 110.694 27.4656 110.657 27.5082 110.625C27.5507 110.593 27.6384 110.577 27.7713 110.577H28.5316C28.6964 110.577 28.8453 110.529 28.9835 110.43C29.1191 110.332 29.2307 110.209 29.3158 110.06C29.4009 109.911 29.4594 109.757 29.4859 109.597C29.5125 109.437 29.5045 109.294 29.4567 109.168L27.2211 103.588C27.1971 103.532 27.1971 103.482 27.2211 103.436C27.245 103.388 27.2955 103.367 27.3726 103.367H28.3322C28.3801 103.367 28.4226 103.38 28.4598 103.407C28.4997 103.434 28.521 103.471 28.5289 103.519L30.1452 107.739C30.1691 107.808 30.1984 107.845 30.2382 107.845C30.2781 107.845 30.3127 107.797 30.3446 107.704L31.9369 103.508C31.9528 103.468 31.9768 103.436 32.006 103.41C32.0379 103.383 32.0751 103.37 32.123 103.37H32.8141C32.8753 103.37 32.9205 103.391 32.9497 103.434C32.9763 103.476 32.9736 103.522 32.9444 103.57L30.427 109.959C30.302 110.279 30.1665 110.542 30.0176 110.745C29.8687 110.947 29.7066 111.107 29.5258 111.218C29.345 111.33 29.1457 111.41 28.9224 111.453C28.6991 111.495 28.4439 111.517 28.1568 111.517C27.9229 111.517 27.7448 111.509 27.6251 111.493Z" fill="white"/>
<path d="M33.7576 109.581C33.7097 109.581 33.6805 109.573 33.6645 109.557C33.6486 109.541 33.6406 109.509 33.6406 109.464V108.889C33.6406 108.82 33.6832 108.782 33.7682 108.782C33.8772 108.782 33.9676 108.753 34.0367 108.695C34.1058 108.636 34.1617 108.53 34.2015 108.372L34.5763 107.153C34.6455 106.919 34.7358 106.732 34.8448 106.591C34.9538 106.45 35.0974 106.346 35.2728 106.274C35.4483 106.205 35.6689 106.165 35.9347 106.157L36.3574 105.888H37.4686V103.367H38.71V105.888H39.8212L40.2305 106.157C40.4964 106.165 40.717 106.205 40.8924 106.274C41.0679 106.344 41.2114 106.45 41.3258 106.591C41.4401 106.732 41.5304 106.919 41.6022 107.153L41.977 108.372C42.0169 108.53 42.0701 108.636 42.1418 108.695C42.211 108.753 42.3013 108.782 42.4103 108.782C42.4954 108.782 42.5379 108.817 42.5379 108.889V109.464C42.5379 109.512 42.5273 109.541 42.5087 109.557C42.4901 109.573 42.4608 109.581 42.421 109.581H42.0116C41.7059 109.581 41.456 109.517 41.2566 109.387C41.0573 109.256 40.9164 109.014 40.8286 108.655L40.5017 107.552C40.4326 107.318 40.3634 107.145 40.297 107.036C40.2305 106.927 40.1481 106.858 40.0524 106.826C39.9541 106.794 39.8238 106.778 39.659 106.778H38.71V109.578H37.4686V106.778H36.5328C36.376 106.778 36.2511 106.794 36.1527 106.826C36.0544 106.858 35.9719 106.927 35.9081 107.036C35.8417 107.145 35.7699 107.318 35.6928 107.552L35.3419 108.655C35.2489 109.006 35.1053 109.248 34.9139 109.381C34.7225 109.515 34.4753 109.581 34.1696 109.581H33.7602H33.7576ZM36.5674 106.381L35.2675 106.274C35.3233 106.251 35.3526 106.219 35.3552 106.181C35.3579 106.141 35.3446 106.096 35.3154 106.04L33.8294 103.543C33.7735 103.426 33.8028 103.367 33.9118 103.367H34.7545C34.8236 103.367 34.8794 103.383 34.9193 103.415C34.9591 103.447 34.9884 103.484 35.0123 103.532L36.1952 105.62C36.2511 105.713 36.3016 105.782 36.3521 105.825C36.4026 105.867 36.4744 105.888 36.5674 105.888V106.381ZM39.5527 106.381V105.888C39.6856 105.888 39.776 105.867 39.8212 105.825C39.869 105.782 39.9195 105.713 39.9727 105.62L41.1663 103.532C41.1902 103.484 41.2221 103.447 41.2593 103.415C41.2965 103.383 41.3523 103.367 41.4241 103.367H42.2562C42.3731 103.367 42.3997 103.426 42.3386 103.543L40.8632 106.04C40.8021 106.149 40.8154 106.229 40.9111 106.274L39.5527 106.381Z" fill="white"/>
<path d="M45.0513 103.533V109.358C45.0513 109.443 45.0327 109.502 44.9981 109.533C44.9635 109.565 44.9024 109.581 44.8173 109.581H44.0225C43.9374 109.581 43.879 109.568 43.8524 109.541C43.8258 109.515 43.8125 109.464 43.8125 109.395V103.546C43.8125 103.429 43.8683 103.37 43.9773 103.37H44.913C45.0061 103.37 45.0539 103.426 45.0539 103.535L45.0513 103.533ZM44.2564 106.781C44.1474 106.781 44.0916 106.733 44.0916 106.639V106.019C44.0916 105.934 44.1421 105.891 44.2431 105.891H48.4911C48.5921 105.891 48.6426 105.934 48.6426 106.019V106.639C48.6426 106.733 48.5868 106.781 48.4778 106.781H44.2511H44.2564ZM49.1131 103.533V109.358C49.1131 109.443 49.0945 109.502 49.06 109.533C49.0254 109.565 48.9643 109.581 48.8792 109.581H48.0844C47.9993 109.581 47.9408 109.568 47.9142 109.541C47.8877 109.515 47.8744 109.464 47.8744 109.395V103.546C47.8744 103.429 47.9275 103.37 48.0392 103.37H48.9749C49.0679 103.37 49.1158 103.426 49.1158 103.535L49.1131 103.533Z" fill="white"/>
<path d="M53.4266 109.487C53.0996 109.629 52.7327 109.698 52.326 109.698C51.7173 109.698 51.2414 109.541 50.8985 109.229C50.5556 108.918 50.3828 108.508 50.3828 107.999C50.3828 107.571 50.5051 107.203 50.7523 106.897C50.9995 106.591 51.3584 106.351 51.8342 106.17C52.3101 105.992 52.8869 105.885 53.5674 105.853L54.3171 105.795C54.3729 105.787 54.4154 105.771 54.4527 105.747C54.4872 105.723 54.5058 105.68 54.5058 105.619V105.326C54.5058 104.943 54.3915 104.639 54.1602 104.418C53.929 104.195 53.6126 104.086 53.2059 104.086C52.8949 104.086 52.6078 104.155 52.3526 104.296C52.0974 104.437 51.8688 104.655 51.6747 104.953C51.6428 104.993 51.6163 105.02 51.5923 105.036C51.5684 105.052 51.5285 105.052 51.4754 105.036L50.6805 104.802C50.6407 104.786 50.6167 104.764 50.6035 104.738C50.5928 104.711 50.6034 104.658 50.6433 104.581C50.8613 104.16 51.1909 103.833 51.6322 103.601C52.0735 103.369 52.6131 103.255 53.2538 103.255C53.8147 103.255 54.2772 103.335 54.6414 103.495C55.0029 103.654 55.2714 103.886 55.4442 104.187C55.617 104.488 55.7021 104.842 55.7021 105.246V109.384C55.7021 109.461 55.6914 109.514 55.6675 109.541C55.6436 109.567 55.5984 109.581 55.5266 109.581H54.7424C54.6786 109.581 54.6361 109.559 54.6068 109.517C54.5803 109.474 54.5617 109.418 54.5537 109.346L54.5297 108.902C54.5138 108.777 54.4473 108.769 54.3304 108.878C54.0566 109.144 53.7562 109.346 53.4292 109.487H53.4266ZM54.3384 106.487L53.7057 106.535C53.3947 106.551 53.1076 106.591 52.8524 106.657C52.5945 106.724 52.3739 106.812 52.1905 106.921C52.007 107.03 51.8635 107.161 51.7625 107.312C51.6615 107.464 51.6109 107.642 51.6109 107.845C51.6109 108.148 51.7173 108.391 51.9326 108.566C52.1479 108.742 52.4377 108.83 52.8045 108.83C53.0384 108.83 53.2591 108.79 53.4664 108.707C53.6738 108.625 53.8519 108.521 53.9981 108.396C54.1629 108.263 54.2878 108.127 54.3729 107.986C54.458 107.845 54.5005 107.709 54.5005 107.576V106.663C54.5005 106.53 54.4447 106.471 54.3357 106.487H54.3384Z" fill="white"/>
<path d="M57.2201 109.581C57.1351 109.581 57.0846 109.557 57.0686 109.512C57.0527 109.464 57.0686 109.405 57.1165 109.336L58.9427 106.98L60.0672 107.39C59.9103 107.39 59.7934 107.446 59.7163 107.555L58.3579 109.453C58.326 109.501 58.2941 109.533 58.2595 109.552C58.225 109.57 58.1798 109.581 58.1239 109.581H57.2228H57.2201ZM60.9657 109.581V107.39H59.8997C59.5408 107.39 59.2032 107.342 58.8869 107.249C58.5705 107.156 58.2888 107.017 58.0442 106.839C57.7996 106.661 57.6029 106.44 57.4594 106.181C57.3158 105.923 57.2441 105.63 57.2441 105.303C57.2441 104.709 57.4514 104.238 57.8634 103.889C58.2781 103.54 58.8709 103.367 59.6418 103.367H62.1353V109.581H60.9657ZM59.8173 106.605H60.9657V104.19H59.7827C59.3228 104.19 58.9799 104.291 58.7593 104.496C58.536 104.698 58.427 104.983 58.427 105.351C58.427 105.649 58.4881 105.888 58.6131 106.072C58.738 106.256 58.9081 106.392 59.1235 106.477C59.3388 106.562 59.5701 106.605 59.8199 106.605H59.8173Z" fill="white"/>
<path d="M67.5774 103.555V104.013C67.5774 104.069 67.5907 104.099 67.6172 104.101C67.6438 104.107 67.681 104.088 67.7289 104.048C67.8299 103.947 67.9548 103.835 68.1037 103.715C68.2526 103.595 68.4413 103.486 68.6726 103.393C68.9039 103.3 69.1856 103.252 69.5206 103.252C69.9964 103.252 70.4244 103.366 70.8019 103.598C71.1793 103.83 71.4797 104.176 71.703 104.636C71.9263 105.097 72.038 105.683 72.038 106.394C72.038 107.104 71.9263 107.717 71.703 108.204C71.4797 108.691 71.1714 109.064 70.7779 109.317C70.3845 109.57 69.9246 109.698 69.4036 109.698C69.0607 109.698 68.755 109.644 68.4838 109.54C68.2127 109.437 67.9788 109.293 67.7767 109.112C67.7076 109.043 67.6545 109.013 67.6252 109.024C67.5933 109.035 67.5774 109.088 67.5774 109.181V111.351C67.5774 111.46 67.5295 111.516 67.4365 111.516H66.4875C66.3864 111.516 66.3359 111.46 66.3359 111.351V103.579C66.3359 103.502 66.3519 103.446 66.3838 103.414C66.4157 103.382 66.4742 103.366 66.5592 103.366H67.378C67.5109 103.366 67.5774 103.43 67.5774 103.555ZM68.2393 108.662C68.4705 108.79 68.7284 108.856 69.0182 108.856C69.369 108.856 69.6748 108.766 69.9379 108.587C70.1984 108.406 70.4031 108.135 70.552 107.773C70.7009 107.408 70.7753 106.95 70.7753 106.396C70.7753 105.842 70.6982 105.395 70.5467 105.06C70.3952 104.724 70.1905 104.479 69.9326 104.328C69.6748 104.176 69.3903 104.099 69.0793 104.099C68.7895 104.099 68.5317 104.162 68.3057 104.285C68.0798 104.41 67.9017 104.567 67.7741 104.754C67.6465 104.94 67.58 105.129 67.58 105.315V108.14C67.79 108.358 68.0107 108.534 68.2419 108.662H68.2393Z" fill="white"/>
<path d="M74.5727 107.864C74.7402 108.149 74.9662 108.375 75.2506 108.543C75.535 108.711 75.854 108.796 76.2049 108.796C76.5558 108.796 76.8828 108.721 77.1646 108.572C77.4464 108.423 77.7042 108.194 77.9381 107.88C77.9621 107.848 77.986 107.832 78.0073 107.827C78.0312 107.824 78.0657 107.832 78.1136 107.856L78.7117 108.138C78.7968 108.178 78.8047 108.239 78.7356 108.327C78.5177 108.647 78.2757 108.91 78.0152 109.113C77.7547 109.315 77.4623 109.464 77.1433 109.557C76.8243 109.65 76.4681 109.698 76.0773 109.698C75.4845 109.698 74.9608 109.565 74.5089 109.299C74.057 109.033 73.6982 108.663 73.4376 108.186C73.1771 107.709 73.0469 107.161 73.0469 106.543C73.0469 105.864 73.1798 105.279 73.4456 104.792C73.7114 104.304 74.073 103.924 74.5275 103.655C74.9848 103.386 75.4925 103.25 76.0561 103.25C76.6196 103.25 77.138 103.378 77.5713 103.631C78.0046 103.884 78.3422 104.251 78.5841 104.728C78.826 105.204 78.9483 105.782 78.9483 106.463C78.9483 106.533 78.9403 106.594 78.9244 106.645C78.9084 106.695 78.8579 106.722 78.7728 106.722H74.4425C74.4026 106.722 74.3734 106.74 74.3548 106.775C74.3362 106.81 74.3255 106.855 74.3255 106.911C74.3255 107.262 74.4106 107.582 74.5781 107.867L74.5727 107.864ZM77.5155 105.982C77.6005 105.982 77.6564 105.971 77.6803 105.947C77.7042 105.923 77.7148 105.88 77.7148 105.819C77.7148 105.521 77.651 105.241 77.5208 104.975C77.3932 104.709 77.2098 104.496 76.9705 104.331C76.7313 104.166 76.4389 104.086 76.088 104.086C75.7371 104.086 75.4074 104.174 75.1469 104.35C74.8864 104.525 74.687 104.757 74.5488 105.047C74.4132 105.337 74.3441 105.646 74.3441 105.974L77.5155 105.984V105.982Z" fill="white"/>
<path d="M80.1797 109.581V103.367H81.4211V105.888H82.9789L83.3989 106.157C83.7976 106.165 84.1033 106.251 84.3187 106.416C84.534 106.581 84.6802 106.826 84.7573 107.153L85.0603 108.372C85.1082 108.53 85.164 108.636 85.2304 108.695C85.2969 108.753 85.3846 108.782 85.4936 108.782C85.5787 108.782 85.6212 108.817 85.6212 108.889V109.464C85.6212 109.512 85.6132 109.541 85.5973 109.557C85.5813 109.573 85.5548 109.581 85.5149 109.581H85.0949C84.7971 109.581 84.5499 109.517 84.3506 109.387C84.1512 109.259 84.0103 109.014 83.9226 108.655L83.6541 107.552C83.577 107.217 83.476 107.004 83.3563 106.913C83.2341 106.823 83.0586 106.778 82.8247 106.778H81.4211V109.578H80.1797V109.581ZM82.7184 106.381V105.888C82.8433 105.888 82.931 105.867 82.9815 105.825C83.032 105.782 83.0852 105.713 83.1384 105.62L84.3665 103.532C84.3984 103.484 84.4303 103.447 84.4649 103.415C84.4994 103.383 84.5526 103.367 84.6217 103.367H85.4644C85.5202 103.367 85.5548 103.383 85.5707 103.415C85.5867 103.447 85.5787 103.49 85.5468 103.543L84.0129 106.04C83.981 106.096 83.9678 106.141 83.9731 106.181C83.9757 106.221 84.0103 106.256 84.0714 106.288L82.713 106.381H82.7184Z" fill="white"/>
<path d="M86.3914 109.581C86.3063 109.557 86.2665 109.512 86.2744 109.44L86.3436 108.689C86.3595 108.604 86.402 108.564 86.4712 108.572C86.729 108.588 86.9443 108.514 87.1145 108.348C87.2846 108.183 87.4255 107.938 87.5345 107.611C87.6435 107.284 87.7232 106.882 87.7684 106.41C87.8136 105.939 87.8375 105.404 87.8375 104.81V103.367H92.1679V109.581H90.9264V104.248H88.7972V105.01C88.7972 105.737 88.752 106.397 88.6616 106.991C88.5712 107.584 88.4303 108.088 88.2416 108.498C88.0502 108.908 87.803 109.206 87.4973 109.395C87.1942 109.581 86.822 109.645 86.3861 109.581H86.3914Z" fill="white"/>
<path d="M96.4812 109.487C96.1543 109.629 95.7874 109.698 95.3807 109.698C94.772 109.698 94.2961 109.541 93.9532 109.229C93.6103 108.918 93.4375 108.508 93.4375 107.999C93.4375 107.571 93.5598 107.203 93.807 106.897C94.0542 106.591 94.4131 106.351 94.8889 106.17C95.3648 105.992 95.9416 105.885 96.6221 105.853L97.3718 105.795C97.4276 105.787 97.4728 105.771 97.5073 105.747C97.5419 105.723 97.5605 105.68 97.5605 105.619V105.326C97.5605 104.943 97.4462 104.639 97.2149 104.418C96.9837 104.195 96.6673 104.086 96.2606 104.086C95.9496 104.086 95.6625 104.155 95.4073 104.296C95.1521 104.437 94.9235 104.655 94.7294 104.953C94.6975 104.993 94.6709 105.02 94.647 105.036C94.6231 105.052 94.5832 105.052 94.5301 105.036L93.7352 104.802C93.6954 104.786 93.6714 104.764 93.6581 104.738C93.6475 104.711 93.6581 104.658 93.698 104.581C93.916 104.16 94.2456 103.833 94.6869 103.601C95.1282 103.369 95.6678 103.255 96.3085 103.255C96.8694 103.255 97.3319 103.335 97.6961 103.495C98.0603 103.654 98.3261 103.886 98.4989 104.187C98.6717 104.488 98.7567 104.842 98.7567 105.246V109.384C98.7567 109.461 98.7461 109.514 98.7222 109.541C98.6983 109.567 98.6531 109.581 98.5813 109.581H97.7971C97.7333 109.581 97.6908 109.559 97.6615 109.517C97.6349 109.474 97.6163 109.418 97.6084 109.346L97.5844 108.902C97.5685 108.777 97.502 108.769 97.3851 108.878C97.1113 109.144 96.8109 109.346 96.4839 109.487H96.4812ZM97.393 106.487L96.7604 106.535C96.4493 106.551 96.1623 106.591 95.9071 106.657C95.6492 106.724 95.4286 106.812 95.2451 106.921C95.0617 107.03 94.9182 107.161 94.8172 107.312C94.7161 107.464 94.6656 107.642 94.6656 107.845C94.6656 108.148 94.772 108.391 94.9873 108.566C95.2026 108.742 95.4924 108.83 95.8592 108.83C96.0931 108.83 96.3138 108.79 96.5211 108.707C96.7285 108.625 96.9066 108.521 97.0528 108.396C97.2176 108.263 97.3425 108.127 97.4276 107.986C97.5127 107.845 97.5552 107.709 97.5552 107.576V106.663C97.5552 106.53 97.4994 106.471 97.3904 106.487H97.393Z" fill="white"/>
<path d="M100.555 109.581C100.462 109.581 100.414 109.531 100.414 109.43V103.498C100.414 103.413 100.465 103.37 100.566 103.37H101.828C101.921 103.37 101.985 103.41 102.017 103.487L103.585 107.039C103.601 107.087 103.625 107.108 103.662 107.108C103.7 107.108 103.726 107.084 103.75 107.039L105.366 103.522C105.39 103.474 105.42 103.439 105.454 103.41C105.489 103.383 105.534 103.37 105.59 103.37H106.818C106.903 103.37 106.945 103.421 106.945 103.522V109.454C106.945 109.539 106.898 109.581 106.805 109.581H105.845C105.752 109.581 105.704 109.531 105.704 109.43V104.986C105.704 104.938 105.691 104.917 105.664 104.917C105.638 104.917 105.611 104.941 105.587 104.986L104.029 108.421C103.997 108.498 103.939 108.538 103.854 108.538H103.235C103.149 108.538 103.091 108.498 103.059 108.421L101.573 105.021C101.549 104.965 101.52 104.941 101.485 104.944C101.451 104.946 101.432 104.976 101.432 105.031V109.451C101.432 109.536 101.384 109.579 101.291 109.579H100.555V109.581Z" fill="white"/>
<path d="M111.255 109.487C110.928 109.629 110.561 109.698 110.154 109.698C109.545 109.698 109.07 109.541 108.727 109.229C108.384 108.918 108.211 108.508 108.211 107.999C108.211 107.571 108.333 107.203 108.58 106.897C108.828 106.591 109.187 106.351 109.662 106.17C110.138 105.992 110.715 105.885 111.396 105.853L112.145 105.795C112.201 105.787 112.246 105.771 112.281 105.747C112.315 105.723 112.334 105.68 112.334 105.619V105.326C112.334 104.943 112.22 104.639 111.988 104.418C111.757 104.195 111.441 104.086 111.034 104.086C110.723 104.086 110.436 104.155 110.181 104.296C109.926 104.437 109.697 104.655 109.503 104.953C109.471 104.993 109.444 105.02 109.42 105.036C109.397 105.052 109.357 105.052 109.304 105.036L108.509 104.802C108.469 104.786 108.445 104.764 108.432 104.738C108.421 104.711 108.432 104.658 108.471 104.581C108.689 104.16 109.019 103.833 109.46 103.601C109.902 103.369 110.441 103.255 111.082 103.255C111.643 103.255 112.105 103.335 112.47 103.495C112.834 103.654 113.1 103.886 113.272 104.187C113.445 104.488 113.53 104.842 113.53 105.246V109.384C113.53 109.461 113.52 109.514 113.496 109.541C113.472 109.567 113.427 109.581 113.355 109.581H112.571C112.507 109.581 112.464 109.559 112.435 109.517C112.408 109.474 112.39 109.418 112.382 109.346L112.358 108.902C112.342 108.777 112.275 108.769 112.159 108.878C111.885 109.144 111.584 109.346 111.257 109.487H111.255ZM112.166 106.487L111.534 106.535C111.223 106.551 110.936 106.591 110.68 106.657C110.423 106.724 110.202 106.812 110.019 106.921C109.835 107.03 109.692 107.161 109.591 107.312C109.49 107.464 109.439 107.642 109.439 107.845C109.439 108.148 109.545 108.391 109.761 108.566C109.976 108.742 110.266 108.83 110.633 108.83C110.867 108.83 111.087 108.79 111.295 108.707C111.502 108.625 111.68 108.521 111.826 108.396C111.991 108.263 112.116 108.127 112.201 107.986C112.286 107.845 112.329 107.709 112.329 107.576V106.663C112.329 106.53 112.273 106.471 112.164 106.487H112.166Z" fill="white"/>
<path d="M0.890625 121.883V115.669H3.67652C4.44211 115.669 5.01895 115.81 5.40972 116.09C5.80049 116.372 5.99455 116.774 5.99455 117.298C5.99455 117.618 5.92809 117.889 5.79518 118.108C5.66226 118.326 5.42036 118.502 5.06946 118.635C5.03756 118.643 5.02161 118.661 5.02161 118.688C5.02161 118.715 5.03756 118.733 5.06946 118.741C5.42036 118.834 5.69416 119.01 5.88822 119.263C6.08227 119.516 6.18063 119.82 6.18063 120.171C6.18063 120.741 5.9786 121.169 5.5772 121.454C5.17579 121.739 4.59097 121.883 3.82804 121.883H0.890625ZM3.57018 118.401C3.82804 118.401 4.05665 118.371 4.25602 118.313C4.4554 118.254 4.60958 118.153 4.71857 118.006C4.82756 117.863 4.88338 117.668 4.88338 117.426C4.88338 117.115 4.77705 116.886 4.56704 116.747C4.35704 116.609 4.0407 116.537 3.61803 116.537H2.07357V118.401H3.57284H3.57018ZM3.735 121.063C4.20286 121.063 4.5378 120.986 4.74249 120.834C4.94452 120.682 5.0482 120.44 5.0482 120.112C5.0482 119.785 4.93123 119.521 4.6973 119.367C4.46337 119.215 4.10716 119.138 3.63133 119.138H2.07357V121.06H3.735V121.063Z" fill="white"/>
<path d="M7.54688 121.883V115.669H8.72982V117.932H9.77187C10.3726 117.932 10.8538 118.017 11.2127 118.19C11.5715 118.363 11.832 118.592 11.9915 118.882C12.151 119.173 12.2308 119.497 12.2308 119.857C12.2308 120.333 12.1431 120.719 11.9676 121.018C11.7922 121.316 11.5237 121.534 11.1595 121.675C10.7953 121.816 10.3221 121.886 9.73731 121.886H7.54953L7.54688 121.883ZM8.72982 121.063H9.7825C10.2424 121.063 10.5853 120.967 10.8059 120.775C11.0292 120.584 11.1382 120.28 11.1382 119.867C11.1382 119.455 11.0106 119.178 10.7581 118.994C10.5056 118.811 10.144 118.717 9.67617 118.717H8.72716V121.063H8.72982ZM14.4425 121.662C14.4425 121.747 14.4239 121.806 14.3893 121.838C14.3548 121.87 14.2936 121.886 14.2086 121.886H13.4137C13.3287 121.886 13.2702 121.872 13.2436 121.846C13.217 121.819 13.2037 121.768 13.2037 121.699V115.85C13.2037 115.733 13.2595 115.674 13.3685 115.674H14.3043C14.3973 115.674 14.4451 115.73 14.4451 115.839V121.665L14.4425 121.662Z" fill="white"/>
<path d="M16.2188 121.883V115.669H19.0046C19.7702 115.669 20.3471 115.81 20.7378 116.09C21.1286 116.372 21.3227 116.774 21.3227 117.298C21.3227 117.618 21.2562 117.889 21.1233 118.108C20.9904 118.326 20.7485 118.502 20.3976 118.635C20.3657 118.643 20.3497 118.661 20.3497 118.688C20.3497 118.715 20.3657 118.733 20.3976 118.741C20.7485 118.834 21.0223 119.01 21.2163 119.263C21.4104 119.516 21.5088 119.82 21.5088 120.171C21.5088 120.741 21.3067 121.169 20.9053 121.454C20.5039 121.739 19.9191 121.883 19.1562 121.883H16.2188ZM18.8983 118.401C19.1562 118.401 19.3848 118.371 19.5842 118.313C19.7835 118.254 19.9377 118.153 20.0467 118.006C20.1557 117.863 20.2115 117.668 20.2115 117.426C20.2115 117.115 20.1052 116.886 19.8952 116.747C19.6852 116.609 19.3688 116.537 18.9462 116.537H17.4017V118.401H18.901H18.8983ZM19.0631 121.063C19.531 121.063 19.8659 120.986 20.0706 120.834C20.2726 120.682 20.3763 120.44 20.3763 120.112C20.3763 119.785 20.2594 119.521 20.0254 119.367C19.7915 119.215 19.4353 119.138 18.9594 119.138H17.4017V121.06H19.0631V121.063Z" fill="white"/>
<path d="M23.9973 120.166C24.1647 120.451 24.3907 120.677 24.6751 120.845C24.9596 121.012 25.2786 121.097 25.6295 121.097C25.9804 121.097 26.3073 121.023 26.5891 120.874C26.8709 120.725 27.1287 120.496 27.3627 120.182C27.3866 120.15 27.4105 120.134 27.4318 120.128C27.4557 120.126 27.4903 120.134 27.5381 120.158L28.1362 120.44C28.2213 120.48 28.2293 120.541 28.1602 120.629C27.9422 120.948 27.7029 121.212 27.4398 121.414C27.1792 121.617 26.8868 121.766 26.5678 121.859C26.2488 121.952 25.8926 122 25.5019 122C24.9091 122 24.3854 121.867 23.9335 121.601C23.4816 121.334 23.1227 120.964 22.8622 120.488C22.6017 120.011 22.4688 119.463 22.4688 118.845C22.4688 118.166 22.6017 117.58 22.8675 117.093C23.1333 116.606 23.4949 116.225 23.9494 115.956C24.404 115.688 24.9144 115.552 25.4779 115.552C26.0415 115.552 26.5599 115.68 26.9932 115.932C27.4265 116.185 27.7641 116.553 28.006 117.029C28.2479 117.506 28.3675 118.084 28.3675 118.765C28.3675 118.834 28.3595 118.896 28.3436 118.946C28.3276 118.997 28.2771 119.023 28.1921 119.023H23.8617C23.8218 119.023 23.7926 119.042 23.774 119.077C23.7554 119.111 23.7447 119.157 23.7447 119.213C23.7447 119.564 23.8271 119.883 23.9973 120.168V120.166ZM26.94 118.283C27.0251 118.283 27.0809 118.273 27.1048 118.249C27.1287 118.225 27.1394 118.182 27.1394 118.121C27.1394 117.823 27.0756 117.543 26.9453 117.277C26.8177 117.011 26.6343 116.798 26.395 116.633C26.1558 116.468 25.8634 116.388 25.5125 116.388C25.1616 116.388 24.832 116.476 24.5715 116.651C24.3109 116.827 24.1116 117.059 23.9733 117.349C23.8378 117.639 23.7687 117.948 23.7687 118.275L26.94 118.286V118.283Z" fill="white"/>
<path d="M33.4096 115.77C33.7339 115.913 34.0077 116.105 34.2283 116.345C34.4516 116.584 34.6271 116.84 34.76 117.111C34.8078 117.221 34.7786 117.287 34.6776 117.311L33.8455 117.452C33.7764 117.468 33.7233 117.436 33.694 117.359C33.5611 117.157 33.4282 116.989 33.2953 116.856C33.1624 116.723 33.0188 116.619 32.862 116.539C32.7051 116.462 32.527 116.422 32.3223 116.422C31.9635 116.422 31.6498 116.515 31.3813 116.699C31.1128 116.882 30.9055 117.149 30.7619 117.503C30.6184 117.854 30.5466 118.28 30.5466 118.781C30.5466 119.281 30.621 119.71 30.7699 120.064C30.9188 120.421 31.1288 120.69 31.4026 120.873C31.6764 121.057 32.0007 121.148 32.3728 121.148C32.745 121.148 33.0481 121.054 33.2979 120.865C33.5478 120.679 33.7791 120.413 33.9891 120.069C34.013 120.037 34.0343 120.019 34.0529 120.011C34.0715 120.003 34.1061 120.008 34.1512 120.021L34.7706 120.208C34.8318 120.232 34.8477 120.29 34.8185 120.384C34.7254 120.578 34.6032 120.775 34.449 120.969C34.2975 121.164 34.1167 121.339 33.9093 121.491C33.702 121.643 33.4627 121.765 33.1889 121.861C32.9151 121.954 32.6068 122.002 32.2639 122.002C31.679 122.002 31.1607 121.866 30.7141 121.598C30.2648 121.329 29.9139 120.953 29.6614 120.471C29.4088 119.989 29.2812 119.433 29.2812 118.802C29.2812 118.171 29.4088 117.599 29.6667 117.114C29.9246 116.63 30.2781 116.249 30.7247 115.972C31.174 115.695 31.687 115.557 32.2639 115.557C32.6998 115.557 33.08 115.629 33.4043 115.775L33.4096 115.77Z" fill="white"/>
<path d="M35.9922 121.883V115.669H37.2336V118.19H38.7914L39.214 118.459C39.6128 118.467 39.9185 118.552 40.1338 118.717C40.3491 118.882 40.4953 119.127 40.5724 119.455L40.8781 120.674C40.926 120.831 40.9818 120.938 41.0483 120.996C41.1147 121.055 41.2024 121.084 41.3114 121.084C41.3965 121.084 41.439 121.119 41.439 121.191V121.766C41.439 121.814 41.4311 121.843 41.4151 121.859C41.3992 121.875 41.3726 121.883 41.3327 121.883H40.91C40.6123 121.883 40.3651 121.819 40.1657 121.689C39.9663 121.558 39.8254 121.316 39.7377 120.956L39.4692 119.854C39.3921 119.519 39.2911 119.306 39.1715 119.215C39.0492 119.125 38.8738 119.079 38.6398 119.079H37.2363V121.88H35.9948L35.9922 121.883ZM38.5335 118.683V118.19C38.6585 118.19 38.7462 118.169 38.7967 118.126C38.8472 118.084 38.9004 118.014 38.9535 117.921L40.1817 115.834C40.2136 115.786 40.2455 115.749 40.28 115.717C40.3146 115.685 40.3677 115.669 40.4369 115.669H41.2795C41.3354 115.669 41.3699 115.685 41.3859 115.717C41.4018 115.749 41.3938 115.791 41.3619 115.845L39.8281 118.342C39.7962 118.398 39.7829 118.443 39.7882 118.483C39.7909 118.523 39.8254 118.558 39.8866 118.59L38.5282 118.683H38.5335Z" fill="white"/>
<path d="M43.928 115.834V121.66C43.928 121.745 43.9093 121.803 43.8748 121.835C43.8402 121.867 43.7791 121.883 43.694 121.883H42.9444C42.8593 121.883 42.8008 121.87 42.7743 121.843C42.7477 121.817 42.7344 121.766 42.7344 121.697V115.848C42.7344 115.73 42.7902 115.672 42.8992 115.672H43.7897C43.8828 115.672 43.9306 115.728 43.9306 115.837L43.928 115.834ZM46.9956 115.728L47.7213 116.196L43.8934 121.825L43.1677 121.356L46.9956 115.73V115.728ZM48.1546 115.834V121.66C48.1546 121.745 48.136 121.803 48.1015 121.835C48.0669 121.867 48.0058 121.883 47.9207 121.883H47.1711C47.086 121.883 47.0302 121.87 47.0063 121.843C46.9823 121.817 46.9717 121.766 46.9717 121.697V115.848C46.9717 115.73 47.0222 115.672 47.1232 115.672H48.0137C48.1068 115.672 48.1546 115.728 48.1546 115.837V115.834Z" fill="white"/>
<path d="M130.231 67.4023C132.648 67.4023 134.548 68.1824 135.931 69.7452C137.313 71.308 138.007 73.5657 138.007 76.5183C138.007 79.1726 137.685 81.5182 137.034 83.5549C136.388 85.5916 135.532 87.3754 134.471 88.9116C133.411 90.4451 132.233 91.699 130.936 92.6735C129.638 93.6479 128.344 94.3987 127.047 94.9285L124.838 89.263C126.074 88.7917 127.283 88.0995 128.461 87.1837C129.641 86.2678 130.582 84.8062 131.289 82.8014C130.997 82.9186 130.731 82.9798 130.494 82.9798C130.261 82.9798 129.995 82.9798 129.7 82.9798C127.461 82.9798 125.694 82.229 124.396 80.7248C123.102 79.2179 122.453 77.3755 122.453 75.1924C122.453 73.0678 123.131 71.2388 124.487 69.7053C125.842 68.1718 127.756 67.405 130.231 67.405V67.4023Z" fill="white"/>
<path d="M83.0152 14.2036C78.4429 18.892 73.8707 23.5831 69.3276 28.2396C67.3047 26.2402 65.5475 24.507 63.4688 22.4569C68.1686 17.8803 72.8977 13.2771 77.6295 8.67124C77.571 8.52214 77.5125 8.37305 77.4567 8.22396H63.6229C63.6229 5.86511 63.6601 3.77249 63.6096 1.68254C63.5777 0.338049 64.4736 0.45253 65.3296 0.45253C73.3789 0.447206 81.4308 0.447206 89.4802 0.444543C89.5945 0.444543 89.7088 0.46318 89.8204 0.45253C90.8784 0.359348 91.317 0.75604 91.3117 1.90352C91.2692 10.1941 91.2772 18.482 91.3011 26.7726C91.3037 27.747 91.0592 28.2529 89.9852 28.2236C88.2866 28.1757 86.5826 28.1837 84.884 28.2289C83.8339 28.2556 83.5309 27.795 83.5442 26.7886C83.5894 23.269 83.5655 19.7493 83.5655 16.2297C83.5655 15.628 83.5655 15.0263 83.5655 14.4246C83.382 14.3501 83.1986 14.2782 83.0178 14.2036H83.0152Z" fill="white"/>
</g>
<defs>
<clipPath id="clip0_2_451">
<rect width="138" height="122" fill="white"/>
</clipPath>
</defs>
</svg>
