<svg width="30" height="30" viewBox="0 0 30 30" fill="none" xmlns="http://www.w3.org/2000/svg">
<path d="M14.6043 0C22.6701 0 29.2087 6.53858 29.2087 14.6043C29.2087 22.6701 22.6701 29.2087 14.6043 29.2087C6.53858 29.2087 0 22.6701 0 14.6043C0 6.53858 6.53858 0 14.6043 0ZM21.3361 18.3151C24.2175 13.1058 20.3221 6.60139 14.3371 6.91361C9.74885 7.15333 6.72005 10.7508 6.91138 15.2873C6.99502 17.2729 7.79341 18.9815 7.98258 20.8659C8.03096 21.3541 7.89022 21.9566 8.45328 22.1699C9.14613 22.4316 10.2085 21.9918 10.7892 21.5894C10.9872 21.4552 11.1763 21.2991 11.3215 21.1056C11.922 21.5036 12.4917 21.8884 13.2065 22.0599C16.3541 22.8141 19.803 21.088 21.3361 18.3151ZM14.1677 10.6892C15.8833 10.5375 17.4758 11.4083 18.1951 12.9805C19.7876 16.479 15.7118 19.9335 12.5554 17.7874V17.7852C12.3069 17.9787 12.0671 18.2426 11.7922 18.3943C11.3941 18.6076 11.2709 18.3855 11.1213 18.0337C10.6506 16.9144 10.5934 15.0079 10.8684 13.8359C11.2379 12.2417 12.4719 10.8388 14.1677 10.6892Z" fill="white"/>
</svg>
