<svg width="8" height="14" viewBox="0 0 8 14" fill="none" xmlns="http://www.w3.org/2000/svg">
<path d="M4.18201 13C4.18201 13.2761 3.95815 13.5 3.68201 13.5C3.40586 13.5 3.18201 13.2761 3.18201 13H3.68201H4.18201ZM3.32845 0.146447C3.52372 -0.0488155 3.8403 -0.0488155 4.03556 0.146447L7.21754 3.32843C7.4128 3.52369 7.4128 3.84027 7.21754 4.03553C7.02228 4.2308 6.7057 4.2308 6.51043 4.03553L3.68201 1.20711L0.85358 4.03553C0.658318 4.2308 0.341735 4.2308 0.146473 4.03553C-0.0487893 3.84027 -0.0487893 3.52369 0.146473 3.32843L3.32845 0.146447ZM3.68201 13H3.18201V0.5H3.68201H4.18201V13H3.68201Z" fill="white" fill-opacity="0.8"/>
</svg>
