<svg width="172" height="60" viewBox="0 0 172 60" fill="none" xmlns="http://www.w3.org/2000/svg">
<path fill-rule="evenodd" clip-rule="evenodd" d="M4.9708 1.40042C7.62808 0.466809 10.8772 0 14.7151 0C17.0443 0 19.2494 0.234379 21.3344 0.701185C23.4165 1.16799 25.271 1.85844 26.895 2.77154C28.5191 3.68465 29.691 4.91807 30.4137 6.47084C31.1363 8.0236 31.2506 9.78438 30.7584 11.7532C30.2984 13.5393 29.3961 15.1224 28.0513 16.5033C26.7066 17.8832 25.0649 18.9799 23.1303 19.7904C21.1938 20.6039 19.0941 21.2123 16.8304 21.6176C14.5677 22.0239 12.1721 22.227 9.64667 22.227C6.13488 22.227 2.91998 21.7602 0 20.8266L1.32913 15.7113C3.52644 16.7044 6.16809 17.2015 9.25116 17.2015C15.4192 17.2015 19.3724 15.9232 21.1117 13.3665H6.83998L8.02066 8.64666H22.2924C21.8002 6.27161 18.8158 5.06456 13.3372 5.02256C9.52948 4.98155 6.28235 5.57043 3.59187 6.7892L4.9708 1.39944V1.40042ZM34.696 0.456062H63.2385L61.9602 5.48058H52.2647L48.082 21.769H38.9773L43.16 5.48058H33.4167L34.696 0.456062ZM69.6381 0.456062H94.4413L88.9783 21.769H79.8736L84.0573 5.48058H76.8716C76.4448 6.7394 76.1255 7.65738 75.9126 8.23552C75.6987 8.81464 75.3628 9.68184 74.9028 10.8391C74.4428 11.9963 74.0493 12.8645 73.7221 13.4427C73.394 14.0208 72.9506 14.7776 72.394 15.7113C71.8344 16.6439 71.3022 17.3548 70.7934 17.8412C70.2855 18.3295 69.6537 18.8871 68.8998 19.515C68.1439 20.1449 67.3656 20.6117 66.5618 20.9164C65.7571 21.2211 64.847 21.4848 63.8294 21.7084C62.8137 21.9321 61.7297 22.0434 60.5822 22.0434C58.6457 22.0434 57.006 21.851 55.6603 21.4653L56.8908 16.6849C57.5138 16.848 58.3185 16.8988 59.3019 16.8373C59.9572 16.7972 60.5979 16.6449 61.2209 16.3812C61.844 16.1165 62.4104 15.7308 62.9192 15.223C63.427 14.7161 63.9036 14.1985 64.346 13.6702C64.7884 13.1438 65.2073 12.468 65.6009 11.6457C65.9954 10.8244 66.3392 10.093 66.6341 9.45429C66.93 8.81463 67.2415 8.01383 67.5687 7.04799C67.8968 6.08508 68.1507 5.31358 68.3324 4.73447C68.5121 4.15633 68.7504 3.39069 69.0453 2.4356C69.3412 1.48245 69.5375 0.823257 69.6371 0.456062H69.6381ZM105.76 11.2952C105.333 12.9798 105.742 14.3606 106.99 15.4368C108.236 16.5121 110.253 17.0502 113.043 17.0502C116.062 17.0502 118.546 16.4925 120.499 15.3753C122.452 14.2601 123.657 12.7786 124.117 10.9299C124.541 9.24628 124.132 7.86637 122.886 6.7892C121.638 5.71399 119.621 5.17491 116.833 5.17491C113.814 5.17491 111.337 5.73352 109.403 6.84975C107.466 7.96696 106.253 9.44942 105.761 11.2952H105.76ZM133.318 11.4475C132.532 14.4935 130.284 17.0502 126.577 19.1205C122.869 21.1918 118.177 22.227 112.501 22.227C106.727 22.227 102.421 21.1205 99.582 18.9076C96.7441 16.6957 95.7362 13.9866 96.5556 10.7776C97.3437 7.73356 99.5898 5.17589 103.299 3.10553C107.006 1.03518 111.697 0 117.372 0C121.113 0 124.303 0.532236 126.945 1.59769C129.585 2.66314 131.439 4.05965 132.505 5.7843C133.571 7.50992 133.843 9.39668 133.317 11.4465L133.318 11.4475ZM162.796 0.456062H171.901L166.438 21.769H157.335L159.402 13.6409H146.606L144.54 21.769H135.436L140.897 0.456062H150.002L147.935 8.61639H160.731L162.797 0.456062H162.796ZM39.5437 36.8025H49.5342L36.0993 47.6719L44.3671 58.1154H34.6725L28.4224 49.8946H23.8462L21.7289 58.1154H12.6243L18.0873 36.8025H27.1919L25.1255 44.872H29.7017L39.5437 36.8025ZM55.8819 47.6416C55.4552 49.3262 55.8653 50.7061 57.1124 51.7833C58.3585 52.8585 60.3771 53.3956 63.1663 53.3956C66.1829 53.3956 68.6693 52.838 70.6215 51.7218C72.5727 50.6065 73.7788 49.125 74.2397 47.2764C74.6645 45.5927 74.2553 44.2128 73.0082 43.1356C71.7621 42.0604 69.7435 41.5214 66.9554 41.5214C63.9368 41.5214 61.4602 42.0809 59.5236 43.1962C57.588 44.3124 56.3741 45.7959 55.8819 47.6416ZM83.4411 47.7939C82.6539 50.8389 80.4068 53.3956 76.6987 55.466C72.9916 57.5383 68.3001 58.5735 62.6243 58.5735C56.8497 58.5735 52.544 57.467 49.706 55.2541C46.8681 53.0421 45.8583 50.3331 46.6796 47.124C47.4667 44.08 49.7139 41.5223 53.421 39.452C57.1281 37.3816 61.8196 36.3465 67.4964 36.3465C71.2367 36.3465 74.4262 36.8787 77.0679 37.9441C79.7095 39.0096 81.5621 40.4061 82.6295 42.1317C83.695 43.8564 83.9655 45.7441 83.4411 47.7939ZM112.428 42.7714L110.017 52.087C115.068 51.7218 117.939 50.169 118.629 47.4287C118.923 46.3135 118.619 45.3076 117.718 44.415C116.816 43.5214 115.052 42.9745 112.428 42.7714ZM94.8583 47.4902C94.5643 48.6065 94.9003 49.6202 95.8681 50.5342C96.8349 51.4473 98.6806 51.9864 101.404 52.1485L103.766 42.8319C98.5165 43.1366 95.5477 44.6894 94.8573 47.4912L94.8583 47.4902ZM108.146 59.3333H99.5332L100.37 56.715C95.6776 56.4513 91.9227 55.4709 89.1004 53.7775C86.279 52.0831 85.2126 49.8643 85.902 47.124C86.6228 44.4052 88.6404 42.2587 91.9549 40.6844C95.2684 39.1121 99.5986 38.285 104.946 38.2039L105.637 35.5857H114.247L113.559 38.2039C118.153 38.4881 121.81 39.4774 124.535 41.1727C127.257 42.8671 128.274 45.0751 127.585 47.7939C126.897 50.4942 124.92 52.6261 121.656 54.1876C118.39 55.7511 114.116 56.5939 108.835 56.715L108.146 59.3333ZM134.475 36.8025H159.278L158.048 41.6747H142.3L141.464 44.9326H155.734L154.506 49.7735H140.234L139.347 53.2452H155.342L154.111 58.1154H129.012L134.475 36.8025Z" fill="#4B4B4B"/>
</svg>
