<svg width="1028" height="564" viewBox="0 0 1028 564" fill="none" xmlns="http://www.w3.org/2000/svg">
<path d="M514 0.5C655.869 0.5 784.283 32.05 877.212 83.0342C970.159 134.028 1027.5 204.395 1027.5 282C1027.5 359.605 970.159 429.972 877.212 480.966C784.283 531.95 655.869 563.5 514 563.5C372.131 563.5 243.717 531.95 150.788 480.966C57.841 429.972 0.5 359.605 0.5 282C0.5 204.395 57.841 134.028 150.788 83.0342C243.717 32.05 372.131 0.5 514 0.5Z" stroke="#0E0E0E" stroke-opacity="0.1"/>
<path d="M514 26.5C642.615 26.5 759.029 55.1398 843.271 101.419C927.532 147.708 979.5 211.575 979.5 282C979.5 352.425 927.532 416.292 843.271 462.581C759.029 508.86 642.615 537.5 514 537.5C385.385 537.5 268.971 508.86 184.729 462.581C100.468 416.292 48.5 352.425 48.5 282C48.5 211.575 100.468 147.708 184.729 101.419C268.971 55.1398 385.385 26.5 514 26.5Z" stroke="#0E0E0E" stroke-opacity="0.18"/>
<path d="M514 51.5C629.912 51.5 734.826 77.3417 810.744 119.097C886.68 160.861 933.5 218.478 933.5 282C933.5 345.522 886.68 403.139 810.744 444.903C734.826 486.658 629.912 512.5 514 512.5C398.088 512.5 293.174 486.658 217.256 444.903C141.32 403.139 94.5 345.522 94.5 282C94.5 218.478 141.32 160.861 217.256 119.097C293.174 77.3417 398.088 51.5 514 51.5Z" stroke="#0E0E0E" stroke-opacity="0.26"/>
</svg>
