<svg width="82" height="56" viewBox="0 0 82 56" fill="none" xmlns="http://www.w3.org/2000/svg">
<path d="M9.51661 7.13002C9.89138 7.08134 10.3242 7.05778 10.8134 7.05778C11.3026 7.05778 11.8044 7.10333 12.3172 7.19127C12.8315 7.28079 13.3333 7.42527 13.821 7.62001C14.3102 7.81632 14.7414 8.07702 15.1177 8.40367C15.4925 8.73033 15.7983 9.13865 16.0351 9.62864C16.2703 10.1186 16.3895 10.6997 16.3895 11.3671C16.3895 13.0177 15.7199 14.3118 14.3839 15.2493C13.0463 16.1885 10.9436 16.6581 8.07242 16.6581C6.50748 16.6581 5.03977 16.5277 3.66928 16.2654C2.30036 16.0047 1.07726 15.5634 0 14.9431L1.73742 9.47944C2.17805 9.7904 2.6422 10.0511 3.13143 10.2631C3.55481 10.4594 4.04405 10.64 4.59915 10.8018C5.15424 10.9651 5.7407 11.0468 6.36009 11.0468C6.65331 11.0468 6.94341 11.0185 7.2288 10.962C7.51418 10.9054 7.76664 10.8143 7.98617 10.6918C8.2057 10.5693 8.38133 10.4139 8.51148 10.2254C8.64163 10.0385 8.70592 9.8061 8.70592 9.52813C8.69024 9.08683 8.42523 8.7162 7.91091 8.4131C7.39658 8.11157 6.79758 7.96865 6.1139 7.98436H3.12987L3.10634 6.49084L6.21269 6.5144C6.71761 6.5144 7.13314 6.4296 7.46087 6.25684C7.78703 6.08566 7.95011 5.86109 7.95011 5.58311C7.95011 5.32242 7.84034 5.13396 7.61925 5.01932C7.39972 4.90467 7.12217 4.84342 6.78817 4.83714C6.45417 4.82929 6.0794 4.86541 5.66386 4.94708C5.24833 5.02874 4.84376 5.12611 4.45331 5.24075C4.0613 5.3554 3.70691 5.48103 3.39016 5.62081C3.07185 5.76058 2.83193 5.88778 2.66885 6.00086L1.02865 1.52032C1.95852 0.981645 3.04205 0.59374 4.2824 0.356599C5.52117 0.119459 6.8258 0.000102997 8.19629 0.000102997C10.528 0.000102997 12.2733 0.323619 13.4305 0.967511C14.5877 1.61297 15.1836 2.48301 15.2165 3.57606C15.2495 4.57173 14.8041 5.36953 13.8837 5.96474C12.9632 6.55995 11.5159 6.84263 9.54326 6.80965L9.51818 7.12845L9.51661 7.13002Z" fill="#0D0E0E"/>
<path d="M7.31347 36.1523H0V19.9844H8.63379L10.5656 30.7641H10.9326L12.8895 19.9844H21.4982V36.1523H14.1847V27.7252H13.8178L11.9095 36.1523H9.5856L7.67726 27.7252H7.31034V36.1523H7.31347Z" fill="#0D0E0E"/>
<path d="M35.6098 29.9045H40.4285V36.1519H35.6098V31.8158H35.2429C35.2429 32.6811 35.0908 33.4083 34.7897 33.9956C34.4871 34.5845 34.0841 35.062 33.5792 35.4294C33.0743 35.7969 32.4815 36.0623 31.8057 36.2257C31.1283 36.389 30.4242 36.4707 29.6904 36.4707C28.7119 36.4707 27.7977 36.3026 26.951 35.9681C26.1026 35.6336 25.3641 35.1311 24.7369 34.462C24.1081 33.7914 23.6157 32.956 23.2566 31.9509C22.8975 30.9473 22.7188 29.7758 22.7188 28.4362C22.7188 27.0965 22.9179 25.8936 23.3178 24.8225C23.716 23.753 24.3041 22.8422 25.0787 22.0915C25.8533 21.3408 26.8192 20.7613 27.9765 20.353C29.1337 19.9446 30.4713 19.7405 31.9876 19.7405C33.2107 19.7405 34.324 19.8394 35.326 20.0357C36.328 20.2305 37.181 20.5241 37.882 20.9168C38.5829 21.3094 39.1255 21.7947 39.5081 22.3742C39.8907 22.9537 40.0835 23.6195 40.0835 24.3702C40.0835 25.3502 39.8546 26.1354 39.3983 26.7228C38.942 27.3117 38.3634 27.764 37.6624 28.0828C36.9615 28.4016 36.1869 28.6105 35.3386 28.7078C34.4902 28.8068 33.6748 28.8555 32.8924 28.8555H30.4211C30.5026 29.7224 30.73 30.4118 31.1063 30.9269C31.4827 31.442 32.0362 31.698 32.7701 31.698C33.275 31.698 33.7078 31.6085 34.0669 31.4279C34.4244 31.2489 34.7192 31.0447 34.9465 30.8154C35.2241 30.5547 35.4436 30.261 35.6067 29.9344V29.9093L35.6098 29.9045ZM32.6023 24.4425C31.9014 24.4425 31.3823 24.6984 31.0483 25.2136C30.7143 25.7287 30.5058 26.4103 30.4242 27.2583H32.0378C32.6258 27.2583 33.1229 27.1484 33.5306 26.9269C33.9383 26.7071 34.1421 26.3443 34.1421 25.837C34.1421 25.413 34.0277 25.0738 33.8003 24.8194C33.5714 24.5665 33.1715 24.4393 32.6023 24.4393V24.4425Z" fill="#0D0E0E"/>
<path d="M51.9282 36.1522V27.1613L51.9047 27.1361H51.5629C51.5629 28.6548 51.1348 29.8232 50.2786 30.6399C49.4225 31.4565 48.1962 31.8648 46.5984 31.8648C42.7989 31.8648 40.8984 29.5123 40.8984 24.8103V19.9842H48.5537V23.9041C48.5537 24.9171 48.6431 25.6269 48.8235 26.0352C49.0022 26.4436 49.2798 26.6477 49.6545 26.6477C49.9321 26.6477 50.1642 26.5488 50.3523 26.3525C50.5389 26.1577 50.6832 25.9363 50.7804 25.6913C50.8949 25.3976 50.9764 25.071 51.025 24.7113V19.9827H58.315V36.1506H51.9298L51.9282 36.1522Z" fill="#0D0E0E"/>
<path d="M78.049 36.1522H71.0774L70.5144 31.7172H70.1475C70.1961 32.4522 70.1067 33.1102 69.8778 33.6897C69.6489 34.2692 69.3023 34.7592 68.8382 35.1597C68.374 35.5602 67.8017 35.8648 67.1258 36.0784C66.4484 36.2904 65.6958 36.3972 64.8631 36.3972C62.9563 36.3972 61.4965 35.9355 60.4851 35.0136C59.4737 34.0918 58.9688 32.837 58.9688 31.2539C58.9688 30.3227 59.1193 29.4856 59.4219 28.7428C59.723 27.9999 60.1887 27.367 60.8159 26.8441C61.4432 26.3227 62.2303 25.9222 63.1759 25.6442C64.1214 25.3663 65.2395 25.2281 66.5268 25.2281V24.8606H61.1703V19.9858H74.2323L78.0474 36.1538L78.049 36.1522ZM68.1184 31.5225C68.4117 31.5225 68.6516 31.444 68.8397 31.2885C69.0263 31.1346 69.1737 30.9571 69.2804 30.7624C69.387 30.5661 69.4544 30.387 69.4889 30.2237C69.5219 30.0604 69.5375 29.9709 69.5375 29.9536L68.8774 24.9312C68.501 25.0286 68.1717 25.2045 67.8864 25.4573C67.601 25.7102 67.3642 26.0133 67.1776 26.3635C66.9894 26.7153 66.8514 27.1032 66.762 27.5272C66.6727 27.9528 66.6288 28.3847 66.6288 28.826C66.6288 29.7903 66.784 30.4797 67.0929 30.8959C67.4034 31.3136 67.7452 31.5209 68.12 31.5209L68.1184 31.5225Z" fill="#0D0E0E"/>
<path d="M36.2365 16.4166H29.2649L28.7019 11.9816H28.335C28.3836 12.7166 28.2942 13.3746 28.0653 13.9541C27.8364 14.5336 27.4898 15.0236 27.0257 15.4241C26.5615 15.8245 25.9892 16.1292 25.3133 16.3428C24.6359 16.5548 23.8833 16.6616 23.0506 16.6616C21.1438 16.6616 19.684 16.1999 18.6726 15.278C17.6612 14.3562 17.1562 13.1013 17.1562 11.5183C17.1562 10.587 17.3068 9.74997 17.6094 9.00714C17.9105 8.26431 18.3762 7.63141 19.0034 7.10844C19.6307 6.58705 20.4178 6.18658 21.3634 5.90861C22.3089 5.63063 23.427 5.49243 24.7143 5.49243V5.12494H19.3578V0.24707H32.4198L36.2349 16.415L36.2365 16.4166ZM26.3059 11.7869C26.5992 11.7869 26.8391 11.7083 27.0272 11.5529C27.2138 11.399 27.3612 11.2215 27.4679 11.0268C27.5745 10.8305 27.6419 10.6514 27.6764 10.4881C27.7094 10.3248 27.725 10.2352 27.725 10.218L27.0649 5.19561C26.6885 5.29298 26.3592 5.46887 26.0739 5.72172C25.7885 5.97457 25.5517 6.27767 25.3651 6.62788C25.1769 6.97966 25.0389 7.36757 24.9496 7.7916C24.8602 8.21719 24.8163 8.64907 24.8163 9.09037C24.8163 10.0546 24.9715 10.7441 25.2804 11.1603C25.5909 11.578 25.9327 11.7853 26.3075 11.7853L26.3059 11.7869Z" fill="#0D0E0E"/>
<path d="M0 39.8303H15.6305V44.7051H11.472V55.9983H4.15852V44.7051H0V39.8303Z" fill="#0D0E0E"/>
<path d="M28.6427 49.4338H33.4613V55.6796H28.6427V51.3435H28.2757C28.2757 52.2104 28.1236 52.9359 27.8226 53.5249C27.5199 54.1122 27.1169 54.5897 26.612 54.9571C26.1055 55.3246 25.5144 55.59 24.8385 55.7534C24.1611 55.9167 23.4571 55.9984 22.7216 55.9984C21.7432 55.9984 20.8305 55.8303 19.9822 55.4958C19.1339 55.1613 18.3953 54.6588 17.7681 53.9897C17.1409 53.3207 16.6469 52.4837 16.2878 51.4786C15.9288 50.4735 15.75 49.3019 15.75 47.9638C15.75 46.6258 15.9491 45.4197 16.349 44.3502C16.7489 43.2807 17.3353 42.3698 18.1099 41.6192C18.8846 40.8685 19.8505 40.2874 21.0077 39.8791C22.165 39.4708 23.5025 39.2666 25.0204 39.2666C26.2435 39.2666 27.3568 39.3655 28.3588 39.5603C29.3608 39.7566 30.2139 40.0503 30.9148 40.4429C31.6157 40.8355 32.1583 41.3208 32.5409 41.9003C32.9235 42.4798 33.1164 43.1457 33.1164 43.8979C33.1164 44.8779 32.8874 45.6615 32.4311 46.2505C31.9748 46.8378 31.3946 47.2917 30.6953 47.6105C29.9943 47.9293 29.2197 48.1366 28.3714 48.2355C27.5231 48.3345 26.7077 48.3832 25.9252 48.3832H23.4555C23.537 49.2485 23.7644 49.9379 24.1407 50.453C24.5155 50.9682 25.0706 51.2241 25.8045 51.2241C26.3094 51.2241 26.7406 51.1346 27.1012 50.954C27.4588 50.775 27.7536 50.5708 27.9809 50.3415C28.2585 50.0808 28.478 49.7856 28.6411 49.4589V49.4354L28.6427 49.4338ZM25.6351 43.9702C24.9342 43.9702 24.4167 44.2277 24.0811 44.7428C23.7472 45.2579 23.5386 45.9395 23.4571 46.7876H25.0706C25.6571 46.7876 26.1557 46.6776 26.5634 46.4562C26.9711 46.2348 27.1749 45.872 27.1749 45.3663C27.1749 44.9423 27.0605 44.6031 26.8331 44.3502C26.6042 44.0974 26.2043 43.9702 25.6351 43.9702Z" fill="#0D0E0E"/>
<path d="M43.6659 46.5913H43.299L42.1496 55.9984H33.9062L35.5449 49.1386C35.675 48.5842 35.8538 48.0565 36.0827 47.5587C36.3101 47.0593 36.6739 46.6243 37.171 46.2474C37.668 45.872 38.3329 45.5736 39.164 45.3538C39.9951 45.1323 41.0723 45.0224 42.3926 45.0224V44.6549H35.3724V39.8289H49.2169L52.7638 55.9968H44.7902L43.6643 46.5897L43.6659 46.5913Z" fill="#0D0E0E"/>
<path d="M64.1095 55.7786V51.2949L64.0844 51.2713H63.7426C63.7426 52.79 63.3145 53.9584 62.4583 54.775C61.6021 55.5917 60.3759 56 58.7765 56C54.9771 56 53.0781 53.6474 53.0781 48.9439V39.6106H60.7334V48.0377C60.7334 49.0507 60.8228 49.7605 61.0031 50.1688C61.1819 50.5772 61.4595 50.7813 61.8342 50.7813C62.1118 50.7813 62.3438 50.684 62.532 50.4877C62.7186 50.2929 62.8629 50.0715 62.9601 49.8265C63.0746 49.5328 63.1545 49.2061 63.2047 48.8465V39.6106H70.4947V55.7786H64.1111H64.1095Z" fill="#0D0E0E"/>
<path d="M76.8225 39.7615C78.2479 39.7615 79.3691 40.2216 80.1845 41.1435C80.9999 42.0654 81.4091 43.3971 81.4091 45.1388C81.4091 46.7045 81.2194 48.0881 80.8352 49.2895C80.4542 50.4909 79.9493 51.5431 79.3236 52.4493C78.698 53.3539 78.0033 54.0936 77.2381 54.6684C76.4729 55.2431 75.7092 55.686 74.944 55.9985L73.6409 52.6566C74.3701 52.3786 75.0836 51.9703 75.7782 51.43C76.4744 50.8898 77.0295 50.0276 77.4466 48.8451C77.2741 48.9142 77.1173 48.9503 76.9778 48.9503C76.8398 48.9503 76.683 48.9503 76.5089 48.9503C75.1886 48.9503 74.1459 48.5074 73.3806 47.6201C72.617 46.7312 72.2344 45.6444 72.2344 44.3567C72.2344 43.1034 72.6342 42.0245 73.4339 41.1199C74.2337 40.2153 75.3627 39.763 76.8225 39.763V39.7615Z" fill="#0D0E0E"/>
<path d="M48.9675 8.38017C46.2704 11.1458 43.5734 13.9129 40.8935 16.6597C39.7002 15.4803 38.6637 14.4579 37.4375 13.2486C40.2098 10.549 42.9994 7.83364 45.7906 5.11673C45.7561 5.02879 45.7216 4.94084 45.6887 4.8529H37.5284C37.5284 3.46146 37.5504 2.22707 37.5206 0.994256C37.5018 0.20117 38.0302 0.2687 38.5351 0.2687C43.2833 0.265559 48.0329 0.265559 52.7811 0.263989C52.8485 0.263989 52.9159 0.274982 52.9818 0.2687C53.6059 0.213734 53.8646 0.447734 53.8615 1.12461C53.8364 6.01504 53.8411 10.9039 53.8552 15.7943C53.8567 16.3691 53.7125 16.6675 53.079 16.6502C52.077 16.622 51.0719 16.6267 50.0699 16.6534C49.4505 16.6691 49.2717 16.3974 49.2796 15.8038C49.3062 13.7276 49.2921 11.6515 49.2921 9.57529C49.2921 9.22037 49.2921 8.86544 49.2921 8.51051C49.1839 8.46654 49.0757 8.42414 48.9691 8.38017H48.9675Z" fill="#0D0E0E"/>
</svg>
