<svg width="50" height="50" viewBox="0 0 50 50" fill="none" xmlns="http://www.w3.org/2000/svg">
<rect width="50" height="50" rx="10" fill="#FFF0F3"/>
<path d="M32.6863 25.9598C32.6863 30.7675 29.3209 33.1713 25.3209 34.5656C25.1115 34.6365 24.8839 34.6332 24.6767 34.556C20.6671 33.1713 17.3017 30.7675 17.3017 25.9598V19.229C17.3017 18.974 17.403 18.7294 17.5833 18.5491C17.7636 18.3688 18.0082 18.2675 18.2632 18.2675C20.1863 18.2675 22.5902 17.1136 24.2632 15.6521C24.4669 15.4781 24.7261 15.3824 24.994 15.3824C25.2619 15.3824 25.5211 15.4781 25.7248 15.6521C27.4075 17.1233 29.8017 18.2675 31.7248 18.2675C31.9798 18.2675 32.2244 18.3688 32.4047 18.5491C32.585 18.7294 32.6863 18.974 32.6863 19.229V25.9598Z" stroke="#E94666" stroke-width="2.5" stroke-linecap="round" stroke-linejoin="round"/>
<path d="M22.1094 24.9982L24.0325 26.9213L27.8786 23.0751" stroke="#E94666" stroke-width="2.5" stroke-linecap="round" stroke-linejoin="round"/>
</svg>
