<svg width="1161" height="6" viewBox="0 0 1161 6" fill="none" xmlns="http://www.w3.org/2000/svg">
<circle cx="3" cy="3" r="3" fill="white" fill-opacity="0.1"/>
<circle cx="201" cy="3" r="3" fill="white" fill-opacity="0.1"/>
<circle cx="399" cy="3" r="3" fill="white" fill-opacity="0.1"/>
<circle cx="597" cy="3" r="3" fill="white" fill-opacity="0.1"/>
<circle cx="795" cy="3" r="3" fill="white" fill-opacity="0.1"/>
<circle cx="993" cy="3" r="3" fill="white" fill-opacity="0.1"/>
<circle cx="36" cy="3" r="3" fill="white" fill-opacity="0.1"/>
<circle cx="234" cy="3" r="3" fill="white" fill-opacity="0.1"/>
<circle cx="432" cy="3" r="3" fill="white" fill-opacity="0.1"/>
<circle cx="630" cy="3" r="3" fill="white" fill-opacity="0.1"/>
<circle cx="828" cy="3" r="3" fill="white" fill-opacity="0.1"/>
<circle cx="1026" cy="3" r="3" fill="white" fill-opacity="0.1"/>
<circle cx="69" cy="3" r="3" fill="white" fill-opacity="0.1"/>
<circle cx="267" cy="3" r="3" fill="white" fill-opacity="0.1"/>
<circle cx="465" cy="3" r="3" fill="white" fill-opacity="0.1"/>
<circle cx="663" cy="3" r="3" fill="white" fill-opacity="0.1"/>
<circle cx="861" cy="3" r="3" fill="white" fill-opacity="0.1"/>
<circle cx="1059" cy="3" r="3" fill="white" fill-opacity="0.1"/>
<circle cx="102" cy="3" r="3" fill="white" fill-opacity="0.1"/>
<circle cx="300" cy="3" r="3" fill="white" fill-opacity="0.1"/>
<circle cx="498" cy="3" r="3" fill="white" fill-opacity="0.1"/>
<circle cx="696" cy="3" r="3" fill="white" fill-opacity="0.1"/>
<circle cx="894" cy="3" r="3" fill="white" fill-opacity="0.1"/>
<circle cx="1092" cy="3" r="3" fill="white" fill-opacity="0.1"/>
<circle cx="135" cy="3" r="3" fill="white" fill-opacity="0.1"/>
<circle cx="333" cy="3" r="3" fill="white" fill-opacity="0.1"/>
<circle cx="531" cy="3" r="3" fill="white" fill-opacity="0.1"/>
<circle cx="729" cy="3" r="3" fill="white" fill-opacity="0.1"/>
<circle cx="927" cy="3" r="3" fill="white" fill-opacity="0.1"/>
<circle cx="1125" cy="3" r="3" fill="white" fill-opacity="0.1"/>
<circle cx="168" cy="3" r="3" fill="white" fill-opacity="0.1"/>
<circle cx="366" cy="3" r="3" fill="white" fill-opacity="0.1"/>
<circle cx="564" cy="3" r="3" fill="white" fill-opacity="0.1"/>
<circle cx="762" cy="3" r="3" fill="white" fill-opacity="0.1"/>
<circle cx="960" cy="3" r="3" fill="white" fill-opacity="0.1"/>
<circle cx="1158" cy="3" r="3" fill="white" fill-opacity="0.1"/>
</svg>
