<svg width="30" height="30" viewBox="0 0 30 30" fill="none" xmlns="http://www.w3.org/2000/svg">
<path d="M14.6043 30C22.6721 30 29.2087 23.2863 29.2087 15C29.2087 6.71375 22.6721 0 14.6043 0C6.53665 0 0 6.71375 0 15C0 23.2863 6.53665 30 14.6043 30ZM6.6827 14.675L20.7638 9.09875C21.4172 8.85625 21.988 9.2625 21.7762 10.2775L21.7775 10.2762L19.3799 21.8775C19.2023 22.7 18.7264 22.9 18.0607 22.5125L14.4096 19.7487L12.6485 21.4913C12.4538 21.6913 12.2895 21.86 11.9123 21.86L12.1715 18.0438L18.9381 11.765C19.2326 11.4987 18.8724 11.3488 18.4842 11.6138L10.1221 17.0212L6.51718 15.8662C5.73463 15.6112 5.71759 15.0625 6.6827 14.675Z" fill="white"/>
</svg>
