<svg width="52" height="52" viewBox="0 0 52 52" fill="none" xmlns="http://www.w3.org/2000/svg">
<circle cx="26" cy="26" r="25.5" stroke="#D0D0D0"/>
<path d="M33 28C34.49 26.54 36 24.79 36 22.5C36 21.0413 35.4205 19.6424 34.3891 18.6109C33.3576 17.5795 31.9587 17 30.5 17C28.74 17 27.5 17.5 26 19C24.5 17.5 23.26 17 21.5 17C20.0413 17 18.6424 17.5795 17.6109 18.6109C16.5795 19.6424 16 21.0413 16 22.5C16 24.8 17.5 26.55 19 28L26 35L33 28Z" stroke="#E94666" stroke-width="2" stroke-linecap="round" stroke-linejoin="round"/>
<path d="M25.9996 19L23.0396 21.96C22.8364 22.1617 22.6752 22.4016 22.5651 22.6659C22.4551 22.9302 22.3984 23.2137 22.3984 23.5C22.3984 23.7863 22.4551 24.0698 22.5651 24.3341C22.6752 24.5984 22.8364 24.8383 23.0396 25.04C23.8596 25.86 25.1696 25.89 26.0396 25.11L28.1096 23.21C28.6285 22.7392 29.304 22.4784 30.0046 22.4784C30.7052 22.4784 31.3808 22.7392 31.8996 23.21L34.8596 25.87" stroke="#E94666" stroke-width="2" stroke-linecap="round" stroke-linejoin="round"/>
<path d="M32 29L30 27" stroke="#E94666" stroke-width="2" stroke-linecap="round" stroke-linejoin="round"/>
<path d="M29 32L27 30" stroke="#E94666" stroke-width="2" stroke-linecap="round" stroke-linejoin="round"/>
</svg>
