<svg width="72" height="14" viewBox="0 0 72 14" fill="none" xmlns="http://www.w3.org/2000/svg">
<path d="M8.62426 6.54582L13.0903 8.75256L11.4731 11.2584L7.66197 8.49045L8.04655 13.091H5.00516L5.42837 8.49045L1.57807 11.2584L0 8.75256L4.46608 6.54582L0 4.37605L1.57863 1.8327L5.42894 4.60064L5.00573 9.15527e-05H8.04712L7.66254 4.60064L11.4736 1.8327L13.0909 4.37605L8.62483 6.54582H8.62426Z" fill="#E94666"/>
<path d="M23.3508 6.54587L27.8169 8.75261L26.1996 11.2584L22.3885 8.49049L22.7731 13.091H19.7317L20.1549 8.49049L16.3046 11.2584L14.7266 8.75261L19.1926 6.54587L14.7266 4.3761L16.3052 1.83274L20.1555 4.60069L19.7323 0.000137329H22.7737L22.3891 4.60069L26.2002 1.83274L27.8175 4.3761L23.3514 6.54587H23.3508Z" fill="#E94666"/>
<path d="M38.0774 6.54587L42.5435 8.75261L40.9262 11.2584L37.1151 8.49049L37.4997 13.091H34.4583L34.8815 8.49049L31.0312 11.2584L29.4531 8.75261L33.9192 6.54587L29.4531 4.3761L31.0318 1.83274L34.8821 4.60069L34.4589 0.000137329H37.5002L37.1157 4.60069L40.9268 1.83274L42.544 4.3761L38.078 6.54587H38.0774Z" fill="#E94666"/>
<path d="M52.8118 6.54587L57.2778 8.75261L55.6606 11.2584L51.8495 8.49049L52.234 13.091H49.1927L49.6159 8.49049L45.7656 11.2584L44.1875 8.75261L48.6536 6.54587L44.1875 4.3761L45.7661 1.83274L49.6164 4.60069L49.1932 0.000137329H52.2346L51.85 4.60069L55.6611 1.83274L57.2784 4.3761L52.8123 6.54587H52.8118Z" fill="#E94666"/>
<path d="M67.5305 6.54587L71.9966 8.75261L70.3793 11.2584L66.5682 8.49049L66.9528 13.091H63.9114L64.3346 8.49049L60.4843 11.2584L58.9062 8.75261L63.3723 6.54587L58.9062 4.3761L60.4849 1.83274L64.3352 4.60069L63.912 0.000137329H66.9534L66.5688 4.60069L70.3799 1.83274L71.9972 4.3761L67.5311 6.54587H67.5305Z" fill="#E94666"/>
</svg>
