<svg width="38" height="38" viewBox="0 0 38 38" fill="none" xmlns="http://www.w3.org/2000/svg">
<circle cx="19" cy="19" r="18.5" fill="white" stroke="#E94666"/>
<path d="M24.318 19.786C24.318 20.0793 24.1493 20.226 23.812 20.226H14.396C14.2493 20.226 14.1467 20.1967 14.088 20.138C14.0293 20.0793 14 19.984 14 19.852V18.466C14 18.2313 14.0953 18.114 14.286 18.114H24.032C24.2227 18.114 24.318 18.2167 24.318 18.422V19.786ZM18.532 24.318C18.2533 24.318 18.114 24.1493 18.114 23.812V14.396C18.114 14.2493 18.1433 14.1467 18.202 14.088C18.2607 14.0293 18.356 14 18.488 14H19.874C20.1087 14 20.226 14.0953 20.226 14.286V24.032C20.226 24.2227 20.1233 24.318 19.918 24.318H18.532Z" fill="#E94666"/>
</svg>
