<svg width="170" height="153" viewBox="0 0 170 153" fill="none" xmlns="http://www.w3.org/2000/svg">
<path fill-rule="evenodd" clip-rule="evenodd" d="M25.2661 19.5907L53.2866 18.2622C58.9667 32.0674 64.6468 45.8727 70.3269 59.6754C59.797 63.6527 49.7118 65.5209 40.3667 63.8903L21.6484 49.4334L25.2661 19.5907Z" fill="#51913B"/>
<path fill-rule="evenodd" clip-rule="evenodd" d="M85.8254 11.0343C94.4178 10.6015 103.481 12.1442 113.05 15.7975L105.561 42.9772L96.8653 53.2234L85.9715 56.7376L75.1271 53.7336L67.595 45.7949L64.6875 27.7685C71.7335 22.1912 78.7773 16.6117 85.8233 11.0343H85.8254Z" fill="#F7E133"/>
<path fill-rule="evenodd" clip-rule="evenodd" d="M131.794 63.6819C120.447 65.7449 109.669 64.4017 99.4922 59.4606L115.864 18.9321H131.792L142.63 25.0602L147.689 37.7469C146.05 42.3386 144.411 46.9281 142.77 51.5177C139.109 55.5717 135.451 59.6257 131.79 63.6819H131.794Z" fill="#DA0000"/>
<path fill-rule="evenodd" clip-rule="evenodd" d="M101.735 37.4622C101.735 46.7636 94.0843 54.3038 84.7481 54.3038C75.4114 54.3038 67.8427 46.7636 67.8427 37.4622C67.8427 28.1609 75.4114 20.6209 84.7481 20.6209C88.342 20.6209 91.6756 21.7393 94.4158 23.6442L99.2268 15.2878C95.0629 12.5838 90.0904 11.0132 84.7503 11.0132C75.8221 11.0132 67.9654 15.5085 63.1518 22.2386C58.3471 15.4485 50.4129 11.0132 41.4398 11.0132C26.778 11.0132 14.8906 22.8557 14.8906 37.4622C14.8906 52.0688 26.778 63.9111 41.4398 63.9111C46.6189 63.9111 51.4539 62.433 55.5384 59.8788L50.7313 51.5353C48.0643 53.286 44.8725 54.3059 41.4398 54.3059C32.1033 54.3059 24.5347 46.7657 24.5347 37.4644C24.5347 28.1631 32.1033 20.6231 41.4398 20.6231C50.7764 20.6231 58.2011 28.1631 58.2011 37.4644C58.2011 52.0709 70.0883 63.9133 84.7503 63.9133C93.7725 63.9133 101.743 59.429 106.542 52.5768C109.344 47.9613 111.164 42.9967 111.379 37.4644C111.379 28.1631 118.947 20.6231 128.284 20.6231C137.621 20.6231 145.189 28.1631 145.189 37.4644C145.189 46.7657 137.621 54.3059 128.284 54.3059C124.804 54.3059 121.57 53.258 118.881 51.4622L114.461 60.0503C118.487 62.5012 123.221 63.9133 128.284 63.9133C142.946 63.9133 154.833 52.0709 154.833 37.4644C154.833 22.8579 142.946 11.0154 128.284 11.0154C113.622 11.0154 101.735 22.8579 101.735 37.4644V37.4622Z" fill="#585858"/>
<path fill-rule="evenodd" clip-rule="evenodd" d="M145.454 106.514V80.7758H153.663C157.978 80.7758 161.497 84.281 161.497 88.5795V90.3213C161.497 94.6193 157.978 98.125 153.663 98.125H150.392V106.514H145.454ZM150.392 93.3316H152.485C154.478 93.3316 156.105 91.7121 156.105 89.7259V88.9886C156.105 87.0024 154.478 85.3824 152.485 85.3824H150.392V93.3316ZM28.8449 106.514H37.3513C41.227 106.514 44.3886 103.363 44.3886 99.5026V99.2539C44.3886 96.7902 42.9132 93.7751 40.0075 93.3639C42.1669 92.7341 43.5735 90.1519 43.5735 88.0005V87.7544C43.5735 83.9105 40.5774 80.7779 36.904 80.7779H28.8449C28.8449 89.357 28.8449 97.9366 28.8449 106.516V106.514ZM33.8606 85.5369H35.8587C37.3169 85.5369 38.5063 86.7219 38.5063 88.1741V88.5795C38.5063 90.0323 37.3169 91.2168 35.8587 91.2168H33.8606V85.5348V85.5369ZM33.8606 95.8837H36.3168C37.9707 95.8837 39.3171 97.2269 39.3171 98.875V98.8919C39.3171 100.539 37.9686 101.883 36.3168 101.883H33.8606V95.8858V95.8837ZM87.671 80.7758H89.2068C93.136 80.7758 96.3516 83.9788 96.3516 87.8936V99.3936C96.3516 103.308 93.136 106.511 89.2068 106.511H87.671C83.7414 106.511 80.5262 103.308 80.5262 99.3936V87.8936C80.5262 83.9788 83.7414 80.7758 87.671 80.7758ZM88.1507 85.556H88.725C90.1982 85.556 91.4025 86.7579 91.4025 88.2239V99.0634C91.4025 100.531 90.196 101.731 88.725 101.731H88.1507C86.6776 101.731 85.4727 100.531 85.4727 99.0634V88.2239C85.4727 86.7558 86.6776 85.556 88.1507 85.556ZM132.463 80.7758H133.997C137.926 80.7758 141.141 83.9788 141.141 87.8936V99.3936C141.141 103.308 137.926 106.511 133.997 106.511H132.463C128.534 106.511 125.318 103.308 125.318 99.3936V87.8936C125.318 83.9788 128.534 80.7758 132.463 80.7758ZM132.943 85.556H133.517C134.991 85.556 136.197 86.7579 136.197 88.2239V99.0634C136.197 100.531 134.991 101.731 133.517 101.731H132.943C131.469 101.731 130.263 100.531 130.263 99.0634V88.2239C130.263 86.7558 131.469 85.556 132.943 85.556ZM16.7855 80.7758H18.3212C22.2506 80.7758 25.4661 83.9788 25.4661 87.8936V88.7272H20.5193V88.2239C20.5193 86.7558 19.3127 85.556 17.8415 85.556H17.2673C15.794 85.556 14.5896 86.7558 14.5896 88.2239V99.0634C14.5896 100.531 15.7962 101.731 17.2673 101.731H17.8415C19.3148 101.731 20.5193 100.529 20.5193 99.0634V98.7225H25.4661V99.3936C25.4661 103.308 22.2506 106.511 18.3212 106.511H16.7855C12.856 106.511 9.64062 103.308 9.64062 99.3936V87.8936C9.64062 83.9788 12.856 80.7758 16.7855 80.7758ZM47.3761 80.7758V106.514C51.9013 106.514 56.4287 106.514 60.9539 106.514V101.671H52.525V96.0123H59.8356V91.1676H52.525V85.6205H60.4423V80.7758C56.0866 80.7758 51.7314 80.7758 47.3761 80.7758ZM67.9568 85.6205V106.514H73.1057V85.6205H78.3667V80.7758H62.6938V85.6205H67.9547H67.9568ZM108.475 78.4487H113.293V81.277H113.932C118.829 81.277 122.823 85.2559 122.823 90.135V97.1459C122.823 102.024 118.829 106.003 113.932 106.003H113.293V109.016H108.475V106.003H107.837C102.939 106.003 98.9452 102.024 98.9452 97.1459V90.135C98.9452 85.2559 102.939 81.277 107.837 81.277H108.475V78.4487ZM113.293 86.0233V101.334H113.966C116.025 101.334 117.707 99.6566 117.707 97.6085V89.7492C117.707 87.701 116.023 86.0233 113.966 86.0233H113.293ZM108.475 101.334V86.0233H107.802C105.744 86.0233 104.062 87.701 104.062 89.7492V97.6085C104.062 99.6593 105.746 101.334 107.802 101.334H108.475Z" fill="#7A7A7A"/>
<path fill-rule="evenodd" clip-rule="evenodd" d="M8.5 139.056H12.3348L13.3199 135.086H18.7162L19.7012 139.056H23.5361L18.0237 116.839H14.0125L8.5 139.056ZM14.0361 131.482L16.017 121.671L17.9097 131.482H14.0383H14.0361ZM25.5148 139.056H32.8576C36.2042 139.056 38.9336 136.337 38.9336 133.003V132.789C38.9336 130.661 37.6603 128.06 35.1503 127.704C37.0129 127.162 38.2302 124.932 38.2302 123.074V122.862C38.2302 119.545 35.6428 116.839 32.4726 116.839H25.5148C25.5148 124.244 25.5148 131.649 25.5148 139.056ZM29.8444 120.948H31.5693C32.8275 120.948 33.8556 121.973 33.8556 123.226V123.576C33.8556 124.831 32.8275 125.853 31.5693 125.853H29.8444V120.948ZM29.8444 129.882H31.965C33.391 129.882 34.5567 131.041 34.5567 132.463V132.478C34.5567 133.899 33.3932 135.06 31.965 135.06H29.8444V129.884V129.882ZM60.8802 116.841H62.2051C65.5966 116.841 68.3735 119.605 68.3735 122.986V132.913C68.3735 136.292 65.5988 139.058 62.2051 139.058H60.8802C57.4882 139.058 54.7118 136.294 54.7118 132.913V122.986C54.7118 119.607 57.486 116.841 60.8802 116.841ZM61.293 120.968H61.7897C63.061 120.968 64.1022 122.005 64.1022 123.271V132.628C64.1022 133.895 63.061 134.932 61.7897 134.932H61.293C60.0222 134.932 58.981 133.895 58.981 132.628V123.271C58.981 122.005 60.0222 120.968 61.293 120.968ZM118.914 116.841H120.239C123.631 116.841 126.408 119.605 126.408 122.986V132.913C126.408 136.292 123.634 139.058 120.239 139.058H118.914C115.523 139.058 112.746 136.294 112.746 132.913V122.986C112.746 119.607 115.521 116.841 118.914 116.841ZM119.328 120.968H119.825C121.096 120.968 122.137 122.005 122.137 123.271V132.628C122.137 133.895 121.096 134.932 119.825 134.932H119.328C118.057 134.932 117.015 133.895 117.015 132.628V123.271C117.015 122.005 118.057 120.968 119.328 120.968ZM145.305 139.058H149.139L150.125 135.088H155.521L156.506 139.058H160.341L154.829 116.841H150.817L145.305 139.058ZM150.841 131.484L152.822 121.673L154.714 131.484H150.843H150.841ZM43.8502 121.021V139.056H48.2959V121.021H52.8383V116.841H39.31V121.021H43.8524H43.8502ZM89.395 116.841H92.948V139.058C85.8999 139.058 78.8518 139.058 71.8038 139.058V116.841H75.3573V135.519H80.6007V116.841H84.1537V135.519H89.3972V116.841H89.395ZM97.6974 116.841H101.171V125.99L106.326 116.841H110.709L104.681 126.56L111.796 139.056H107.468L102.599 129.918L101.171 132.219V139.056H97.6974V116.839V116.841ZM139.136 139.058H142.896V116.841C138.986 116.841 135.076 116.841 131.166 116.841C131.166 121.705 130.737 126.374 130.38 131.223C130.206 134.48 129.245 135.845 127.632 135.643C127.632 136.781 127.632 137.921 127.632 139.058C131.09 139.551 133.794 138.171 134.198 131.861C134.491 128.103 134.693 124.345 134.985 120.586H139.136V139.058Z" fill="#7A7A7A"/>
</svg>
