<svg width="173" height="133" viewBox="0 0 173 133" fill="none" xmlns="http://www.w3.org/2000/svg">
<g clip-path="url(#clip0_2_1106)">
<path d="M8.65625 39.3086C8.65625 30.8869 15.487 24.0833 23.8913 24.0833V35.8231C21.904 35.8231 20.3727 37.3999 20.3727 39.3077C20.3727 41.3405 21.904 42.8336 23.8913 42.8336V54.5734C15.487 54.5734 8.65625 47.7699 8.65625 39.3068V39.3086ZM25.9612 32.1317H45.6259V53.9114H37.5116V39.1431H34.0755V53.9114H25.9612V32.1317ZM59.2453 46.0294C60.9014 46.0294 62.2675 44.7018 62.2675 43.0423C62.2675 41.3827 60.9014 40.0137 59.2453 40.0137C57.6305 40.0137 56.2643 41.3827 56.2643 43.0423C56.2643 44.7018 57.6305 46.0294 59.2453 46.0294ZM47.0738 43.0009C47.0738 35.9904 52.2072 31.5516 58.1269 31.5516C61.3977 31.5516 63.7575 33.086 65.1228 34.3723V32.1317H72.5334V53.9528H65.1228V51.7131C63.798 53.0407 61.5216 54.4511 58.1269 54.4511C52.2072 54.4511 47.0738 49.9708 47.0738 43.0009ZM73.9831 43.125C73.9831 36.8197 79.1165 31.7171 85.4087 31.7171V54.5752C79.1156 54.5752 73.9831 49.4725 73.9831 43.1259V43.125ZM106.316 53.9114H98.0362V45.7802L93.7717 53.9114H87.2721V32.1317H95.5516V39.9724L99.6088 32.1317H106.316V53.9114ZM118.487 46.6104C120.019 46.6104 121.261 45.3656 121.261 43.8311C121.261 42.2543 120.019 41.0095 118.487 41.0095C116.956 41.0095 115.714 42.2543 115.714 43.8311C115.714 45.3656 116.956 46.6104 118.487 46.6104ZM107.765 43.8311C107.765 41.0095 108.842 38.4793 110.58 36.5715L107.807 29.9757L124.077 23.0894L127.223 30.5567L120.723 33.2947C125.608 34.3318 129.251 38.6456 129.251 43.8319C129.251 49.7639 124.449 54.5761 118.488 54.5761C112.568 54.5761 107.766 49.7639 107.766 43.8319L107.765 43.8311ZM141.587 46.0294C143.243 46.0294 144.609 44.7018 144.609 43.0423C144.609 41.3827 143.243 40.0137 141.587 40.0137C139.972 40.0137 138.606 41.3827 138.606 43.0423C138.606 44.7018 139.972 46.0294 141.587 46.0294ZM130.078 43.0423C130.078 36.6533 135.211 31.4679 141.587 31.4679C148.004 31.4679 153.137 36.6533 153.137 43.0423C153.137 49.4312 148.004 54.5752 141.587 54.5752C135.211 54.5752 130.078 49.4312 130.078 43.0423ZM153.054 50.3018C153.054 48.1035 154.751 46.2776 156.904 46.0294L150.238 24.748H164.356L157.608 46.0294C159.843 46.1949 161.581 48.0622 161.581 50.3018C161.581 52.6665 159.677 54.5743 157.318 54.5743C154.958 54.5743 153.053 52.6665 153.053 50.3018H153.054Z" fill="#4B4B4B"/>
<path fill-rule="evenodd" clip-rule="evenodd" d="M65.1606 93.8283H69.9558V90.2372C69.9558 89.8217 70.294 89.4819 70.7096 89.4819C71.1251 89.4819 71.4634 89.8208 71.4634 90.2372V98.9292C71.4634 99.3456 71.1251 99.6846 70.7096 99.6846C70.2949 99.6846 69.9558 99.3456 69.9558 98.9292V95.339H65.1606V98.9292C65.1606 99.3456 64.8224 99.6846 64.4068 99.6846C63.9913 99.6846 63.653 99.3456 63.653 98.9292V90.2372C63.653 89.8217 63.9913 89.4819 64.4068 89.4819C64.8224 89.4819 65.1606 89.8208 65.1606 90.2372V93.8283ZM49.9511 94.0968C50.183 94.2183 50.3965 94.3653 50.5819 94.5414C51.1828 95.1154 51.3251 95.796 51.3251 96.5909C51.3251 97.319 51.0607 98.0849 50.6153 98.6589C49.9739 99.4847 49.0365 99.8589 48.0059 99.8589C47.0123 99.8589 46.0749 99.5314 45.2596 98.9741C44.909 98.7338 44.5075 98.3992 44.2352 98.0665C43.9725 97.7442 44.0199 97.2671 44.3415 97.0038C44.663 96.7406 45.1392 96.7881 45.4019 97.1104C45.5794 97.3278 45.8807 97.5708 46.1091 97.7266C46.6732 98.1122 47.3172 98.3491 48.0059 98.3491C48.5656 98.3491 49.0734 98.1853 49.4248 97.7319C49.6647 97.4238 49.8175 96.9836 49.8175 96.5918C49.8175 96.2441 49.8105 95.8919 49.5417 95.6357C48.9759 95.0952 47.5236 95.0371 46.8058 95.0371C46.3912 95.0371 46.052 94.6981 46.052 94.2817C46.052 93.8662 46.3903 93.5263 46.8058 93.5263C47.846 93.5263 49.3835 93.3098 49.3844 91.9733C49.3791 91.74 49.2438 91.3941 49.1164 91.203C48.8353 90.7796 48.4066 90.6369 47.9119 90.6369C47.3022 90.6369 46.7145 90.7901 46.2005 91.122C46.0116 91.2435 45.7612 91.4416 45.6233 91.6238C45.3773 91.9566 44.9073 92.0288 44.5725 91.7841C44.2378 91.5385 44.164 91.0648 44.4083 90.7285C44.634 90.4186 45.0022 90.1069 45.3158 89.8965C46.0881 89.378 46.9833 89.1262 47.9111 89.1262C48.9284 89.1262 49.8246 89.5241 50.3868 90.3913C50.6645 90.8192 50.8902 91.4531 50.8902 91.9716C50.8902 92.6081 50.7049 93.2085 50.3104 93.7147C50.2006 93.8556 50.0793 93.9833 49.9493 94.0977L49.9511 94.0968ZM37.6214 97.0126L36.7051 99.2189C36.5461 99.6027 36.1033 99.7858 35.7202 99.6265C35.3372 99.4671 35.1544 99.0234 35.3134 98.6396L36.3712 96.0918C36.3906 96.0064 36.4239 95.9263 36.4696 95.8541L38.9217 89.9476C39.0412 89.6606 39.3056 89.4828 39.6166 89.4828C39.9276 89.4828 40.1929 89.6588 40.3124 89.9467L43.9444 98.6387C44.1043 99.0225 43.9233 99.4663 43.5402 99.6274C43.1572 99.7885 42.7144 99.6062 42.5536 99.2224L41.6311 97.0135H37.6214V97.0126ZM38.2487 95.5019H41.0003L39.6201 92.1979L38.2487 95.5019ZM22.5392 97.0126L21.6238 99.2189C21.4648 99.6027 21.022 99.7858 20.6389 99.6265C20.2559 99.4671 20.0731 99.0234 20.2322 98.6396L21.2899 96.0909C21.3093 96.0055 21.3426 95.9254 21.3883 95.8541L23.8404 89.9476C23.9599 89.6606 24.2252 89.4828 24.5353 89.4828C24.8463 89.4828 25.1116 89.6588 25.2311 89.9467L28.8631 98.6387C29.0239 99.0225 28.842 99.4663 28.4589 99.6274C28.0759 99.7885 27.6331 99.6062 27.4723 99.2224L26.5498 97.0135H22.5392V97.0126ZM23.1665 95.5019H25.9182L24.538 92.1979L23.1665 95.5019ZM32.1893 78.0951H28.1787L27.2632 80.3013C27.1042 80.686 26.6614 80.8683 26.2784 80.7089C25.8953 80.5496 25.7126 80.1059 25.8716 79.722L26.9294 77.1742C26.9487 77.0888 26.9821 77.0087 27.0278 76.9374L29.4798 71.0309C29.5993 70.743 29.8638 70.5661 30.1748 70.5661C30.4858 70.5661 30.7511 70.7422 30.8706 71.03L34.5025 79.722C34.6633 80.1059 34.4815 80.5496 34.0984 80.7107C33.7154 80.8709 33.2726 80.6895 33.1118 80.3057L32.1893 78.0977V78.0951ZM28.806 76.5843H31.5576L30.1774 73.2812L28.806 76.5843ZM55.5 72.075H52.382C51.9665 72.075 51.6282 71.7352 51.6282 71.3197C51.6282 70.9033 51.9665 70.5643 52.382 70.5643H60.2012C60.6167 70.5643 60.955 70.9033 60.955 71.3197C60.955 71.7352 60.6167 72.075 60.2012 72.075H57.0076V80.0116C57.0076 80.4281 56.6694 80.767 56.2538 80.767C55.8391 80.767 55.5 80.4281 55.5 80.0116V72.075ZM61.6385 71.3197C61.6385 70.9033 61.9767 70.5643 62.3923 70.5643H65.0455C66.7508 70.5643 67.9782 71.4852 67.9782 73.3049C67.9782 74.1078 67.6461 74.7857 67.126 75.2955C67.9553 75.8607 68.3296 76.7631 68.3296 77.7896C68.3296 79.0758 67.6742 80.0433 66.4785 80.4967C65.9909 80.6816 65.346 80.7926 64.8162 80.767H62.3923C61.9767 80.767 61.6385 80.4281 61.6385 80.0116V71.3197ZM65.129 74.7329C65.8029 74.5507 66.4714 74.0665 66.4714 73.3049C66.4714 72.3462 65.9153 72.075 65.0464 72.075H63.147V74.7329H65.1299H65.129ZM65.2432 76.2428C65.2335 76.2428 65.2239 76.2428 65.2142 76.2428H63.147V79.2554H64.8356C64.8505 79.2554 64.8619 79.2554 64.8751 79.2563C65.2142 79.2721 65.6605 79.1955 65.9724 79.0723C66.5672 78.8372 66.8237 78.4305 66.8237 77.7887C66.8237 77.2235 66.6656 76.7411 66.1481 76.4646C65.8942 76.329 65.5375 76.2428 65.2476 76.2428C65.2467 76.2428 65.245 76.2428 65.2441 76.2428H65.2432ZM101.909 72.075H98.7909C98.3753 72.075 98.0371 71.7352 98.0371 71.3197C98.0371 70.9033 98.3753 70.5643 98.7909 70.5643H106.61C107.026 70.5643 107.364 70.9033 107.364 71.3197C107.364 71.7352 107.026 72.075 106.61 72.075H103.416V80.0116C103.416 80.4281 103.078 80.767 102.663 80.767C102.248 80.767 101.909 80.4281 101.909 80.0116V72.075ZM109.486 76.3255V79.2563H113.795C114.21 79.2563 114.549 79.5952 114.549 80.0116C114.549 80.4281 114.21 80.767 113.795 80.767H108.733C108.318 80.767 107.979 80.4281 107.979 80.0116V71.3197C107.979 70.9033 108.317 70.5643 108.733 70.5643H113.795C114.21 70.5643 114.549 70.9033 114.549 71.3197C114.549 71.7352 114.21 72.075 113.795 72.075H109.486V74.8148H112.997C113.413 74.8148 113.751 75.1537 113.751 75.5701C113.751 75.9857 113.413 76.3255 112.997 76.3255H109.486ZM135.597 76.4206V80.0108C135.597 80.4272 135.259 80.7661 134.843 80.7661C134.428 80.7661 134.09 80.4272 134.09 80.0108V71.3188C134.09 70.9024 134.428 70.5634 134.843 70.5634C135.259 70.5634 135.597 70.9024 135.597 71.3188V74.909H140.392V71.3188C140.392 70.9024 140.731 70.5634 141.146 70.5634C141.562 70.5634 141.9 70.9024 141.9 71.3188V80.0108C141.9 80.4272 141.562 80.7661 141.146 80.7661C140.731 80.7661 140.392 80.4272 140.392 80.0108V76.4206H135.597ZM20.9956 111.995V115.082H25.3041C25.7196 115.082 26.0579 115.42 26.0579 115.837C26.0579 116.253 25.7196 116.592 25.3041 116.592H20.2418C19.8271 116.592 19.488 116.253 19.488 115.837V106.839C19.488 106.424 19.8263 106.084 20.2418 106.084H25.3041C25.7196 106.084 26.0579 106.423 26.0579 106.839C26.0579 107.255 25.7196 107.595 25.3041 107.595H20.9956V110.484H24.5063C24.9219 110.484 25.2601 110.823 25.2601 111.24C25.2601 111.656 24.9219 111.995 24.5063 111.995H20.9956ZM28.7629 112.042V115.837C28.7629 116.253 28.4247 116.592 28.0091 116.592C27.5936 116.592 27.2553 116.253 27.2553 115.837V106.839C27.2553 106.424 27.5936 106.084 28.0091 106.084C28.4247 106.084 28.7629 106.423 28.7629 106.839V110.57L32.9492 106.31C33.2401 106.014 33.7197 106.01 34.0149 106.302C34.311 106.595 34.3145 107.074 34.0228 107.37L30.1616 111.299L34.2627 115.296C34.5605 115.586 34.5667 116.066 34.2776 116.364C33.9886 116.663 33.5098 116.669 33.2119 116.379L28.762 112.043L28.7629 112.042ZM48.0639 112.094V115.837C48.0639 116.253 47.7257 116.592 47.3101 116.592C46.8946 116.592 46.5563 116.253 46.5563 115.837V106.839C46.5563 106.424 46.8946 106.084 47.3101 106.084C47.7248 106.084 48.0639 106.423 48.0639 106.839V110.583H52.8591V106.839C52.8591 106.424 53.1973 106.084 53.6129 106.084C54.0276 106.084 54.3667 106.423 54.3667 106.839V115.837C54.3667 116.253 54.0284 116.592 53.6129 116.592C53.1973 116.592 52.8591 116.253 52.8591 115.837V112.094H48.0639ZM56.8003 115.082C58.0663 113.293 57.7228 108.971 57.7685 106.961C57.7781 106.552 58.1129 106.223 58.5223 106.223H63.4308C63.8463 106.223 64.1846 106.562 64.1846 106.979V115.082H64.9304C65.346 115.082 65.6843 115.42 65.6843 115.837V118.327C65.6843 118.743 65.346 119.082 64.9304 119.082C64.5149 119.082 64.1767 118.743 64.1767 118.327V116.592H57.0964V118.327C57.0964 118.743 56.7581 119.082 56.3426 119.082C55.927 119.082 55.5888 118.743 55.5888 118.327V115.837C55.5888 115.42 55.927 115.082 56.3426 115.082H56.8012H56.8003ZM58.5152 115.082H62.6778V107.734H59.2699C59.2734 109.956 59.4219 112.992 58.5161 115.082H58.5152ZM98.1144 115.082C99.3804 113.293 99.0369 108.971 99.0826 106.961C99.0922 106.552 99.427 106.223 99.8364 106.223H104.745C105.16 106.223 105.499 106.562 105.499 106.979V115.082H106.245C106.66 115.082 106.998 115.42 106.998 115.837V118.327C106.998 118.743 106.66 119.082 106.245 119.082C105.83 119.082 105.491 118.743 105.491 118.327V116.592H98.4096V118.327C98.4096 118.743 98.0713 119.082 97.6558 119.082C97.2402 119.082 96.902 118.743 96.902 118.327V115.837C96.902 115.42 97.2402 115.082 97.6558 115.082H98.1144ZM99.8293 115.082H103.991V107.734H100.583C100.587 109.956 100.735 112.992 99.8293 115.082ZM89.414 112.094V115.837C89.414 116.253 89.0758 116.592 88.6603 116.592C88.2447 116.592 87.9064 116.253 87.9064 115.837V106.839C87.9064 106.424 88.2447 106.084 88.6603 106.084C89.0749 106.084 89.414 106.423 89.414 106.839V110.583H94.2092V106.839C94.2092 106.424 94.5474 106.084 94.963 106.084C95.3777 106.084 95.7168 106.423 95.7168 106.839V115.837C95.7168 116.253 95.3786 116.592 94.963 116.592C94.5474 116.592 94.2092 116.253 94.2092 115.837V112.094H89.414ZM73.7213 111.302L70.8168 107.282C70.5734 106.945 70.649 106.471 70.9855 106.228C71.3219 105.984 71.7946 106.059 72.038 106.397L74.6605 110.026L77.3339 106.391C77.5799 106.057 78.0534 105.985 78.3873 106.232C78.7211 106.478 78.7932 106.953 78.5472 107.288L75.5882 111.31L78.5393 115.394C78.7826 115.731 78.7071 116.205 78.3706 116.449C78.0341 116.693 77.5614 116.617 77.3181 116.28L74.649 112.587L71.9281 116.285C71.6822 116.62 71.2086 116.692 70.8739 116.444C70.54 116.198 70.468 115.723 70.7149 115.388L73.7213 111.301V111.302ZM81.7197 111.995V115.082H86.0281C86.4428 115.082 86.7819 115.42 86.7819 115.837C86.7819 116.253 86.4437 116.592 86.0281 116.592H80.9659C80.5503 116.592 80.2121 116.253 80.2121 115.837V106.839C80.2121 106.424 80.5503 106.084 80.9659 106.084H86.0281C86.4428 106.084 86.7819 106.423 86.7819 106.839C86.7819 107.255 86.4437 107.595 86.0281 107.595H81.7197V110.484H85.2304C85.645 110.484 85.9842 110.823 85.9842 111.24C85.9842 111.656 85.6459 111.995 85.2304 111.995H81.7197ZM39.8011 105.942C42.7355 105.942 44.9714 108.44 44.9714 111.331C44.9714 114.222 42.7355 116.72 39.8011 116.72C36.8667 116.72 34.6308 114.222 34.6308 111.331C34.6308 108.44 36.8667 105.942 39.8011 105.942ZM74.5489 70.3891C77.4068 70.3891 79.5848 72.8207 79.5848 75.6362C79.5848 78.4516 77.4068 80.8832 74.5489 80.8832C71.6909 80.8832 69.5139 78.4516 69.5139 75.6362C69.5139 72.8207 71.6918 70.3891 74.5489 70.3891ZM47.065 70.3891C49.923 70.3891 52.1 72.8207 52.1 75.6362C52.1 78.4516 49.9221 80.8832 47.065 80.8832C44.2071 80.8832 42.0291 78.4516 42.0291 75.6362C42.0291 72.8207 44.2071 70.3891 47.065 70.3891ZM66.4398 111.297H70.0182C70.4328 111.297 70.772 111.636 70.772 112.052C70.772 112.468 70.4337 112.808 70.0182 112.808H66.4398C66.0242 112.808 65.686 112.469 65.686 112.052C65.686 111.637 66.0242 111.297 66.4398 111.297ZM17.1511 109.221C16.963 108.9 16.6195 108.538 16.3393 108.301C15.6812 107.744 14.9072 107.435 14.0401 107.435C11.7699 107.435 10.5223 109.276 10.5223 111.422C10.5223 113.567 11.7699 115.409 14.0401 115.409C14.9063 115.409 15.6812 115.099 16.3393 114.543C16.6195 114.306 16.963 113.944 17.1511 113.623C17.3584 113.263 17.8205 113.139 18.1798 113.346C18.5392 113.554 18.6639 114.017 18.4566 114.378C18.1939 114.834 17.7476 115.322 17.354 115.661C16.4166 116.469 15.2841 116.92 14.041 116.92C10.93 116.92 9.01562 114.41 9.01562 111.422C9.01562 108.433 10.93 105.924 14.041 105.924C15.2841 105.924 16.4175 106.375 17.354 107.183C17.7476 107.522 18.1939 108.009 18.4566 108.465C18.6639 108.826 18.5401 109.29 18.1798 109.497C17.8205 109.705 17.3575 109.581 17.1511 109.221ZM158.653 68.3334C158.852 68.4981 159.248 68.653 159.503 68.7155C160.326 68.9154 161.129 68.697 161.841 68.2683C162.197 68.0544 162.662 68.1714 162.875 68.528C163.089 68.8846 162.972 69.3503 162.616 69.5642C161.559 70.199 160.359 70.478 159.148 70.1831C158.669 70.066 158.081 69.8186 157.695 69.4991C157.375 69.2349 157.328 68.7569 157.593 68.4356C157.856 68.1142 158.333 68.0684 158.654 68.3334H158.653ZM157.536 77.735L162.645 70.868C162.843 70.6022 163.173 70.4983 163.487 70.6031C163.801 70.7069 164.003 70.9887 164.003 71.3197V80.0116C164.003 80.4281 163.665 80.767 163.25 80.767C162.835 80.767 162.496 80.4281 162.496 80.0116V73.5963L157.387 80.4633C157.189 80.7292 156.859 80.833 156.545 80.7283C156.232 80.6244 156.029 80.3427 156.029 80.0116V71.3197C156.029 70.9033 156.367 70.5643 156.783 70.5643C157.197 70.5643 157.536 70.9033 157.536 71.3197V77.735ZM153.499 71.3197V80.0116C153.499 80.4281 153.16 80.767 152.745 80.767C152.33 80.767 151.991 80.4281 151.991 80.0116V71.3197C151.991 70.9033 152.329 70.5643 152.745 70.5643C153.16 70.5643 153.499 70.9033 153.499 71.3197ZM145.766 74.2047H147.61C148.157 74.2029 148.804 74.3623 149.291 74.5982C150.473 75.1713 151.039 76.2454 151.039 77.5431C151.039 78.8214 150.502 79.9034 149.313 80.443C148.844 80.6561 148.213 80.7899 147.69 80.767H145.013C144.597 80.767 144.259 80.4281 144.259 80.0116V71.3197C144.259 70.9033 144.597 70.5643 145.013 70.5643C145.427 70.5643 145.766 70.9033 145.766 71.3197V74.2047ZM145.766 79.2563H147.707C147.721 79.2563 147.733 79.2563 147.747 79.2572C148.032 79.2721 148.435 79.1832 148.691 79.0661C149.331 78.7756 149.531 78.2174 149.531 77.5422C149.531 76.8256 149.289 76.2718 148.63 75.9549C148.346 75.8184 147.933 75.7154 147.614 75.7154H145.767V79.2563H145.766ZM127.447 74.2047H129.291C129.837 74.2029 130.485 74.3623 130.972 74.5982C132.153 75.1713 132.719 76.2454 132.719 77.5431C132.719 78.8214 132.182 79.9034 130.993 80.443C130.524 80.6561 129.894 80.7899 129.37 80.767H126.693C126.277 80.767 125.939 80.4281 125.939 80.0116V71.3197C125.939 70.9033 126.277 70.5643 126.693 70.5643C127.108 70.5643 127.447 70.9033 127.447 71.3197V74.2047ZM127.447 79.2563H129.387C129.402 79.2563 129.413 79.2563 129.427 79.2572C129.713 79.2721 130.115 79.1832 130.371 79.0661C131.011 78.7756 131.211 78.2174 131.211 77.5422C131.211 76.8256 130.97 76.2718 130.31 75.9549C130.026 75.8184 129.613 75.7154 129.294 75.7154H127.448V79.2563H127.447ZM115.628 79.2616C115.678 79.2651 115.743 79.2563 115.793 79.2475C116.954 79.0274 117.15 76.9691 117.175 76.0896C117.209 74.8465 117.241 73.5928 117.223 72.3488C117.219 72.0794 117.225 71.7211 117.186 71.4535C117.145 71.229 117.2 71.0177 117.345 70.8408C117.494 70.6594 117.694 70.5643 117.928 70.5643H122.918C123.333 70.5643 123.672 70.9033 123.672 71.3197V80.0116C123.672 80.4281 123.333 80.767 122.918 80.767C122.503 80.767 122.164 80.4281 122.164 80.0116V72.075H118.724C118.724 72.0935 118.725 72.112 118.725 72.1296C118.753 73.4572 118.717 74.8033 118.68 76.1309C118.647 77.2939 118.449 78.6418 117.754 79.6102C117.343 80.1816 116.768 80.5989 116.071 80.7309C115.874 80.7679 115.64 80.7864 115.439 80.76C115.027 80.7045 114.737 80.3233 114.792 79.9113C114.846 79.5037 115.22 79.2149 115.626 79.2616H115.628ZM90.861 77.735L95.9698 70.868C96.1675 70.6022 96.4978 70.4983 96.8115 70.6031C97.1251 70.7069 97.3281 70.9887 97.3281 71.3197V80.0116C97.3281 80.4281 96.9898 80.767 96.5743 80.767C96.1587 80.767 95.8205 80.4281 95.8205 80.0116V73.5963L90.7117 80.4633C90.514 80.7292 90.1837 80.833 89.87 80.7283C89.5564 80.6244 89.3534 80.3427 89.3534 80.0116V71.3197C89.3534 70.9033 89.6917 70.5643 90.1072 70.5643C90.5228 70.5643 90.861 70.9033 90.861 71.3197V77.735ZM84.1172 70.5643C84.6488 70.5441 85.2936 70.6832 85.7707 70.898C86.9717 71.4385 87.5339 72.5135 87.5339 73.8094C87.5339 75.0049 87.1324 76.1257 86.0773 76.7701C85.5994 77.0624 84.9773 77.2411 84.4142 77.2411C83.9002 77.2411 83.3863 77.2411 82.8714 77.2411V80.0116C82.8714 80.4281 82.5332 80.767 82.1176 80.767C81.7021 80.767 81.3638 80.4281 81.3638 80.0116V71.3197C81.3638 70.9033 81.7021 70.5643 82.1176 70.5643H84.1172ZM82.8714 75.7304C83.3854 75.7304 83.9002 75.7304 84.4142 75.7304C84.7006 75.7304 85.0511 75.6274 85.2936 75.4795C85.8779 75.1229 86.0272 74.4538 86.0272 73.8085C86.0272 73.1148 85.8067 72.5681 85.1548 72.2749C84.8869 72.1543 84.4651 72.0601 84.1664 72.0733C84.155 72.0733 84.1445 72.0742 84.133 72.0742H82.8714V75.7295V75.7304ZM37.3754 72.075V80.0116C37.3754 80.4281 37.0372 80.767 36.6216 80.767C36.2069 80.767 35.8678 80.4281 35.8678 80.0116V71.3197C35.8678 70.9033 36.2061 70.5643 36.6216 70.5643H41.6768C42.0924 70.5643 42.4306 70.9033 42.4306 71.3197C42.4306 71.7352 42.0924 72.075 41.6768 72.075H37.3754ZM16.4904 79.2607C16.5405 79.2642 16.6072 79.2554 16.6555 79.2466C17.817 79.0265 18.0129 76.9682 18.0375 76.0887C18.0727 74.8456 18.1043 73.5919 18.0858 72.348C18.0823 72.0786 18.0876 71.7202 18.0489 71.4526C18.0076 71.2281 18.063 71.0168 18.208 70.8399C18.3564 70.6585 18.5567 70.5634 18.7904 70.5634H23.7806C24.1962 70.5634 24.5344 70.9024 24.5344 71.3188V80.0108C24.5344 80.4272 24.1962 80.7661 23.7806 80.7661C23.366 80.7661 23.0268 80.4272 23.0268 80.0108V72.0742H19.5873C19.5873 72.0926 19.5882 72.1111 19.5882 72.1287C19.6163 73.4564 19.5794 74.8025 19.5425 76.1301C19.51 77.293 19.3114 78.6409 18.6165 79.6093C18.2062 80.1807 17.6307 80.598 16.9341 80.73C16.7373 80.767 16.5027 80.7855 16.3015 80.7591C15.8903 80.7036 15.5995 80.3224 15.6549 79.9104C15.7093 79.5028 16.0827 79.214 16.4886 79.2607H16.4904ZM10.5241 72.075V74.4864H12.3322C12.8567 74.4353 13.4945 74.526 13.9768 74.7065C15.2217 75.1731 15.7954 76.2428 15.7954 77.5422C15.7954 78.8205 15.2586 79.9025 14.07 80.4422C13.6008 80.6552 12.97 80.789 12.4464 80.7661H9.76943C9.35387 80.7661 9.01562 80.4272 9.01562 80.0108V71.3188C9.01562 70.9024 9.35387 70.5634 9.76943 70.5634H15.0513C15.4669 70.5634 15.8051 70.9024 15.8051 71.3188C15.8051 71.7343 15.4669 72.0742 15.0513 72.0742H10.5232L10.5241 72.075ZM10.5241 75.9971V79.2563H12.4648C12.4789 79.2563 12.4903 79.2563 12.5044 79.2572C12.7899 79.2721 13.1923 79.1832 13.4488 79.0661C14.0884 78.7756 14.2887 78.2174 14.2887 77.5422C14.2887 76.8819 14.0928 76.3625 13.4488 76.1213C13.1747 76.0183 12.7521 75.9584 12.4569 75.9919C12.4271 75.9954 12.4016 75.9971 12.3717 75.9971H10.525H10.5241ZM13.9593 94.7589L17.4682 89.6694C17.6589 89.393 17.9927 89.2776 18.3125 89.378C18.6323 89.4775 18.8414 89.7627 18.8414 90.099V98.9301C18.8414 99.3465 18.5032 99.6855 18.0876 99.6855C17.672 99.6855 17.3338 99.3465 17.3338 98.9301V92.521L14.5839 96.5099C14.439 96.7195 14.2211 96.8348 13.9663 96.8357C13.7124 96.8366 13.4927 96.723 13.3469 96.5143L10.5232 92.4875V98.9301C10.5232 99.3465 10.185 99.6855 9.76943 99.6855C9.35387 99.6855 9.01562 99.3465 9.01562 98.9301V90.099C9.01562 89.7645 9.22384 89.4801 9.54188 89.3789C9.8608 89.2776 10.1938 89.3903 10.3862 89.665L13.9584 94.7597L13.9593 94.7589ZM31.7518 90.9926V98.9292C31.7518 99.3456 31.4135 99.6846 30.998 99.6846C30.5824 99.6846 30.2442 99.3456 30.2442 98.9292V90.2372C30.2442 89.8217 30.5824 89.4819 30.998 89.4819H36.0532C36.4687 89.4819 36.807 89.8208 36.807 90.2372C36.807 90.6537 36.4687 90.9926 36.0532 90.9926H31.7518ZM54.784 96.6526L59.8928 89.7856C60.0905 89.5206 60.4208 89.4159 60.7345 89.5206C61.0481 89.6254 61.2511 89.9062 61.2511 90.2372V98.9292C61.2511 99.3456 60.9128 99.6846 60.4973 99.6846C60.0826 99.6846 59.7435 99.3456 59.7435 98.9292V92.5139L54.6346 99.3809C54.437 99.6467 54.1066 99.7506 53.793 99.6458C53.4793 99.542 53.2764 99.2602 53.2764 98.9292V90.2372C53.2764 89.8217 53.6146 89.4819 54.0302 89.4819C54.4458 89.4819 54.784 89.8208 54.784 90.2372V96.6526ZM39.802 107.453C37.6996 107.453 36.1393 109.277 36.1393 111.332C36.1393 113.387 37.7005 115.211 39.802 115.211C41.9044 115.211 43.4647 113.387 43.4647 111.332C43.4647 109.277 41.9035 107.453 39.802 107.453ZM74.5498 71.8998C72.5247 71.8998 71.0215 73.6571 71.0215 75.6362C71.0215 77.6153 72.5247 79.3734 74.5498 79.3734C76.5748 79.3734 78.078 77.6153 78.078 75.6362C78.078 73.6571 76.5748 71.8998 74.5498 71.8998ZM47.0659 71.8998C45.0408 71.8998 43.5376 73.6571 43.5376 75.6362C43.5376 77.6153 45.0408 79.3734 47.0659 79.3734C49.091 79.3734 50.5942 77.6153 50.5942 75.6362C50.5942 73.6571 49.091 71.8998 47.0659 71.8998Z" fill="#4B4B4B"/>
</g>
<defs>
<clipPath id="clip0_2_1106">
<rect width="173" height="133" fill="white"/>
</clipPath>
</defs>
</svg>
