<svg width="20" height="20" viewBox="0 0 20 20" fill="none" xmlns="http://www.w3.org/2000/svg">
<g clip-path="url(#clip0_2_293)">
<path fill-rule="evenodd" clip-rule="evenodd" d="M8.86645 0.0585011C7.25836 0.254321 5.845 0.766509 4.53051 1.62979C3.49332 2.31092 2.71742 3.04276 1.97191 4.04303C1.16492 5.12581 0.622305 6.26702 0.300352 7.55866C0.0696094 8.4842 0.0196484 8.91881 0.0196484 10.0001C0.0196484 11.0813 0.0696094 11.5159 0.300352 12.4415C1.27332 16.3446 4.53664 19.2951 8.55395 19.9038C9.44262 20.0385 10.7898 20.0195 11.718 19.8592C15.2057 19.2569 18.1933 16.7538 19.4059 13.418C19.6777 12.6704 19.9602 11.3687 19.9602 10.8642C19.9602 10.7756 19.9778 10.7032 19.9993 10.7032C20.024 10.7032 20.0381 10.4269 20.0377 9.95123C20.0373 9.45131 20.0244 9.21893 19.9993 9.25788C19.9716 9.30065 19.9612 9.27034 19.9608 9.14569C19.9589 8.62233 19.6775 7.32608 19.4042 6.58209C18.3804 3.79522 16.2005 1.61717 13.4086 0.59147C12.9951 0.439556 12.3147 0.252603 11.8352 0.159165C11.0398 0.00416519 9.68871 -0.0416551 8.86645 0.0585011ZM9.74816 3.41545C9.66379 3.44666 9.54953 3.50483 9.49426 3.54471C9.43902 3.58459 8.28137 4.38831 6.92176 5.33073C5.56211 6.27319 4.46348 7.05756 4.48035 7.07385C4.49719 7.09014 5.50395 7.85186 6.71754 8.76659L8.9241 10.4298L9.99879 10.4297L11.0735 10.4297L13.2219 8.71108C14.4036 7.76581 15.3704 6.97545 15.3704 6.95471C15.3704 6.9162 10.6968 3.65377 10.4058 3.48913C10.1979 3.37147 9.94402 3.34307 9.74816 3.41545ZM13.8664 9.28127C12.7815 10.1492 11.8938 10.8736 11.8938 10.891C11.8938 10.9084 12.7815 11.7321 13.8664 12.7213L15.8391 14.5199L15.8493 12.8293C15.8549 11.8995 15.8549 10.3658 15.8493 9.42096L15.8391 7.70319L13.8664 9.28127ZM4.13988 11.2152V14.5472L4.28637 14.409C4.41828 14.2847 4.90992 13.8367 7.36254 11.6063C7.77074 11.2351 8.10832 10.9196 8.11269 10.9052C8.11926 10.8836 7.27027 10.2375 4.31367 8.01389L4.13988 7.88319V11.2152ZM0.015625 10.0001C0.015625 10.419 0.0213672 10.5904 0.0283984 10.3809C0.0353906 10.1714 0.0353906 9.8287 0.0283984 9.6192C0.0213672 9.40971 0.015625 9.58112 0.015625 10.0001ZM6.89742 13.1748L4.8307 15.0587L7.415 15.0687C8.83633 15.0742 11.163 15.0742 12.5854 15.0687L15.1715 15.0587L13.8868 13.8868C13.1802 13.2423 12.2494 12.3942 11.8182 12.0022L11.0344 11.2896L9.99926 11.2902L8.9641 11.2908L6.89742 13.1748Z" fill="#0E0E0E" fill-opacity="0.5"/>
</g>
<defs>
<clipPath id="clip0_2_293">
<rect width="20" height="20" fill="white"/>
</clipPath>
</defs>
</svg>
