<svg width="20" height="20" viewBox="0 0 20 20" fill="none" xmlns="http://www.w3.org/2000/svg">
<g clip-path="url(#clip0_2_297)">
<path fill-rule="evenodd" clip-rule="evenodd" d="M9.04199 0.0253758C6.67637 0.280493 4.58 1.27577 2.92742 2.92838C1.42141 4.43436 0.484063 6.261 0.108359 8.42174C0.0319141 8.86151 0.0207422 9.06276 0.0207422 9.99999C0.0207422 10.9372 0.0319141 11.1385 0.108359 11.5782C0.294648 12.6496 0.553711 13.4548 1.01449 14.3945C1.53059 15.447 2.12441 16.2732 2.96586 17.1094C4.42504 18.5594 6.24215 19.4974 8.31934 19.8727C8.83707 19.9663 8.97805 19.9753 9.95996 19.9778C11.1407 19.9807 11.4671 19.9463 12.3774 19.7226C13.7686 19.3809 15.143 18.7014 16.2881 17.789C16.7517 17.4197 17.5405 16.6155 17.8941 16.1517C19.0274 14.6652 19.7323 12.9683 19.9243 11.2643C19.9482 11.0523 19.9836 10.8484 20.0029 10.8111C20.0527 10.715 20.049 9.12924 19.999 9.16014C19.9756 9.17463 19.96 9.12475 19.96 9.03549C19.9599 8.79417 19.8107 7.94413 19.6858 7.47374C19.3264 6.12034 18.6374 4.75752 17.7716 3.68729C17.4513 3.29131 16.7077 2.54772 16.3117 2.22741C14.9616 1.1351 13.2563 0.37897 11.5029 0.0951805C11.1238 0.0338133 9.41352 -0.0147023 9.04199 0.0253758ZM6.38574 4.17651C6.17777 4.23026 5.18211 4.64928 4.93531 4.7869C4.41172 5.07893 4.16289 5.58245 4.16406 6.34764C4.16594 7.57401 4.85215 9.16233 6.08648 10.7975C6.5152 11.3654 6.85137 11.7486 7.47238 12.3771C8.69715 13.6167 9.84719 14.4794 11.1318 15.1223C12.5654 15.8396 13.8407 16.0281 14.6196 15.6378C15.0325 15.4309 15.2227 15.1479 15.6261 14.1406C15.8418 13.602 15.8704 13.4712 15.8165 13.2688C15.7375 12.9717 15.6393 12.893 14.6019 12.2947C13.5076 11.6637 13.4596 11.6406 13.2371 11.6406C12.9498 11.6406 12.758 11.7805 12.4975 12.1799C12.3152 12.4593 11.9982 12.6704 11.6671 12.7329C11.4527 12.7733 11.3777 12.7709 11.166 12.7168C10.8797 12.6437 10.788 12.5875 10.2529 12.1578C9.45414 11.5162 8.49723 10.5603 7.84488 9.75237C7.42637 9.23397 7.35652 9.12124 7.28449 8.84764C7.14379 8.31311 7.3502 7.81311 7.8482 7.48206C8.26352 7.20592 8.37746 7.02725 8.34992 6.69526C8.3352 6.5176 8.26391 6.36913 7.8327 5.61764C7.19301 4.50299 7.08148 4.33749 6.91309 4.25319C6.74098 4.16706 6.53711 4.13741 6.38574 4.17651ZM10.0085 4.78315C9.90234 4.87248 9.88184 4.91655 9.88184 5.05526C9.88184 5.18124 9.90512 5.24264 9.97945 5.31245C10.0635 5.39139 10.1464 5.41127 10.5752 5.45526C11.718 5.57249 12.6325 6.01127 13.3782 6.80022C14.066 7.5278 14.4343 8.3569 14.5438 9.42385C14.5877 9.85256 14.6076 9.93553 14.6866 10.0196C14.7564 10.0939 14.8178 10.1172 14.9438 10.1172C15.0825 10.1172 15.1265 10.0967 15.2159 9.99049C15.3218 9.86459 15.3223 9.8612 15.2976 9.43385C15.1511 6.89772 13.1013 4.84795 10.5652 4.70139C10.1378 4.6767 10.1344 4.67721 10.0085 4.78315ZM9.98926 6.97307C9.75223 7.21112 9.92434 7.61717 10.2623 7.61717C10.9267 7.61717 11.6665 8.02686 12.0327 8.5976C12.2135 8.8792 12.3405 9.25854 12.3697 9.60346C12.3913 9.85893 12.4104 9.91737 12.5025 10.0095C12.6503 10.1573 12.8759 10.1593 13.0211 10.0142C13.1109 9.92432 13.124 9.87928 13.124 9.66057C13.124 8.90823 12.6945 8.02252 12.0942 7.53674C11.6015 7.13811 11.0649 6.92397 10.4678 6.88772C10.1013 6.86545 10.0954 6.86651 9.98926 6.97307ZM0.015625 9.99999C0.015625 10.4619 0.02125 10.6509 0.0281641 10.4199C0.0350781 10.1889 0.0350781 9.811 0.0281641 9.58006C0.02125 9.34913 0.015625 9.53807 0.015625 9.99999Z" fill="#0E0E0E" fill-opacity="0.5"/>
</g>
<defs>
<clipPath id="clip0_2_297">
<rect width="20" height="20" fill="white"/>
</clipPath>
</defs>
</svg>
