<svg width="20" height="20" viewBox="0 0 20 20" fill="none" xmlns="http://www.w3.org/2000/svg">
<g clip-path="url(#clip0_2_289)">
<path fill-rule="evenodd" clip-rule="evenodd" d="M9.19879 0.0246764C7.3491 0.220536 5.83848 0.747919 4.44652 1.68386C2.05992 3.28862 0.521914 5.74147 0.0893359 8.63284C0.00472657 9.19839 -0.00550781 10.7005 0.0715625 11.25C0.391328 13.5311 1.3523 15.4831 2.93441 17.0652C4.48785 18.6187 6.38098 19.5658 8.62047 19.9099C9.23094 20.0038 10.7524 20.003 11.3863 19.9087C14.5472 19.4379 17.2075 17.6013 18.7642 14.8152C19.3666 13.737 19.805 12.3586 19.9235 11.1697C19.948 10.9238 19.9839 10.6922 20.0034 10.6549C20.0532 10.5591 20.0496 9.28554 19.9996 9.31643C19.9759 9.33108 19.9602 9.27436 19.9598 9.17225C19.9594 9.07968 19.9333 8.8228 19.9019 8.60143C19.5953 6.4446 18.6121 4.4796 17.0661 2.93354C15.5224 1.38987 13.5641 0.408192 11.4058 0.0960436C10.9758 0.0338561 9.54824 -0.0123158 9.19879 0.0246764ZM9.60895 3.65507C9.55523 3.66448 9.37945 3.69163 9.21832 3.71546C8.64023 3.80097 7.90473 4.09862 7.36293 4.46643C7.05203 4.67749 6.47652 5.23534 6.26844 5.52737C5.74406 6.26323 5.47609 6.97507 5.38492 7.87401C5.34731 8.24538 5.35031 8.36917 5.40496 8.69253C5.58078 9.73315 6.20977 11.023 7.45219 12.8907C8.00734 13.7252 9.13605 15.2678 9.73707 16.0135C9.86789 16.1758 9.98063 16.3161 9.98766 16.3253C9.99465 16.3345 10.0222 16.314 10.0488 16.2798C10.0754 16.2457 10.3622 15.8778 10.6861 15.4624C13.0617 12.4153 14.4136 10.0618 14.6119 8.62811C14.7329 7.7528 14.4043 6.51366 13.8244 5.65901C13.5864 5.30827 13.0145 4.72921 12.6727 4.49288C12.1229 4.11284 11.5013 3.84772 10.8828 3.72948C10.5639 3.6685 9.79047 3.62335 9.60895 3.65507ZM9.78473 5.41561C9.02168 5.51057 8.42926 5.78651 7.95609 6.26725C7.38145 6.8512 7.1318 7.47397 7.13309 8.32034C7.13375 8.76889 7.1443 8.83952 7.26273 9.18858C7.42246 9.65936 7.67969 10.0596 8.03715 10.3935C8.36875 10.7034 8.64738 10.8714 9.09094 11.0292C9.41406 11.1442 9.46477 11.151 9.99957 11.151C10.5344 11.151 10.5851 11.1442 10.9082 11.0292C11.3918 10.8572 11.6489 10.6932 12.0318 10.3125C12.402 9.94444 12.6162 9.58577 12.7784 9.06253C12.8952 8.68593 12.9042 7.97229 12.7972 7.57815C12.4657 6.35733 11.4273 5.50225 10.1754 5.41917C10.025 5.40917 9.84918 5.40757 9.78473 5.41561ZM0.015625 10C0.015625 10.376 0.0214844 10.5298 0.0286719 10.3418C0.0358203 10.1539 0.0358203 9.8462 0.0286719 9.65823C0.0214844 9.47026 0.015625 9.62405 0.015625 10Z" fill="#0E0E0E" fill-opacity="0.5"/>
</g>
<defs>
<clipPath id="clip0_2_289">
<rect width="20" height="20" fill="white"/>
</clipPath>
</defs>
</svg>
