<svg width="234" height="76" viewBox="0 0 234 76" fill="none" xmlns="http://www.w3.org/2000/svg">
<g clip-path="url(#clip0_2_1112)">
<path fill-rule="evenodd" clip-rule="evenodd" d="M11.7031 52.3398H71.4405V62.6601H11.7031V52.3398Z" fill="#4B4B4B"/>
<path d="M203.408 46.297C204.127 46.5158 204.877 46.6563 205.659 46.719C206.44 46.7817 207.44 46.8124 208.659 46.8124C209.722 46.8124 210.722 46.6484 211.659 46.3205C212.597 45.9919 213.425 45.4686 214.144 44.7494C214.863 44.0308 215.441 43.1006 215.879 41.96C216.316 40.8194 216.535 39.4208 216.535 37.7648C216.535 36.1081 216.332 34.7173 215.925 33.5924C215.519 32.4675 214.98 31.5608 214.308 30.8735C213.636 30.1857 212.846 29.6937 211.94 29.3965C211.034 29.0999 210.081 28.951 209.08 28.951C208.049 28.951 207.072 29.0372 206.151 29.2084C205.229 29.3803 204.314 29.701 203.408 30.1694V46.2964V46.297ZM199.048 15.7775H203.408V26.5131C204.252 26.1068 205.252 25.7945 206.409 25.575C207.565 25.3562 208.737 25.2471 209.924 25.2471C211.55 25.2471 213.05 25.5208 214.425 26.0676C215.8 26.6144 216.987 27.4113 217.988 28.4585C218.988 29.5057 219.761 30.8102 220.309 32.3728C220.855 33.936 221.128 35.7175 221.128 37.7171C221.128 39.6234 220.855 41.3584 220.309 42.921C219.761 44.4842 218.949 45.8201 217.871 46.9294C216.792 48.0392 215.472 48.8983 213.909 49.5078C212.347 50.1172 210.55 50.4223 208.518 50.4223C207.205 50.4223 205.744 50.3518 204.135 50.2113C202.525 50.0708 200.829 49.7507 199.048 49.2503V15.7775H199.048ZM171.389 26.0911H175.749V41.0931C175.749 43.1247 176.218 44.5619 177.155 45.4065C178.093 46.2505 179.359 46.6719 180.952 46.6719C182.39 46.6719 183.687 46.4459 184.844 45.9925C186 45.5392 186.985 45.0472 187.797 44.5161V26.0917H192.157V45.0786L194.173 47.9856L191.126 50.3765L188.782 47.9385C187.656 48.6571 186.359 49.2509 184.89 49.72C183.421 50.189 181.906 50.4235 180.343 50.4235C178.624 50.4235 177.186 50.1811 176.03 49.6964C174.873 49.2124 173.951 48.5559 173.264 47.7275C172.576 46.8992 172.092 45.9304 171.81 44.8212C171.529 43.7113 171.388 42.5472 171.388 41.3282V26.0923L171.389 26.0911ZM160.653 19.4338H157.934V15.7769H165.014V49.5777H160.654V19.4332L160.653 19.4338ZM153.996 47.8903C152.183 48.7029 150.363 49.3275 148.534 49.7658C146.706 50.2035 144.62 50.4223 142.276 50.4223C139.151 50.4223 136.525 49.9768 134.4 49.0858C132.274 48.1953 130.564 46.9685 129.266 45.4059C127.969 43.8433 127.039 41.9757 126.477 39.8036C125.914 37.6315 125.633 35.2798 125.633 32.7478C125.633 30.2164 125.992 27.8804 126.711 25.7396C127.43 23.5983 128.5 21.7391 129.923 20.1608C131.345 18.5825 133.118 17.3557 135.244 16.481C137.369 15.6056 139.838 15.168 142.651 15.168C145.089 15.168 147.19 15.3868 148.956 15.8245C150.722 16.2622 152.308 16.7619 153.715 17.3244L152.355 20.8873C151.355 20.5117 150.441 20.1994 149.613 19.9492C148.784 19.699 147.995 19.5037 147.245 19.3632C146.495 19.2228 145.761 19.1209 145.042 19.0588C144.323 18.9961 143.573 18.9648 142.792 18.9648C138.791 18.9648 135.744 20.168 133.65 22.5746C131.556 24.9812 130.509 28.3723 130.509 32.7478C130.509 37.4049 131.509 40.8894 133.509 43.2025C135.51 45.5151 138.478 46.6713 142.417 46.6713C143.479 46.6713 144.441 46.6249 145.3 46.5309C146.159 46.4374 146.98 46.3048 147.761 46.1324C148.542 45.9606 149.332 45.7339 150.129 45.4524C150.926 45.1714 151.794 44.8429 152.731 44.4679L153.997 47.8903H153.996Z" fill="#4B4B4B"/>
<path fill-rule="evenodd" clip-rule="evenodd" d="M83.1875 52.5112H222.3V62.8321H83.1875V52.5112Z" fill="#4B4B4B"/>
<path d="M20.6519 60.1712C20.4047 60.1712 20.2027 60.1278 20.046 60.0422C19.8886 59.956 19.7747 59.8439 19.7036 59.7052C19.6324 59.5666 19.5728 59.4134 19.5239 59.2452C19.4751 59.077 19.419 58.9088 19.3557 58.74C19.2918 58.5718 19.208 58.4145 19.1031 58.2686C18.9982 58.1227 18.8373 58.0016 18.6202 57.9039C18.4032 57.8068 18.1301 57.7508 17.801 57.7351V59.6998C17.801 59.8421 17.763 59.956 17.687 60.0422C17.6111 60.1278 17.511 60.1712 17.3868 60.1712C17.2554 60.1712 17.1571 60.1224 17.0914 60.0253C17.0257 59.9283 16.9931 59.8192 16.9931 59.6998V57.7351C16.664 57.7502 16.3867 57.8062 16.1624 57.9039C15.9381 58.0009 15.7754 58.1227 15.6741 58.2686C15.5728 58.4151 15.4908 58.5718 15.4269 58.74C15.3636 58.9088 15.3088 59.077 15.2642 59.2452C15.2195 59.4134 15.1611 59.5672 15.0905 59.7052C15.0194 59.8439 14.9049 59.956 14.7481 60.0422C14.5908 60.1278 14.3888 60.1712 14.1422 60.1712C13.798 60.1712 13.6256 60.0368 13.6256 59.7673C13.6256 59.4978 13.798 59.3628 14.1422 59.3628C14.2242 59.3628 14.2899 59.3146 14.3382 59.2169C14.387 59.1198 14.4316 58.9926 14.4726 58.8353C14.5136 58.678 14.5661 58.5152 14.63 58.347C14.6933 58.1788 14.8042 58.0046 14.9609 57.8249C15.1183 57.6453 15.3202 57.503 15.5668 57.3981C15.4547 57.2636 15.3425 57.0822 15.2304 56.8537C15.1183 56.6258 15.023 56.4293 14.944 56.2647C14.8657 56.1001 14.7572 55.9542 14.6185 55.827C14.4798 55.6998 14.3207 55.6365 14.1416 55.6365C13.9915 55.6365 13.8686 55.601 13.7709 55.5298C13.6738 55.4587 13.625 55.3598 13.625 55.2326C13.625 54.9632 13.7974 54.8281 14.1416 54.8281C14.4479 54.8281 14.721 54.8842 14.9609 54.9963C15.2003 55.1091 15.3859 55.2489 15.5162 55.4177C15.647 55.5859 15.7669 55.7674 15.8755 55.9621C15.984 56.1568 16.0666 56.3383 16.1226 56.5065C16.1787 56.6747 16.2462 56.8151 16.3246 56.9273C16.4029 57.0394 16.4873 57.0955 16.5772 57.0955H16.9925V55.2887C16.9925 55.1543 17.0299 55.0458 17.1065 54.9626C17.1824 54.8806 17.2789 54.8396 17.3965 54.8396C17.5345 54.8396 17.6364 54.8842 17.7021 54.974C17.7678 55.0638 17.8004 55.1687 17.8004 55.2887V57.0955H18.2157C18.3056 57.0955 18.39 57.0394 18.4683 56.9273C18.5467 56.8151 18.616 56.6747 18.6757 56.5065C18.7354 56.3383 18.8192 56.1568 18.9283 55.9621C19.0362 55.768 19.1562 55.5865 19.2876 55.4177C19.4184 55.2495 19.6035 55.1091 19.8428 54.9963C20.0822 54.8842 20.3516 54.8281 20.6513 54.8281C20.9955 54.8281 21.1673 54.9626 21.1673 55.2326C21.1673 55.5021 20.9949 55.6365 20.6513 55.6365C20.4716 55.6365 20.3106 55.6998 20.169 55.827C20.0267 55.9542 19.9182 56.0983 19.8428 56.2593C19.7681 56.4203 19.6728 56.615 19.5571 56.8429C19.4407 57.0713 19.3268 57.2522 19.2147 57.3872C19.4691 57.4921 19.677 57.6338 19.8374 57.8135C19.9984 57.9931 20.1105 58.1691 20.1744 58.341C20.2377 58.5134 20.2883 58.6773 20.3257 58.8347C20.3631 58.992 20.4041 59.1192 20.4493 59.2163C20.4939 59.3134 20.5614 59.3622 20.6513 59.3622C20.8008 59.3622 20.9244 59.3984 21.0214 59.4689C21.1185 59.54 21.1673 59.6389 21.1673 59.7661C21.1673 60.0356 20.9949 60.17 20.6513 60.17L20.6519 60.1712Z" fill="white"/>
<path d="M28.131 54.9177V59.6881C28.131 60.01 28.0002 60.171 27.7385 60.171C27.4612 60.171 27.3232 59.9986 27.3232 59.6549V56.0179L23.3721 60.0926H22.5859V55.3216C22.5859 55.0003 22.7168 54.8394 22.979 54.8394C23.2557 54.8394 23.3944 55.0118 23.3944 55.3554V59.037L27.3792 54.9171H28.131V54.9177Z" fill="white"/>
<path d="M29.9647 60.6204C29.9647 60.9568 29.8302 61.1256 29.5602 61.1256C29.2907 61.1256 29.1562 60.9574 29.1562 60.6204V60.0929C29.1562 59.5539 29.3992 59.2844 29.8857 59.2844C30.6188 58.0721 30.9859 56.6168 30.9859 54.918H34.2859V59.2844H34.6597C35.1215 59.2844 35.3518 59.5539 35.3518 60.0929V60.6204C35.3518 60.9568 35.2173 61.1256 34.9479 61.1256C34.6784 61.1256 34.544 60.9574 34.544 60.6204V60.0929H29.9641V60.6204H29.9647ZM31.7943 55.7264C31.76 57.0063 31.4308 58.1921 30.8069 59.2844H33.4781V55.7264H31.7943Z" fill="white"/>
<path d="M37.41 57.0955H38.5548C38.6669 57.0955 38.7887 57.0171 38.9195 56.8597C39.0504 56.7024 39.1908 56.5137 39.3403 56.2931C39.4898 56.0724 39.6604 55.8512 39.8509 55.6305C40.042 55.4099 40.2886 55.2212 40.5919 55.0638C40.8945 54.9065 41.2297 54.8281 41.5962 54.8281C41.7457 54.8281 41.8693 54.8619 41.9664 54.9294C42.0634 54.9963 42.1122 55.0976 42.1122 55.2326C42.1122 55.5021 41.9398 55.6365 41.5962 55.6365C41.3569 55.6365 41.1374 55.73 40.9391 55.9169C40.7408 56.1038 40.5255 56.36 40.294 56.6855C40.0619 57.0111 39.8636 57.2486 39.699 57.3981C40.0433 57.5325 40.3332 57.7176 40.5689 57.9539C40.8047 58.1896 40.9614 58.4085 41.0404 58.6104C41.1193 58.8124 41.205 58.9884 41.2984 59.1379C41.3918 59.2874 41.4913 59.3622 41.5962 59.3622C41.7457 59.3622 41.8693 59.3984 41.9664 59.4689C42.0634 59.54 42.1122 59.6389 42.1122 59.7661C42.1122 60.0356 41.9398 60.17 41.5962 60.17C41.334 60.17 41.1133 60.129 40.9337 60.0464C40.754 59.9644 40.6154 59.8553 40.5183 59.7209C40.4206 59.5864 40.3314 59.4388 40.2488 59.2778C40.1662 59.1168 40.071 58.9559 39.9625 58.7949C39.854 58.6339 39.7249 58.4862 39.5754 58.3518C39.4259 58.2174 39.2107 58.1089 38.9304 58.0263C38.6495 57.9443 38.3149 57.9033 37.926 57.9033H37.41V59.7329C37.41 59.8674 37.372 59.9741 37.2973 60.0531C37.2225 60.1314 37.1212 60.1706 36.9946 60.1706C36.8602 60.1706 36.7607 60.1242 36.6968 60.0308C36.6335 59.9373 36.6016 59.8342 36.6016 59.7215V55.2881C36.6016 55.1537 36.6389 55.0452 36.7137 54.962C36.7884 54.88 36.8861 54.839 37.0055 54.839C37.1477 54.839 37.2502 54.8836 37.3141 54.9734C37.3774 55.0632 37.41 55.1681 37.41 55.2881V57.0948V57.0955Z" fill="white"/>
<path d="M46.3218 60.0925H45.9963C44.9859 60.0925 44.2601 59.9563 43.8182 59.6826C43.3763 59.4095 43.1562 58.8802 43.1562 58.094V56.9154C43.1562 56.1299 43.3769 55.6 43.8182 55.3269C44.2595 55.0538 44.9859 54.917 45.9963 54.917H46.3218C47.325 54.917 48.0466 55.0538 48.4885 55.3269C48.9298 55.6 49.1504 56.1293 49.1504 56.9154V58.094C49.1504 58.8795 48.9298 59.4095 48.4885 59.6826C48.0466 59.9557 47.325 60.0925 46.3218 60.0925ZM45.9963 59.2841H46.3218C47.1526 59.2841 47.6969 59.2153 47.955 59.0767C48.2136 58.938 48.3426 58.5998 48.3426 58.0609V56.9498C48.3426 56.4109 48.2136 56.0721 47.955 55.934C47.6969 55.7953 47.1526 55.7266 46.3218 55.7266H45.9963C45.1583 55.7266 44.6097 55.7959 44.3517 55.934C44.0931 56.0727 43.9641 56.4109 43.9641 56.9498V58.0609C43.9641 58.5998 44.0931 58.9386 44.3517 59.0767C44.6097 59.2153 45.1577 59.2841 45.9963 59.2841Z" fill="white"/>
<path d="M54.946 60.093H53.3635C52.3531 60.093 51.6273 59.9567 51.1854 59.683C50.7441 59.41 50.5234 58.8806 50.5234 58.0945V56.9159C50.5234 56.1304 50.7441 55.6005 51.1854 55.3274C51.6273 55.0543 52.3525 54.9175 53.3635 54.9175H54.946C55.4325 54.9175 55.7598 55.0429 55.928 55.2937C56.0962 55.5444 56.1806 55.8754 56.1806 56.2872C56.1806 56.6236 56.0456 56.7923 55.7767 56.7923C55.6718 56.7923 55.5784 56.755 55.4958 56.6802C55.4132 56.6055 55.3728 56.4819 55.3728 56.3101C55.3728 56.0852 55.339 55.9321 55.2715 55.8495C55.2046 55.7675 55.0696 55.7265 54.8676 55.7265H53.3635C52.5255 55.7265 51.9769 55.7958 51.7189 55.9339C51.4609 56.0725 51.3319 56.4107 51.3319 56.9497V58.0608C51.3319 58.5997 51.4615 58.9385 51.7189 59.0766C51.9775 59.2152 52.5255 59.2839 53.3635 59.2839H54.8676C55.0696 59.2839 55.2046 59.243 55.2715 59.161C55.339 59.0784 55.3728 58.9253 55.3728 58.7004C55.3728 58.5286 55.4138 58.405 55.4958 58.3302C55.5784 58.2555 55.6718 58.2181 55.7767 58.2181C56.0462 58.2181 56.1806 58.3905 56.1806 58.7342C56.1806 59.1459 56.0962 59.4751 55.928 59.7216C55.7598 59.9688 55.4325 60.0924 54.946 60.0924V60.093Z" fill="white"/>
<path d="M61.8142 54.918C62.1355 54.918 62.2965 55.0566 62.2965 55.3333C62.2965 55.5956 62.1355 55.7264 61.8142 55.7264H60.1413V59.7336C60.1413 59.8903 60.0925 60.003 59.9954 60.0706C59.8983 60.1375 59.7892 60.1712 59.6699 60.1712C59.3702 60.1712 59.2207 60.0253 59.2207 59.7336V55.7264H57.537C57.215 55.7264 57.0547 55.5914 57.0547 55.3219C57.0547 55.0524 57.2156 54.918 57.537 54.918H61.8136H61.8142Z" fill="white"/>
<path d="M68.896 54.9182V59.6886C68.896 60.0105 68.7652 60.1715 68.5035 60.1715C68.2262 60.1715 68.0882 59.9991 68.0882 59.6554V56.0184L64.1371 60.0931H63.3516V55.3221C63.3516 55.0008 63.4824 54.8398 63.744 54.8398C64.0207 54.8398 64.1594 55.0123 64.1594 55.3559V59.0375L68.1442 54.9176H68.896V54.9182Z" fill="white"/>
<path d="M86.3128 54.918H87.8959C88.9062 54.918 89.6321 55.0548 90.0734 55.3279C90.5153 55.601 90.7353 56.1303 90.7353 56.9164V58.095C90.7353 58.8805 90.5147 59.4104 90.0734 59.6835C89.6315 59.9566 88.9062 60.0935 87.8959 60.0935H86.3128C85.8263 60.0935 85.4989 59.9681 85.3307 59.7173C85.1625 59.4665 85.0781 59.1355 85.0781 58.7238C85.0781 58.3868 85.2126 58.2186 85.482 58.2186C85.5869 58.2186 85.6804 58.256 85.7624 58.3307C85.845 58.4055 85.886 58.5291 85.886 58.7009C85.886 58.9257 85.9191 59.0789 85.9866 59.1615C86.0541 59.244 86.1892 59.2844 86.3905 59.2844H87.8947C88.7326 59.2844 89.2812 59.2157 89.5392 59.0771C89.7973 58.9384 89.9263 58.6117 89.9263 58.095V57.8255H87.5239C87.1797 57.8255 87.0079 57.6983 87.0079 57.4439C87.0079 57.1594 87.1803 57.0171 87.5239 57.0171H89.9263V56.905C89.9263 56.3889 89.7973 56.0634 89.5392 55.9284C89.2812 55.7939 88.7326 55.7264 87.8947 55.7264H86.3905C86.1886 55.7264 86.0541 55.7674 85.9866 55.8494C85.9191 55.932 85.886 56.0851 85.886 56.3099C85.886 56.4824 85.845 56.606 85.7624 56.6801C85.6798 56.7549 85.5863 56.7922 85.482 56.7922C85.2126 56.7922 85.0781 56.6204 85.0781 56.2762C85.0781 55.8645 85.1619 55.5353 85.3307 55.2887C85.4995 55.0415 85.8263 54.918 86.3128 54.918Z" fill="white"/>
<path d="M97.3353 59.6775C97.3353 60.0067 97.1973 60.1712 96.92 60.1712C96.6577 60.1712 96.5275 60.0103 96.5275 59.6883V55.7264H94.2373C93.9605 55.7264 93.7773 55.7638 93.6875 55.8385C93.5976 55.9133 93.5524 56.0513 93.5524 56.2539V58.6334C93.5524 58.9474 93.515 59.2079 93.4403 59.4135C93.3655 59.6196 93.2552 59.7691 93.1093 59.8626C92.9628 59.956 92.8193 60.0181 92.6771 60.0476C92.5348 60.0778 92.3588 60.0929 92.1496 60.0929C91.8053 60.0929 91.6329 59.9542 91.6329 59.6775C91.6329 59.4159 91.8053 59.2844 92.1496 59.2844C92.3594 59.2844 92.5107 59.2489 92.6041 59.1777C92.6976 59.1066 92.744 58.9703 92.744 58.7684V56.3775C92.744 55.8385 92.832 55.4611 93.008 55.2435C93.1835 55.0265 93.5633 54.918 94.1474 54.918H97.3353V59.6775Z" fill="white"/>
<path d="M104.868 56.9165V57.4555H99.6822V58.0614C99.6822 58.6003 99.8112 58.9391 100.069 59.0772C100.328 59.2158 100.876 59.2846 101.714 59.2846H103.443C103.645 59.2846 103.779 59.2436 103.847 59.1616C103.914 59.079 103.948 58.9259 103.948 58.701C103.948 58.5292 103.989 58.4056 104.072 58.3308C104.154 58.2561 104.248 58.2187 104.352 58.2187C104.621 58.2187 104.756 58.3911 104.756 58.7348C104.756 59.1465 104.672 59.4757 104.504 59.7222C104.336 59.9694 104.008 60.093 103.522 60.093H101.714C100.704 60.093 99.9782 59.9567 99.5369 59.683C99.095 59.41 98.875 58.8806 98.875 58.0945V56.9159C98.875 56.1304 99.0956 55.6005 99.5369 55.3274C99.9782 55.0543 100.704 54.9175 101.714 54.9175H102.04C103.043 54.9175 103.765 55.0543 104.207 55.3274C104.648 55.6005 104.869 56.1298 104.869 56.9159L104.868 56.9165ZM102.039 55.7265H101.714C100.905 55.7265 100.371 55.7826 100.109 55.8947C99.8468 56.0068 99.7045 56.2576 99.6822 56.6465H104.06C104.03 56.2498 103.88 55.9972 103.611 55.8887C103.342 55.7802 102.818 55.7259 102.039 55.7259V55.7265Z" fill="white"/>
<path d="M107.151 57.0955H108.296C108.408 57.0955 108.529 57.0171 108.661 56.8597C108.791 56.7024 108.932 56.5137 109.081 56.2931C109.231 56.0724 109.401 55.8512 109.593 55.6305C109.783 55.4099 110.03 55.2212 110.333 55.0638C110.636 54.9065 110.971 54.8281 111.338 54.8281C111.487 54.8281 111.611 54.8619 111.709 54.9294C111.806 54.9963 111.854 55.0976 111.854 55.2326C111.854 55.5021 111.682 55.6365 111.338 55.6365C111.098 55.6365 110.88 55.73 110.681 55.9169C110.483 56.1038 110.268 56.36 110.036 56.6855C109.804 57.0111 109.606 57.2486 109.441 57.3981C109.785 57.5325 110.075 57.7176 110.311 57.9539C110.547 58.1896 110.704 58.4085 110.782 58.6104C110.861 58.8124 110.947 58.9884 111.041 59.1379C111.134 59.2874 111.233 59.3622 111.338 59.3622C111.487 59.3622 111.611 59.3984 111.709 59.4689C111.806 59.54 111.854 59.6389 111.854 59.7661C111.854 60.0356 111.682 60.17 111.338 60.17C111.076 60.17 110.856 60.129 110.676 60.0464C110.496 59.9644 110.358 59.8553 110.26 59.7209C110.163 59.5864 110.074 59.4388 109.991 59.2778C109.908 59.1168 109.813 58.9559 109.705 58.7949C109.596 58.6339 109.467 58.4862 109.318 58.3518C109.168 58.2174 108.953 58.1089 108.673 58.0263C108.392 57.9443 108.057 57.9033 107.668 57.9033H107.152V59.7329C107.152 59.8674 107.115 59.9741 107.039 60.0531C106.965 60.1314 106.863 60.1706 106.737 60.1706C106.602 60.1706 106.503 60.1242 106.44 60.0308C106.376 59.9373 106.344 59.8342 106.344 59.7215V55.2881C106.344 55.1537 106.381 55.0452 106.456 54.962C106.531 54.88 106.628 54.839 106.748 54.839C106.891 54.839 106.993 54.8836 107.057 54.9734C107.12 55.0632 107.153 55.1681 107.153 55.2881V57.0948L107.151 57.0955Z" fill="white"/>
<path d="M117.29 54.918C117.612 54.918 117.773 55.0566 117.773 55.3333C117.773 55.5956 117.612 55.7264 117.29 55.7264H115.618V59.7336C115.618 59.8903 115.569 60.003 115.472 60.0706C115.374 60.1375 115.266 60.1712 115.146 60.1712C114.847 60.1712 114.697 60.0253 114.697 59.7336V55.7264H113.014C112.692 55.7264 112.531 55.5914 112.531 55.3219C112.531 55.0524 112.692 54.918 113.014 54.918H117.29Z" fill="white"/>
<path d="M124.814 58.0947C124.814 58.8802 124.595 59.4101 124.157 59.6832C123.72 59.9563 123.007 60.0931 122.019 60.0931H119.628V61.631C119.628 61.9674 119.486 62.1362 119.202 62.1362C118.948 62.1362 118.82 61.968 118.82 61.631V55.3113C118.82 54.9966 118.955 54.8398 119.224 54.8398C119.494 54.8398 119.628 55.008 119.628 55.345V55.4795C120.092 55.1057 120.769 54.9182 121.66 54.9182H121.985C122.988 54.9182 123.71 55.0551 124.152 55.3282C124.593 55.6013 124.814 56.1306 124.814 56.9167V58.0953V58.0947ZM124.006 56.9498C124.006 56.4109 123.877 56.0721 123.619 55.934C123.36 55.7954 122.816 55.7266 121.985 55.7266H121.66C120.897 55.7266 120.367 55.8858 120.071 56.2035C119.775 56.5218 119.628 56.9498 119.628 57.4888V59.2847H122.019C122.835 59.2847 123.37 59.216 123.625 59.0773C123.879 58.9387 124.006 58.6004 124.006 58.0615V56.9504L124.006 56.9498Z" fill="white"/>
<path d="M129.353 60.093H129.028C128.017 60.093 127.291 59.9567 126.849 59.683C126.408 59.41 126.188 58.8806 126.188 58.0945V56.9159C126.188 56.1304 126.408 55.6005 126.849 55.3274C127.291 55.0543 128.017 54.9175 129.028 54.9175H129.353C130.356 54.9175 131.078 55.0543 131.52 55.3274C131.961 55.6005 132.182 56.1298 132.182 56.9159V58.0945C132.182 58.88 131.961 59.41 131.52 59.683C131.078 59.9561 130.356 60.093 129.353 60.093ZM129.028 59.2846H129.353C130.184 59.2846 130.728 59.2158 130.986 59.0772C131.244 58.9385 131.373 58.6003 131.373 58.0614V56.9503C131.373 56.4114 131.244 56.0725 130.986 55.9345C130.728 55.7958 130.184 55.7271 129.353 55.7271H129.028C128.19 55.7271 127.641 55.7964 127.383 55.9345C127.125 56.0731 126.996 56.4114 126.996 56.9503V58.0614C126.996 58.6003 127.125 58.9391 127.383 59.0772C127.641 59.2158 128.19 59.2846 129.028 59.2846Z" fill="white"/>
<path d="M134.511 59.7001C134.511 60.0148 134.377 60.1715 134.107 60.1715C133.838 60.1715 133.703 60.0148 133.703 59.7001V55.3221C133.703 55.0008 133.83 54.8398 134.085 54.8398C134.369 54.8398 134.512 55.0008 134.512 55.3221V56.9498H138.44V55.3221C138.44 55.0008 138.571 54.8398 138.833 54.8398C139.11 54.8398 139.249 55.0008 139.249 55.3221V59.7001C139.249 60.0148 139.117 60.1715 138.856 60.1715C138.579 60.1715 138.44 60.0148 138.44 59.7001V57.7583H134.512V59.7001H134.511Z" fill="white"/>
<path d="M141.745 59.7001C141.745 60.0148 141.611 60.1715 141.341 60.1715C141.072 60.1715 140.938 60.0148 140.938 59.7001V55.3221C140.938 55.0008 141.065 54.8398 141.319 54.8398C141.603 54.8398 141.745 55.0008 141.745 55.3221V56.9498H145.674V55.3221C145.674 55.0008 145.805 54.8398 146.067 54.8398C146.343 54.8398 146.482 55.0008 146.482 55.3221V59.7001C146.482 60.0148 146.351 60.1715 146.089 60.1715C145.812 60.1715 145.674 60.0148 145.674 59.7001V57.7583H141.745V59.7001H141.745Z" fill="white"/>
<path d="M148.172 60.093V55.322C148.172 55.0007 148.303 54.8397 148.565 54.8397C148.842 54.8397 148.98 55.0007 148.98 55.322V57.0172H151.461C152.007 57.0172 152.468 57.1348 152.842 57.3711C153.215 57.6068 153.403 58.0017 153.403 58.5551C153.403 58.8469 153.346 59.0977 153.234 59.3069C153.122 59.5166 152.968 59.6758 152.774 59.7843C152.579 59.8928 152.374 59.9712 152.157 60.02C151.94 60.0689 151.708 60.093 151.461 60.093H148.172H148.172ZM151.36 59.2845C151.637 59.2845 151.867 59.2604 152.051 59.2116C152.234 59.1628 152.361 59.0958 152.432 59.0096C152.503 58.9234 152.549 58.8469 152.567 58.7794C152.585 58.7124 152.595 58.6377 152.595 58.5551C152.595 58.458 152.584 58.3754 152.561 58.3085C152.539 58.241 152.492 58.1644 152.421 58.0782C152.35 57.992 152.225 57.9287 152.045 57.8877C151.866 57.8467 151.637 57.8262 151.36 57.8262H148.981V59.2851H151.36V59.2845ZM153.841 55.1538C153.841 54.9814 153.882 54.8578 153.964 54.783C154.047 54.7083 154.14 54.6709 154.244 54.6709C154.349 54.6709 154.443 54.7083 154.525 54.783C154.607 54.8578 154.648 54.9814 154.648 55.1538V59.8681C154.648 60.1828 154.51 60.3395 154.233 60.3395C154.128 60.3395 154.036 60.304 153.958 60.2328C153.88 60.1617 153.841 60.0399 153.841 59.8681V55.1538H153.841Z" fill="white"/>
<path d="M162.158 56.9165V57.4555H156.972V58.0614C156.972 58.6003 157.102 58.9391 157.36 59.0772C157.618 59.2158 158.166 59.2846 159.004 59.2846H160.732C160.935 59.2846 161.069 59.2436 161.136 59.1616C161.204 59.079 161.238 58.9259 161.238 58.701C161.238 58.5292 161.279 58.4056 161.361 58.3308C161.444 58.2561 161.537 58.2187 161.642 58.2187C161.911 58.2187 162.046 58.3911 162.046 58.7348C162.046 59.1465 161.962 59.4757 161.794 59.7222C161.625 59.9694 161.298 60.093 160.811 60.093H159.004C157.994 60.093 157.268 59.9567 156.827 59.683C156.385 59.41 156.164 58.8806 156.164 58.0945V56.9159C156.164 56.1304 156.385 55.6005 156.827 55.3274C157.268 55.0543 157.994 54.9175 159.004 54.9175H159.33C160.332 54.9175 161.054 55.0543 161.496 55.3274C161.938 55.6005 162.158 56.1298 162.158 56.9159V56.9165ZM159.33 55.7265H159.004C158.196 55.7265 157.661 55.7826 157.399 55.8947C157.136 56.0068 156.995 56.2576 156.972 56.6465H161.35C161.32 56.2498 161.171 55.9972 160.901 55.8887C160.632 55.7802 160.108 55.7259 159.33 55.7259V55.7265Z" fill="white"/>
<path d="M170.813 60.093H169.23C168.22 60.093 167.494 59.9567 167.053 59.683C166.611 59.41 166.391 58.8806 166.391 58.0945V56.9159C166.391 56.1304 166.611 55.6005 167.053 55.3274C167.494 55.0543 168.22 54.9175 169.23 54.9175H170.813C171.299 54.9175 171.626 55.0429 171.795 55.2937C171.963 55.5444 172.047 55.8754 172.047 56.2872C172.047 56.6236 171.913 56.7923 171.643 56.7923C171.538 56.7923 171.445 56.755 171.362 56.6802C171.28 56.6055 171.239 56.4819 171.239 56.3101C171.239 56.0852 171.206 55.9321 171.139 55.8495C171.071 55.7675 170.936 55.7265 170.734 55.7265H169.23C168.392 55.7265 167.844 55.7958 167.585 55.9339C167.327 56.0725 167.198 56.4107 167.198 56.9497V58.0608C167.198 58.5997 167.327 58.9385 167.585 59.0766C167.844 59.2152 168.392 59.2839 169.23 59.2839H170.734C170.936 59.2839 171.071 59.243 171.139 59.161C171.206 59.0784 171.239 58.9253 171.239 58.7004C171.239 58.5286 171.28 58.405 171.362 58.3302C171.445 58.2555 171.538 58.2181 171.643 58.2181C171.913 58.2181 172.047 58.3905 172.047 58.7342C172.047 59.1459 171.963 59.4751 171.795 59.7216C171.626 59.9688 171.299 60.0924 170.813 60.0924V60.093Z" fill="white"/>
<path d="M179.107 54.9182V59.6886C179.107 60.0105 178.976 60.1715 178.714 60.1715C178.438 60.1715 178.299 59.9991 178.299 59.6554V56.0184L174.348 60.0931H173.562V55.3221C173.562 55.0008 173.693 54.8398 173.956 54.8398C174.232 54.8398 174.371 55.0123 174.371 55.3559V59.0375L178.356 54.9176H179.108L179.107 54.9182Z" fill="white"/>
<path d="M182.094 55.7268C181.892 55.7268 181.757 55.7623 181.69 55.8335C181.623 55.9046 181.589 56.0451 181.589 56.2549V59.7008C181.589 60.0155 181.45 60.1722 181.174 60.1722C180.911 60.1722 180.781 60.0155 180.781 59.7008V56.3785C180.781 55.8546 180.867 55.4802 181.039 55.2559C181.212 55.0311 181.537 54.9189 182.016 54.9189H185.092C185.429 54.9189 185.597 55.054 185.597 55.3229C185.597 55.5923 185.429 55.7274 185.092 55.7274H182.095L182.094 55.7268Z" fill="white"/>
<path d="M189.324 56.6693H190.862V56.1978C190.862 56.0109 190.828 55.8849 190.761 55.8216C190.693 55.7583 190.558 55.7264 190.357 55.7264H188.774C188.19 55.7264 187.797 55.7583 187.595 55.8216C187.393 55.8849 187.292 55.9995 187.292 56.1641C187.292 56.5005 187.154 56.6693 186.877 56.6693C186.615 56.6693 186.484 56.5011 186.484 56.1641C186.484 55.6926 186.673 55.3671 187.051 55.1874C187.429 55.0078 187.977 54.918 188.696 54.918H190.435C190.914 54.918 191.24 55.0301 191.412 55.255C191.585 55.4792 191.67 55.8536 191.67 56.3775V59.6998C191.67 60.0145 191.536 60.1712 191.266 60.1712C190.997 60.1712 190.862 60.003 190.862 59.666V59.5316C190.413 59.906 189.74 60.0929 188.842 60.0929H187.797C187.416 60.0929 187.102 59.9621 186.855 59.6998C186.607 59.4382 186.484 59.0861 186.484 58.6448C186.484 57.8816 186.71 57.3613 187.163 57.0846C187.616 56.8079 188.336 56.6693 189.324 56.6693H189.324ZM190.862 57.4777H189.324C188.486 57.4777 187.937 57.547 187.679 57.6857C187.421 57.8243 187.292 58.1625 187.292 58.7015C187.292 58.8588 187.349 58.9951 187.461 59.1114C187.573 59.2278 187.685 59.285 187.797 59.285H188.842C189.276 59.285 189.638 59.229 189.93 59.1168C190.222 59.0047 190.429 58.8474 190.553 58.6454C190.677 58.4435 190.759 58.2566 190.8 58.0842C190.841 57.9117 190.862 57.7098 190.862 57.4777Z" fill="white"/>
<path d="M199.306 58.0947C199.306 58.8802 199.087 59.4101 198.65 59.6832C198.212 59.9563 197.499 60.0931 196.511 60.0931H194.12V61.631C194.12 61.9674 193.978 62.1362 193.694 62.1362C193.44 62.1362 193.312 61.968 193.312 61.631V55.3113C193.312 54.9966 193.448 54.8398 193.716 54.8398C193.986 54.8398 194.12 55.008 194.12 55.345V55.4795C194.585 55.1057 195.262 54.9182 196.153 54.9182H196.478C197.481 54.9182 198.203 55.0551 198.645 55.3282C199.086 55.6013 199.307 56.1306 199.307 56.9167V58.0953L199.306 58.0947ZM198.498 56.9498C198.498 56.4109 198.369 56.0721 198.11 55.934C197.852 55.7954 197.308 55.7266 196.477 55.7266H196.151C195.388 55.7266 194.858 55.8858 194.563 56.2035C194.267 56.5218 194.119 56.9498 194.119 57.4888V59.2847H196.51C197.326 59.2847 197.86 59.216 198.115 59.0773C198.37 58.9387 198.497 58.6004 198.497 58.0615V56.9504L198.498 56.9498Z" fill="white"/>
<path d="M206.665 56.9165V57.4555H201.48V58.0614C201.48 58.6003 201.609 58.9391 201.867 59.0772C202.125 59.2158 202.673 59.2846 203.511 59.2846H205.24C205.442 59.2846 205.577 59.2436 205.644 59.1616C205.712 59.079 205.745 58.9259 205.745 58.701C205.745 58.5292 205.786 58.4056 205.869 58.3308C205.952 58.2561 206.045 58.2187 206.149 58.2187C206.419 58.2187 206.553 58.3911 206.553 58.7348C206.553 59.1465 206.47 59.4757 206.301 59.7222C206.133 59.9694 205.805 60.093 205.319 60.093H203.511C202.501 60.093 201.775 59.9567 201.334 59.683C200.892 59.41 200.672 58.8806 200.672 58.0945V56.9159C200.672 56.1304 200.893 55.6005 201.334 55.3274C201.776 55.0543 202.501 54.9175 203.511 54.9175H203.837C204.84 54.9175 205.562 55.0543 206.004 55.3274C206.445 55.6005 206.665 56.1298 206.665 56.9159V56.9165ZM203.837 55.7265H203.511C202.703 55.7265 202.168 55.7826 201.906 55.8947C201.644 56.0068 201.502 56.2576 201.48 56.6465H205.857C205.827 56.2498 205.677 55.9972 205.408 55.8887C205.138 55.7802 204.615 55.7259 203.836 55.7259L203.837 55.7265Z" fill="white"/>
<path d="M212.268 54.918C212.59 54.918 212.75 55.0566 212.75 55.3333C212.75 55.5956 212.589 55.7264 212.268 55.7264H210.595V59.7336C210.595 59.8903 210.546 60.003 210.449 60.0706C210.352 60.1375 210.243 60.1712 210.123 60.1712C209.824 60.1712 209.674 60.0253 209.674 59.7336V55.7264H207.99C207.668 55.7264 207.508 55.5914 207.508 55.3219C207.508 55.0524 207.669 54.918 207.99 54.918H212.267H212.268Z" fill="white"/>
<path d="M213.805 60.093V55.322C213.805 55.0007 213.936 54.8397 214.198 54.8397C214.475 54.8397 214.614 55.0007 214.614 55.322V57.0172H217.095C217.641 57.0172 218.101 57.1348 218.475 57.3711C218.849 57.6068 219.036 58.0017 219.036 58.5551C219.036 58.8469 218.98 59.0977 218.868 59.3069C218.755 59.5166 218.602 59.6758 218.408 59.7843C218.213 59.8928 218.007 59.9712 217.79 60.02C217.573 60.0689 217.341 60.093 217.094 60.093H213.805H213.805ZM216.993 59.2845C217.27 59.2845 217.5 59.2604 217.684 59.2116C217.867 59.1628 217.994 59.0958 218.065 59.0096C218.136 58.9234 218.182 58.8469 218.2 58.7794C218.219 58.7124 218.228 58.6377 218.228 58.5551C218.228 58.458 218.217 58.3754 218.194 58.3085C218.172 58.241 218.125 58.1644 218.054 58.0782C217.983 57.992 217.858 57.9287 217.678 57.8877C217.498 57.8467 217.27 57.8262 216.993 57.8262H214.614V59.2851H216.993V59.2845ZM219.474 55.1538C219.474 54.9814 219.515 54.8578 219.597 54.783C219.68 54.7083 219.773 54.6709 219.878 54.6709C219.982 54.6709 220.076 54.7083 220.158 54.783C220.241 54.8578 220.281 54.9814 220.281 55.1538V59.8681C220.281 60.1828 220.143 60.3395 219.866 60.3395C219.761 60.3395 219.669 60.304 219.591 60.2328C219.513 60.1617 219.473 60.0399 219.473 59.8681V55.1538H219.474Z" fill="white"/>
<path d="M117.62 45.9223C116.964 46.1098 116.331 46.266 115.721 46.3914C115.111 46.5161 114.494 46.6102 113.869 46.6723C113.243 46.735 112.541 46.7663 111.759 46.7663C109.321 46.7663 107.439 46.0863 106.11 44.7269C104.782 43.3674 104.086 41.5155 104.024 39.1716H119.401L121.51 37.1092C121.51 33.3275 120.643 30.4049 118.908 28.3425C117.173 26.2795 114.541 25.248 111.009 25.248C109.04 25.248 107.329 25.5917 105.875 26.2795C104.422 26.9674 103.219 27.8892 102.266 29.0454C101.312 30.2017 100.602 31.5455 100.133 33.0773C99.6636 34.6086 99.4297 36.2339 99.4297 37.9526C99.4297 39.8281 99.6485 41.5311 100.086 43.0624C100.524 44.5936 101.227 45.9066 102.196 47.0002C103.165 48.0944 104.423 48.9384 105.97 49.5316C107.517 50.126 109.415 50.4226 111.666 50.4226C113.823 50.4226 115.651 50.2273 117.151 49.8367C118.651 49.446 119.964 49.0475 121.089 48.6412L119.871 45.2658C119.026 45.516 118.277 45.7348 117.62 45.9223H117.62ZM106.04 30.7093C107.196 29.4747 108.837 28.8573 110.962 28.8573C111.806 28.8573 112.595 28.9664 113.33 29.1853C114.065 29.4041 114.705 29.7791 115.252 30.3102C115.799 30.8413 116.229 31.5443 116.541 32.4196C116.854 33.2949 117.01 34.3728 117.01 35.6545H104.071C104.227 33.5922 104.884 31.9433 106.04 30.7087V30.7093Z" fill="#46DA00"/>
<path d="M92.3075 28.4591C91.3695 27.412 90.2446 26.615 88.9322 26.0682C87.6191 25.5214 86.1976 25.2477 84.6658 25.2477C83.0718 25.2477 81.6418 25.4822 80.3758 25.9507C79.1099 26.4197 77.9458 26.9194 76.8835 27.4512L75.43 24.9668L71.6797 26.7012L73.1332 30.6391V59.7991H73.135V61.8434H77.4918V59.7991H77.4936V49.6724C78.4624 49.9226 79.4318 50.11 80.4006 50.2348C81.3694 50.3596 82.2604 50.4223 83.073 50.4223C85.1354 50.4223 86.9331 50.1173 88.4643 49.5078C89.9956 48.8983 91.2694 48.0386 92.2852 46.9294C93.301 45.8201 94.0588 44.4842 94.5586 42.921C95.0583 41.3584 95.3085 39.6397 95.3085 37.7642C95.3085 35.7326 95.0427 33.9355 94.5116 32.3729C93.9798 30.8103 93.2456 29.5057 92.3081 28.4585L92.3075 28.4591ZM90.1041 41.9607C89.6978 43.1013 89.151 44.0315 88.4631 44.7501C87.7759 45.4693 86.9861 45.9925 86.0951 46.3211C85.2041 46.6491 84.2745 46.813 83.3057 46.813C82.6179 46.813 82.0084 46.7895 81.4773 46.7425C80.9455 46.6961 80.4615 46.6334 80.0238 46.555C79.5861 46.4772 79.1641 46.3754 78.7578 46.2506C78.3515 46.1258 77.9295 45.9847 77.4918 45.8286V30.9206C78.586 30.3268 79.594 29.8584 80.5157 29.5141C81.4375 29.1705 82.4611 28.9987 83.5866 28.9987C84.5868 28.9987 85.5242 29.1476 86.3996 29.4442C87.2749 29.7408 88.0249 30.2333 88.65 30.9206C89.2752 31.6084 89.7749 32.5145 90.1499 33.6395C90.5249 34.765 90.7124 36.1401 90.7124 37.7654C90.7124 39.4214 90.5092 40.8201 90.1029 41.9607H90.1041Z" fill="#46DA00"/>
<path d="M32.2047 43.7656C31.8605 44.8911 31.4698 45.6489 31.0328 46.0395C30.5951 46.4302 30.017 46.6255 29.2984 46.6255C28.5484 46.6255 27.9624 46.4302 27.5404 46.0395C27.1184 45.6489 26.7356 44.8911 26.392 43.7656L17.4848 15.3561L13.125 16.3405L21.8447 44.6096C22.1262 45.5476 22.462 46.3753 22.8526 47.0939C23.2433 47.8125 23.7274 48.422 24.3055 48.9224C24.8843 49.4222 25.5794 49.805 26.392 50.0708C27.2046 50.3361 28.1734 50.4693 29.299 50.4693C30.4245 50.4693 31.3854 50.3288 32.1824 50.0473C32.9794 49.7664 33.6751 49.3679 34.2683 48.8518C34.8621 48.3364 35.3468 47.7191 35.7218 46.9999C36.0967 46.2813 36.4247 45.4843 36.7062 44.609L45.4265 16.3399L41.1131 15.3555L32.2059 43.765L32.2047 43.7656Z" fill="#46DA00"/>
<path d="M66.3307 34.9522C66.3307 33.4836 66.2137 32.1549 65.9792 30.9673C65.7447 29.7797 65.2992 28.7639 64.6433 27.9199C63.9868 27.0759 63.0572 26.42 61.8539 25.951C60.6506 25.4826 59.0802 25.248 57.142 25.248C55.1731 25.248 53.4616 25.4205 52.0087 25.7635C50.5552 26.1071 49.2814 26.4821 48.1878 26.8884L49.3127 30.1233C50.7192 29.623 51.9773 29.2793 53.0866 29.0918C54.1964 28.9044 55.3913 28.8103 56.6736 28.8103C58.5484 28.8103 59.8844 29.2088 60.6813 30.0058C61.4783 30.8027 61.8768 32.217 61.8768 34.2487V35.3736H55.2195C54.0626 35.3736 52.9299 35.514 51.8206 35.7956C50.7107 36.0771 49.7263 36.5305 48.8672 37.155C48.0076 37.7802 47.3125 38.5771 46.7813 39.5459C46.2496 40.5147 45.9844 41.6867 45.9844 43.0618C45.9844 44.3748 46.2183 45.4919 46.6873 46.4137C47.1563 47.336 47.7893 48.0938 48.5863 48.6876C49.3833 49.2814 50.305 49.7191 51.3522 50.0006C52.3993 50.2816 53.517 50.4226 54.7046 50.4226C55.6113 50.4226 56.4704 50.3443 57.2831 50.1881C58.0957 50.032 58.8535 49.8288 59.557 49.5786C60.2599 49.3285 60.9008 49.0554 61.4795 48.7581C62.0577 48.4615 62.5809 48.1728 63.05 47.8912L65.3004 50.3756L68.3008 47.9847L66.3319 45.0313V34.9516L66.3307 34.9522ZM61.9708 44.5629C61.1268 45.1254 60.1972 45.6492 59.1814 46.1333C58.1656 46.618 56.9545 46.8598 55.548 46.8598C54.8915 46.8598 54.2585 46.7971 53.6491 46.6723C53.0396 46.5475 52.5085 46.3286 52.0551 46.0164C51.6018 45.7035 51.2346 45.2899 50.9531 44.7739C50.6722 44.2585 50.5311 43.6249 50.5311 42.8749C50.5311 41.4998 51.0074 40.484 51.9611 39.8281C52.9142 39.1716 54.0789 38.8436 55.4534 38.8436H61.9696V44.5629H61.9708Z" fill="#46DA00"/>
</g>
<defs>
<clipPath id="clip0_2_1112">
<rect width="234" height="76" fill="white"/>
</clipPath>
</defs>
</svg>
