<svg width="20" height="16" viewBox="0 0 20 16" fill="none" xmlns="http://www.w3.org/2000/svg">
<path fill-rule="evenodd" clip-rule="evenodd" d="M10.8982 0.857901L10.2314 1.51579L12.8825 4.12834L15.5336 6.7409H7.86676H0.200012V7.69097V8.64104H7.86676H15.5336L12.8823 11.2537L10.2311 13.8664L10.9078 14.5332L11.5845 15.2L15.3842 11.4559L19.184 7.71176C19.2049 7.69097 19.2049 7.69097 19.1864 7.6727L19.1679 7.65487L15.3855 3.92744C13.3052 1.87737 11.5945 0.200012 11.5841 0.200012C11.5737 0.200012 11.265 0.496069 10.8982 0.857901ZM0.216217 7.69097C0.216217 8.22356 0.221409 8.44145 0.227713 8.17514C0.234054 7.90883 0.234054 7.47307 0.227713 7.2068C0.221409 6.94052 0.216217 7.15838 0.216217 7.69097Z" fill="white" stroke="white" stroke-width="0.4"/>
</svg>
